<?xml version="1.0" encoding="UTF-8" standalone="no"?>
<svg
   xmlns:dc="http://purl.org/dc/elements/1.1/"
   xmlns:cc="http://creativecommons.org/ns#"
   xmlns:rdf="http://www.w3.org/1999/02/22-rdf-syntax-ns#"
   xmlns:svg="http://www.w3.org/2000/svg"
   xmlns="http://www.w3.org/2000/svg"
   xmlns:sodipodi="http://sodipodi.sourceforge.net/DTD/sodipodi-0.dtd"
   xmlns:inkscape="http://www.inkscape.org/namespaces/inkscape"
   clip-rule="evenodd"
   fill-rule="evenodd"
   stroke-linecap="round"
   stroke-miterlimit="2"
   viewBox="0 0 5000 3334"
   width="5000"
   height="3334"
   xml:space="preserve"
   version="1.1"
   id="svg172"
   sodipodi:docname="hero-full-flip.svg"
   inkscape:version="1.0.2-2 (e86c870879, 2021-01-15)"><metadata
     id="metadata178"><rdf:RDF><cc:Work
         rdf:about=""><dc:format>image/svg+xml</dc:format><dc:type
           rdf:resource="http://purl.org/dc/dcmitype/StillImage" /><dc:title /></cc:Work></rdf:RDF></metadata><defs
     id="defs176" /><sodipodi:namedview
     pagecolor="#ffffff"
     bordercolor="#666666"
     borderopacity="1"
     objecttolerance="10"
     gridtolerance="10"
     guidetolerance="10"
     inkscape:pageopacity="0"
     inkscape:pageshadow="2"
     inkscape:window-width="2625"
     inkscape:window-height="1414"
     id="namedview174"
     showgrid="false"
     inkscape:zoom="0.30233953"
     inkscape:cx="2547.9593"
     inkscape:cy="1534.6984"
     inkscape:window-x="4136"
     inkscape:window-y="222"
     inkscape:window-maximized="0"
     inkscape:current-layer="svg172"
     inkscape:document-rotation="0" /><path
     fill="#455964"
     fill-rule="nonzero"
     d="M5000 0H-.04v3333.36H5000z"
     id="path2" /><path
     d="m 2823.5749,1112.666 c -0.492,-0.129 -28.905,-7.791 -63.717,-17.97 a -1945.978,1945.978 0 0 0 55.575,-56.297 -4.168,4.168 0 1 0 -6.062,-5.72 c -0.459,0.487 -24.267,25.679 -51.172,51.962 a -12723.568,12723.568 0 0 0 5.646,-68.517 -4.167,4.167 0 0 0 -3.825,-4.483 -4.188,4.188 0 0 0 -4.483,3.825 c -0.046,0.658 -2.775,34.87 -5.842,70.742 -17.338,-24.563 -34.988,-52.38 -44.504,-75.53 a -4.167,4.167 0 0 0 -7.705,3.163 c 9.634,23.454 26.946,51.004 44.092,75.446 -21.096,-6.317 -43.104,-13.196 -61.85,-19.658 a -4.1671552,4.1671552 0 1 0 -2.717,7.879 c 20.192,6.966 44.138,14.4 66.68,21.104 -20.667,19.58 -41.055,37.405 -52.446,43.292 a -4.167,4.167 0 1 0 3.825,7.404 c 11.866,-6.129 32.246,-23.787 52.904,-43.258 -2.316,26.296 -4.587,50.27 -5.858,58.833 a -4.167,4.167 0 1 0 8.242,1.221 c 1.266,-8.525 3.45,-31.392 5.7,-56.783 18.354,24.683 33.692,42.887 35.025,44.458 a -4.167,4.167 0 1 0 6.358,-5.387 c -0.325,-0.388 -15.946,-18.921 -34.704,-44.18 32.492,9.446 58.204,16.375 58.675,16.504 a -4.168,4.168 0 1 0 2.163,-8.05 z M 205.52795,1089.725 c -0.217,0.055 -12.694,3.241 -28.153,6.842 4.852,-16.374 8.788,-32.193 9.087,-33.403 a -1.824,1.824 0 1 0 -3.54,-0.878 -897.804,897.804 0 0 1 -8.34,30.805 c -6.207,-13.6 -12.091,-26.298 -12.57,-27.333 a -1.825,1.825 0 0 0 -2.421,-0.888 -1.832,1.832 0 0 0 -0.889,2.422 c 0.123,0.263 6.437,13.89 12.976,28.224 -11.889,-5.638 -24.595,-12.449 -33.198,-19.229 a -1.823,1.823 0 1 0 -2.257,2.862 c 8.713,6.87 21.234,13.652 33.022,19.285 -9.4,2.124 -19.267,4.233 -27.802,5.797 a -1.817,1.817 0 0 0 -1.464,2.122 -1.822,1.822 0 0 0 2.12,1.465 c 9.196,-1.684 19.923,-3.996 29.954,-6.283 -3.669,11.905 -7.61,23.08 -10.688,27.773 a -1.824,1.824 0 0 0 3.05,2.001 c 3.206,-4.888 7.18,-15.997 10.87,-27.858 4.768,10.522 9.055,20.148 10.41,23.685 a -1.824,1.824 0 0 0 3.406,-1.306 c -1.35,-3.522 -5.431,-12.71 -10.031,-22.87 12.301,5.465 22.06,9.106 22.906,9.42 a -1.824,1.824 0 1 0 1.267,-3.42 c -0.208,-0.077 -10.146,-3.786 -22.725,-9.383 a -1501.906,1501.906 0 0 0 25.914,-6.32 -1.826,1.826 0 0 0 1.316,-2.218 -1.826,1.826 0 0 0 -2.22,-1.314 z m 387.196,-560.05 c -0.495,-0.13 -28.908,-7.792 -63.717,-17.967 a -1946.42,1946.42 0 0 0 55.572,-56.3 -4.1680274,4.1680274 0 1 0 -6.063,-5.721 -2041.35,2041.35 0 0 1 -51.167,51.967 c 2.9,-34.042 5.442,-65.921 5.646,-68.517 a -4.17,4.17 0 0 0 -3.825,-4.488 -4.188,4.188 0 0 0 -4.484,3.825 c -0.05,0.663 -2.775,34.875 -5.845,70.742 -17.338,-24.562 -34.988,-52.375 -44.505,-75.53 a -4.165,4.165 0 1 0 -7.704,3.167 c 9.637,23.45 26.95,51 44.096,75.447 -21.096,-6.321 -43.105,-13.196 -61.855,-19.663 a -4.1674649,4.1674649 0 0 0 -2.716,7.88 c 20.196,6.966 44.142,14.4 66.68,21.108 -20.667,19.58 -41.051,37.404 -52.447,43.288 a -4.17,4.17 0 0 0 3.825,7.404 c 11.871,-6.13 32.246,-23.784 52.905,-43.255 -2.317,26.296 -4.588,50.272 -5.859,58.834 a -4.168,4.168 0 1 0 8.246,1.221 c 1.263,-8.53 3.45,-31.396 5.696,-56.784 18.354,24.684 33.692,42.884 35.025,44.459 a -4.169,4.169 0 0 0 6.363,-5.388 c -0.33,-0.387 -15.95,-18.92 -34.709,-44.18 32.496,9.443 58.21,16.372 58.676,16.501 a -4.1681547,4.1681547 0 0 0 2.166,-8.05 z m 3977.54595,838.217 c -0.458,-0.133 -28.875,-7.792 -63.708,-17.971 28.041,-27.146 53.625,-54.221 55.583,-56.296 a -4.1753063,4.1753063 0 1 0 -6.083,-5.721 c -0.458,0.487 -24.25,25.68 -51.167,51.963 2.917,-34.038 5.458,-65.918 5.667,-68.513 a -4.192,4.192 0 0 0 -3.834,-4.488 -4.23,4.23 0 0 0 -4.5,3.825 -10504.25,10504.25 0 0 1 -5.833,70.742 c -17.334,-24.562 -35,-52.375 -44.5,-75.53 a -4.146,4.146 0 0 0 -5.417,-2.27 -4.146,4.146 0 0 0 -2.292,5.437 c 9.625,23.45 26.959,51.005 44.084,75.443 -21.084,-6.317 -43.084,-13.192 -61.834,-19.659 a -4.158,4.158 0 0 0 -5.292,2.583 -4.174,4.174 0 0 0 2.584,5.296 c 20.166,6.963 44.125,14.4 66.667,21.105 -20.667,19.579 -41.042,37.404 -52.459,43.292 a -4.182,4.182 0 0 0 -1.792,5.612 -4.192,4.192 0 0 0 5.625,1.792 c 11.876,-6.134 32.25,-23.788 52.918,-43.259 -2.334,26.296 -4.584,50.271 -5.876,58.834 a -4.183,4.183 0 0 0 4.125,4.78 c 2.042,0 3.834,-1.488 4.126,-3.56 1.25,-8.528 3.458,-31.391 5.708,-56.783 18.333,24.684 33.709,42.884 35,44.459 a -4.183,4.183 0 0 0 5.875,0.487 -4.125,4.125 0 0 0 0.5,-5.875 c -0.333,-0.387 -15.958,-18.92 -34.708,-44.18 32.5,9.442 58.208,16.376 58.667,16.505 a -4.1681547,4.1681547 0 1 0 2.166,-8.05 z M 2059.2259,574.781 c -0.43,0.275 -25.15,16.246 -56.026,35.272 -1.38,-38.997 -4.346,-76.13 -4.575,-78.972 a -4.168,4.168 0 1 0 -8.308,0.671 c 0.05,0.667 2.812,35.217 4.308,72.8 -23.33,-24.954 -45.3,-48.192 -47.092,-50.087 a -4.17,4.17 0 0 0 -5.892,-0.163 -4.188,4.188 0 0 0 -0.162,5.892 c 0.454,0.479 24.033,25.417 48.613,51.721 -29.85,-3.58 -62.33,-9.104 -85.897,-17.546 a -4.167,4.167 0 0 0 -2.808,7.842 c 23.867,8.554 55.921,14.154 85.555,17.796 -18.821,11.43 -38.672,23.167 -56.026,32.754 a -4.1675087,4.1675087 0 1 0 4.03,7.296 c 18.7,-10.33 40.258,-23.13 60.333,-35.371 0.696,28.459 0.275,55.534 -2.983,67.938 a -4.167,4.167 0 0 0 8.058,2.12 c 3.396,-12.92 3.938,-39.879 3.317,-68.258 17.975,19.334 34.259,37.08 39.763,43.759 a -4.167267,4.167267 0 1 0 6.429,-5.304 c -5.483,-6.65 -21,-23.592 -38.346,-42.267 30.62,2.908 54.409,3.708 56.471,3.775 a -4.169,4.169 0 0 0 0.258,-8.334 c -0.508,-0.017 -24.733,-0.833 -56.05,-3.82 a -3398.244,3398.244 0 0 0 51.555,-32.518 -4.166,4.166 0 1 0 -4.525,-6.996 z m 865.705,133.571 h -0 c -0.442,0 -18.05,-0.017 -37.609,-0.642 v -43.517 a -6.25,6.25 0 0 0 -12.5,0 v 43.034 c -13.746,-0.638 -26.879,-1.63 -34.22,-3.192 a -6.25,6.25 0 0 0 -2.6,12.225 c 8.137,1.733 22.274,2.808 36.82,3.48 v 26.558 a -6.25,6.25 0 1 0 12.5,0 v -26.075 c 19.026,0.608 35.93,0.629 37.572,0.629 h 0.045 a -6.2500003,6.2500003 0 0 0 -0,-12.5 z"
     fill="#e4c8b3"
     fill-rule="nonzero"
     id="path4" /><path
     d="m 2436.2039,1524.27 h -0 c -0.271,0.271 -11.1,11.088 -23.509,22.721 l -26.746,-26.746 a -5.432,5.432 0 1 0 -7.68,7.684 l 26.447,26.446 c -8.838,8.058 -17.521,15.516 -22.992,19.066 a -5.438,5.438 0 0 0 5.917,9.117 c 6.066,-3.937 15.416,-11.967 24.767,-20.492 l 16.32,16.321 a -5.433055,5.433055 0 0 0 7.684,-7.683 l -16.025,-16.025 a -1118.076,1118.076 0 0 0 23.48,-22.705 l 0.024,-0.029 a -5.433,5.433 0 0 0 -7.683,-7.675 z"
     fill="#d1aa75"
     fill-rule="nonzero"
     id="path6" /><path
     d="m 458.10495,699.724 c -0.262,0 -10.77,-0.009 -22.446,-0.38 v -25.97 a -3.73,3.73 0 1 0 -7.458,0 v 25.679 c -8.205,-0.38 -16.042,-0.971 -20.425,-1.904 a -3.73,3.73 0 1 0 -1.55,7.296 c 4.854,1.033 13.295,1.675 21.975,2.079 v 15.846 a -3.73,3.73 0 1 0 7.458,0 v -15.56 a -780.423,780.423 0 0 0 22.425,0.375 h 0.025 a -3.733,3.733 0 0 0 -0.004,-7.462 z"
     fill="#e4c8b3"
     fill-rule="nonzero"
     id="path8" /><path
     d="m 4094.2999,1013.097 c -0.25,0 -10.792,-0.01 -22.459,-0.379 v -25.971 a -3.73,3.73 0 1 0 -7.458,0 v 25.684 c -8.209,-0.384 -16.042,-0.975 -20.417,-1.909 a -3.725,3.725 0 0 0 -4.417,2.875 c -0.416,2.013 0.834,3.992 2.875,4.425 4.834,1.034 13.292,1.671 21.959,2.075 v 15.846 a -3.733,3.733 0 0 0 7.458,0 v -15.558 a -782.053,782.053 0 0 0 22.417,0.375 h 0.042 c 2.041,0 3.75,-1.671 3.75,-3.734 a -3.758,3.758 0 0 0 -3.75,-3.729 z m -2121.817,92.686 c -0.263,0 -10.771,-0.01 -22.442,-0.379 v -25.971 a -3.731,3.731 0 1 0 -7.462,0 v 25.68 c -8.205,-0.38 -16.042,-0.972 -20.421,-1.905 a -3.733,3.733 0 0 0 -1.555,7.296 c 4.859,1.033 13.296,1.68 21.976,2.08 v 15.845 a -3.731,3.731 0 1 0 7.462,0 v -15.558 a -780.225,780.225 0 0 0 22.421,0.375 h 0.025 a -3.733,3.733 0 0 0 -0,-7.463 z m 935.141,552.237 c -0.263,0 -10.775,-0.01 -22.446,-0.384 v -25.971 a -3.7315,3.7315 0 0 0 -7.463,0 v 25.683 c -8.2,-0.379 -16.038,-0.975 -20.421,-1.908 a -3.7313704,3.7313704 0 0 0 -1.55,7.3 c 4.854,1.033 13.292,1.675 21.971,2.075 v 15.85 a -3.733,3.733 0 0 0 7.463,0 v -15.558 c 11.354,0.362 21.446,0.37 22.42,0.37 h 0.03 a -3.733,3.733 0 0 0 -0,-7.458 z M 1393.2189,597.57 c -0.15,0.15 -6.212,6.203 -13.15,12.712 l -14.966,-14.967 a -3.042,3.042 0 0 0 -4.296,4.3 l 14.796,14.796 c -4.946,4.508 -9.805,8.683 -12.863,10.67 a -3.042,3.042 0 0 0 3.308,5.1 c 3.392,-2.203 8.625,-6.695 13.859,-11.466 l 9.13,9.134 a -3.042,3.042 0 1 0 4.3,-4.3 l -8.963,-8.967 a -622.642,622.642 0 0 0 13.129,-12.7 l 0.016,-0.017 a -3.042,3.042 0 1 0 -4.3,-4.296 z m 1940.491,187.4 c -0.15,0.15 -6.212,6.205 -13.15,12.713 l -14.967,-14.963 a -3.038,3.038 0 1 0 -4.295,4.296 l 14.791,14.8 c -4.941,4.509 -9.8,8.68 -12.862,10.667 a -3.042,3.042 0 0 0 3.308,5.1 c 3.396,-2.204 8.63,-6.696 13.863,-11.467 l 9.129,9.134 a -3.04,3.04 0 1 0 4.296,-4.3 l -8.963,-8.963 c 6.75,-6.333 12.567,-12.142 13.134,-12.704 a -3.042,3.042 0 1 0 -4.284,-4.313 z m -1562.08,732.505 a -645.755,645.755 0 0 1 -13.154,12.713 l -14.963,-14.963 a -3.042,3.042 0 0 0 -4.3,4.296 l 14.8,14.8 c -4.945,4.508 -9.804,8.68 -12.866,10.667 a -3.042,3.042 0 0 0 3.312,5.1 c 3.392,-2.204 8.621,-6.696 13.855,-11.467 l 9.133,9.133 a -3.038,3.038 0 1 0 4.296,-4.295 l -8.963,-8.967 a -634.963,634.963 0 0 0 13.15,-12.721 -3.04,3.04 0 1 0 -4.3,-4.296 z m 2720.505,401.191 c -0.125,0.15 -6.208,6.2 -13.125,12.713 l -14.958,-14.967 a -3.088,3.088 0 0 0 -4.334,0 -3.08,3.08 0 0 0 0,4.3 l 14.834,14.796 c -4.959,4.508 -9.834,8.683 -12.875,10.67 a -3.033566,3.033566 0 1 0 3.291,5.097 c 3.417,-2.2 8.625,-6.692 13.875,-11.463 l 9.126,9.133 c 1.208,1.188 3.125,1.188 4.291,0 a -3,3 0 0 0 0,-4.3 l -8.958,-8.966 a -560.88,560.88 0 0 0 13.125,-12.705 l 0.042,-0.012 a -3.08,3.08 0 0 0 0,-4.3 -3.083,3.083 0 0 0 -4.334,0 z M 3318.8179,313.553 c -0.459,0 -18.084,-0.013 -37.626,-0.638 v -43.52 a -6.25,6.25 0 1 0 -12.5,0 v 43.033 c -13.75,-0.633 -26.875,-1.63 -34.208,-3.192 -3.375,-0.72 -6.709,1.438 -7.417,4.813 -0.708,3.375 1.417,6.696 4.792,7.412 8.166,1.734 22.292,2.809 36.833,3.48 v 26.558 c 0,3.454 2.792,6.25 6.25,6.25 3.458,0 6.25,-2.796 6.25,-6.25 v -26.071 c 19.042,0.608 35.917,0.625 37.584,0.625 h 0.042 a -6.25,6.25 0 1 0 0,-12.5 z"
     fill="#d1aa75"
     fill-rule="nonzero"
     id="path10" /><path
     d="m 3173.7523,1978.2063 1.8625,234.381 266.348,3.4042 9.6168,-237.7852 z"
     fill="#537891"
     fill-rule="nonzero"
     id="path12"
     style="stroke-width:4.1667" /><g
     fill="#f7ebda"
     fill-rule="nonzero"
     id="g24"
     transform="matrix(-1,0,0,1,4708.8479,0)"><path
       d="m 888.87,431.16 h -0.027 c -1.495,0.023 -2.761,0.659 -3.872,1.948 -2.138,2.481 -3.188,6.812 -3.411,10.408 4.352,-5.571 7.573,-10.856 7.437,-12.351 a 1.455,1.455 0 0 0 -0.127,-0.005 z m -8.602,17.542 a 1.386,1.386 0 0 1 -1.375,-1.203 c -0.544,-4.043 0.343,-11.988 3.975,-16.203 1.637,-1.899 3.633,-2.877 5.935,-2.911 1.687,-10e-4 2.418,0.906 2.681,1.464 1.721,3.626 -6.529,14.046 -10.154,18.359 -0.268,0.317 -0.66,0.494 -1.062,0.494 z"
       transform="matrix(-4.1667,0,0,4.1667,5000.04,106.358)"
       id="path16" /><path
       d="m 872.67,429.66 a 0.588,0.588 0 0 0 -0.401,0.141 c -1.058,0.916 -1.354,4.929 0.3,7.779 2.395,4.123 4.653,6.267 6.164,7.352 -0.407,-4.659 -1.663,-12.221 -4.638,-14.575 -0.438,-0.345 -0.989,-0.697 -1.425,-0.697 z m 7.603,19.047 c -0.11,0 -0.219,-0.013 -0.328,-0.039 -0.494,-0.12 -4.964,-1.41 -9.775,-9.694 -2.19,-3.771 -2.053,-9.248 0.281,-11.272 0.684,-0.591 2.574,-1.728 5.366,0.479 5.239,4.143 5.796,17.578 5.842,19.095 a 1.384,1.384 0 0 1 -1.386,1.431 z"
       transform="matrix(-4.1667,0,0,4.1667,5000.04,106.358)"
       id="path18" /><path
       d="m 875.14,453.01 a 1.388,1.388 0 0 1 -0.156,-2.767 c 3.761,-0.43 3.898,-3.313 3.903,-3.436 a 1.386,1.386 0 0 1 2.581,-0.66 c 1.648,2.789 5.395,3.682 5.433,3.69 a 1.385,1.385 0 0 1 1.056,1.653 1.385,1.385 0 0 1 -1.653,1.058 c -0.158,-0.035 -3.12,-0.712 -5.49,-2.874 -0.886,1.521 -2.568,2.989 -5.514,3.327 a 1.444,1.444 0 0 1 -0.16,0.009 z"
       transform="matrix(-4.1667,0,0,4.1667,5000.04,106.358)"
       id="path20" /><path
       d="m 879.51,507.29 h -0.017 a 1.39,1.39 0 0 1 -1.372,-1.404 l 0.677,-58.172 a 1.388,1.388 0 0 1 1.388,-1.371 h 0.016 a 1.388,1.388 0 0 1 1.372,1.403 l -0.677,58.172 a 1.388,1.388 0 0 1 -1.387,1.372 z"
       transform="matrix(-4.1667,0,0,4.1667,5000.04,106.358)"
       id="path22" /></g><path
     d="m 3478.5048,770.36331 1.8583,234.37689 266.348,3.4042 9.6167,-237.78109 z"
     fill="#29475d"
     fill-rule="nonzero"
     id="path26"
     style="stroke-width:4.1667" /><g
     fill="#f45c58"
     fill-rule="nonzero"
     id="g38"
     transform="matrix(-1,0,0,1,4708.8479,0)"><path
       d="m 962.01,140.89 -0.032,0.001 c -1.593,0.023 -2.997,0.724 -4.17,2.086 -2.447,2.839 -3.508,8.021 -3.554,11.886 4.74,-5.927 8.903,-12.444 8.229,-13.865 -0.031,-0.064 -0.223,-0.108 -0.473,-0.108 z m -8.602,17.542 a 0.983,0.983 0 0 1 -0.974,-0.854 c -0.535,-3.971 0.332,-11.766 3.882,-15.887 1.558,-1.806 3.454,-2.738 5.634,-2.77 h 0.06 c 1.448,0 2.032,0.77 2.252,1.233 0.558,1.176 0.552,3.448 -4.494,10.629 -2.675,3.807 -5.577,7.264 -5.606,7.299 a 0.988,0.988 0 0 1 -0.754,0.35 z"
       transform="matrix(-4.1667,0,0,4.1667,5000.04,106.358)"
       id="path30" /><path
       d="m 945.8,139.38 a 0.97,0.97 0 0 0 -0.658,0.242 c -1.308,1.132 -1.44,5.437 0.215,8.287 2.818,4.851 5.465,7.018 6.981,7.944 -0.333,-4.598 -1.589,-13.101 -4.857,-15.685 -0.663,-0.525 -1.225,-0.788 -1.681,-0.788 z m 7.608,19.05 a 0.96,0.96 0 0 1 -0.231,-0.028 c -0.191,-0.046 -4.714,-1.225 -9.522,-9.505 -2.066,-3.557 -1.967,-8.889 0.198,-10.764 0.606,-0.526 2.294,-1.53 4.85,0.49 5.184,4.101 5.672,18.194 5.69,18.793 a 0.983,0.983 0 0 1 -0.985,1.014 z"
       transform="matrix(-4.1667,0,0,4.1667,5000.04,106.358)"
       id="path32" /><path
       d="m 948.27,162.73 a 0.983,0.983 0 0 1 -0.111,-1.962 c 3.984,-0.456 4.244,-3.487 4.26,-3.831 a 0.988,0.988 0 0 1 0.747,-0.913 0.98,0.98 0 0 1 1.084,0.452 c 1.753,2.964 5.656,3.871 5.695,3.88 a 0.985,0.985 0 0 1 -0.425,1.922 c -0.161,-0.035 -3.351,-0.764 -5.683,-3.141 -0.75,1.579 -2.366,3.233 -5.453,3.587 a 0.87,0.87 0 0 1 -0.114,0.006 z"
       transform="matrix(-4.1667,0,0,4.1667,5000.04,106.358)"
       id="path34" /><path
       d="m 952.65,217.01 h -0.01 a 0.986,0.986 0 0 1 -0.974,-0.996 l 0.677,-58.171 a 0.985,0.985 0 0 1 0.984,-0.973 h 0.012 a 0.986,0.986 0 0 1 0.974,0.996 l -0.678,58.171 a 0.985,0.985 0 0 1 -0.985,0.973 z"
       transform="matrix(-4.1667,0,0,4.1667,5000.04,106.358)"
       id="path36" /></g><g
     fill="none"
     stroke="#e4c8b3"
     stroke-width="0.48"
     id="g44"
     transform="matrix(-1,0,0,1,4708.8479,0)"><path
       d="m 950.78,160.36 c -12.774,-5.193 -28.386,-14.441 -41.016,-30.794"
       transform="matrix(-4.1667,0,0,4.1667,5000.04,106.358)"
       id="path40" /><path
       d="m 915.2,130.55 -0.144,5.295 h -5.791 m 10.725,-3.015 -1.473,6.859 -7.33,0.285 m 12.373,-3.794 -2.104,6.018 -6.261,1.536 m 11.635,-5.124 -2.86,5.661 -5.681,2.371 m 11.891,-6.422 -2.664,6.955 -8.142,2.666 m 14.076,-6.561 -1.438,7.106 -8.484,2.008 m 13.612,-5.644 -0.866,6.361 -7.911,2.987 m 12.797,-8.178 0.219,8.072 -8.759,2.565"
       transform="matrix(-4.1667,0,0,4.1667,5000.04,106.358)"
       id="path42" /></g><path
     d="m 3706.4233,1197.3667 2.6958,339.8611 386.2239,4.9334 13.9168,-344.7945 z"
     fill="#f9eddc"
     fill-rule="nonzero"
     id="path46"
     style="stroke-width:4.1667" /><path
     d="m 3860.4662,1514.6193 c 2.1416,0.7625 3.6,2.6125 2.4958,5.2625 -0.5208,1.2542 -2.2208,3.1084 -4.3667,2.3459 -2.1417,-0.7625 -4.1584,-2.9667 -3.3958,-5.1084 a 4.1166996,4.1166996 0 0 1 5.2667,-2.5 z m 101.7091,-88.0007 c 2.125,0.7625 3.5834,2.6166 2.4584,5.2625 -0.5,1.2542 -2.2084,3.1084 -4.3334,2.3459 -2.1667,-0.7625 -4.1667,-2.9667 -3.4167,-5.1084 a 4.1541999,4.1541999 0 0 1 5.2917,-2.5 z m -31.2502,-135.5428 c 2.125,0.7667 3.5833,2.6209 2.5,5.2667 -0.5417,1.2542 -2.2084,3.1084 -4.3751,2.3459 -2.125,-0.7625 -4.1667,-2.9667 -3.375,-5.1084 a 4.0916994,4.0916994 0 0 1 5.2501,-2.5042 z m 22.9168,38.1253 c 2.1667,0.7625 3.625,2.6167 2.5,5.2626 -0.5,1.2583 -2.2083,3.1083 -4.375,2.3458 -2.125,-0.7625 -4.125,-2.9667 -3.375,-5.1084 0.75,-2.1416 3.125,-3.2625 5.25,-2.5 z m 74.5839,52.5421 c 2.1667,0.7625 3.6251,2.6167 2.5001,5.2625 -0.5,1.2584 -2.2084,3.1126 -4.3751,2.3501 -2.125,-0.7667 -4.125,-2.9667 -3.375,-5.1126 a 4.1083662,4.1083662 0 0 1 5.25,-2.5 z m -4.1667,-70.2089 c 2.1251,0.7625 3.5834,2.6167 2.5001,5.2626 -0.5417,1.2541 -2.2501,3.1125 -4.3751,2.3458 -2.1667,-0.7625 -4.1667,-2.9667 -3.4167,-5.1084 a 4.1541999,4.1541999 0 0 1 5.2917,-2.5 z m 29.5836,33.9169 c 2.1667,0.7626 3.5834,2.6167 2.5,5.2626 -0.5,1.2542 -2.2083,3.1083 -4.375,2.3458 -2.125,-0.7625 -4.1667,-2.9667 -3.375,-5.1083 a 4.1083662,4.1083662 0 0 1 5.25,-2.5001 z m -33.7503,102.2092 c 2.1251,0.7625 3.5834,2.6167 2.5001,5.2625 -0.5417,1.2584 -2.2084,3.1084 -4.3751,2.3459 -2.125,-0.7625 -4.1667,-2.9667 -3.375,-5.1084 a 4.1083662,4.1083662 0 0 1 5.25,-2.5 z m -294.0856,74.9589 c 2.1416,0.7625 3.5958,2.6167 2.5,5.2626 -0.525,1.2583 -2.2292,3.1125 -4.3709,2.3458 -2.1417,-0.7625 -4.1542,-2.9625 -3.3959,-5.1084 a 4.125033,4.125033 0 0 1 5.2668,-2.5 z m 59.3754,-140.8761 c 2.1459,0.7625 3.6001,2.6167 2.5042,5.2625 -0.525,1.2584 -2.2292,3.1126 -4.3709,2.3501 -2.1416,-0.7667 -4.1542,-2.9667 -3.3958,-5.1126 a 4.125033,4.125033 0 0 1 5.2625,-2.5 z m -49.292,-28.6252 c 2.1458,0.7625 3.6,2.6208 2.5,5.2625 -0.5209,1.2584 -2.225,3.1125 -4.3667,2.35 -2.1459,-0.7625 -4.1584,-2.9667 -3.3959,-5.1125 a 4.1208663,4.1208663 0 0 1 5.2626,-2.5 z m 149.4178,86.5007 c 2.1667,0.7666 3.5834,2.6167 2.5,5.2625 -0.5,1.2584 -2.2083,3.1125 -4.375,2.35 -2.125,-0.7625 -4.1667,-2.9667 -3.375,-5.1125 a 4.1083662,4.1083662 0 0 1 5.25,-2.5 z m -45.4587,-31.2503 c 2.1459,0.7625 3.6001,2.6167 2.5042,5.2626 -0.525,1.2541 -2.225,3.1083 -4.3709,2.3458 -2.1416,-0.7625 -4.1542,-2.9667 -3.3958,-5.1084 a 4.1166996,4.1166996 0 0 1 5.2625,-2.5 z m -114.0425,-4.0417 c 2.1416,0.7625 3.5958,2.6209 2.5,5.2626 -0.525,1.2583 -2.2292,3.1125 -4.3709,2.35 -2.1417,-0.7625 -4.1542,-2.9667 -3.3959,-5.1126 a 4.125033,4.125033 0 0 1 5.2668,-2.5 z m 23.6668,75.8756 c 2.1459,0.7625 3.6,2.6167 2.5,5.2626 -0.5208,1.2541 -2.225,3.1083 -4.3667,2.3458 -2.1458,-0.7625 -4.1583,-2.9667 -3.3958,-5.1125 a 4.1166996,4.1166996 0 0 1 5.2625,-2.4959 z m 19.8752,-150.7928 c 2.1458,0.7625 3.6042,2.6166 2.5042,5.2583 -0.5251,1.2584 -2.2251,3.1126 -4.3709,2.35 -2.1417,-0.7625 -4.1584,-2.9666 -3.3917,-5.1125 a 4.1125329,4.1125329 0 0 1 5.2584,-2.4958 z m 196.7932,201.6266 c 2.1667,0.7625 3.625,2.6125 2.5,5.2583 -0.5,1.2584 -2.2083,3.1126 -4.375,2.3501 -2.125,-0.7625 -4.125,-2.9667 -3.375,-5.1126 a 4.1041995,4.1041995 0 0 1 5.25,-2.4958 z m 95.8341,-16.4168 c 2.1667,0.7625 3.625,2.6125 2.5,5.2625 -0.5,1.2542 -2.2083,3.1084 -4.3333,2.3459 -2.1667,-0.7625 -4.1667,-2.9667 -3.4167,-5.1084 a 4.1041995,4.1041995 0 0 1 5.25,-2.5 z m -54.5838,-26.4169 c 2.1251,0.7625 3.5834,2.6167 2.5001,5.2584 -0.5417,1.2583 -2.2501,3.1125 -4.3751,2.35 -2.1667,-0.7625 -4.1667,-2.9667 -3.4167,-5.1126 a 4.1500332,4.1500332 0 0 1 5.2917,-2.4958 z m -76.6672,-14.3751 c 2.125,0.7625 3.5833,2.6167 2.5,5.2625 -0.5417,1.2542 -2.2084,3.1084 -4.3751,2.3459 -2.125,-0.7625 -4.1667,-2.9667 -3.375,-5.1084 a 4.0916994,4.0916994 0 0 1 5.2501,-2.5 z m -145.5429,-22.1669 c 2.1459,0.7625 3.6001,2.6167 2.5042,5.2584 -0.525,1.2583 -2.2292,3.1125 -4.3709,2.35 -2.1416,-0.7625 -4.1542,-2.9667 -3.3958,-5.1125 a 4.1166996,4.1166996 0 0 1 5.2625,-2.4959 z m 304.7108,-91.4174 c 2.125,0.7625 3.5834,2.6167 2.5,5.2626 -0.5417,1.2541 -2.25,3.1125 -4.375,2.3458 -2.1667,-0.7625 -4.1667,-2.9625 -3.4167,-5.1083 a 4.1541999,4.1541999 0 0 1 5.2917,-2.5001 z m -200.8349,25.5419 c 2.125,0.7625 3.5833,2.6167 2.5,5.2625 -0.5417,1.2542 -2.2084,3.1084 -4.3751,2.3459 -2.125,-0.7625 -4.1667,-2.9667 -3.375,-5.1084 a 4.0916994,4.0916994 0 0 1 5.2501,-2.5 z m -24.6252,-56.3754 c 2.1416,0.7625 3.6,2.6166 2.5,5.2583 -0.525,1.2584 -2.225,3.1126 -4.3709,2.35 -2.1417,-0.7625 -4.1584,-2.9666 -3.3917,-5.1125 a 4.1166996,4.1166996 0 0 1 5.2626,-2.4958 z m 120.0426,48.3337 c 2.1667,0.7625 3.625,2.6167 2.5,5.2625 -0.5,1.2542 -2.2083,3.1125 -4.3334,2.35 -2.1666,-0.7666 -4.1667,-2.9708 -3.4167,-5.1125 a 4.125033,4.125033 0 0 1 5.2501,-2.5 z m -90.4174,-62.2089 c 2.1667,0.7625 3.625,2.6167 2.5,5.2626 -0.5,1.2583 -2.2083,3.1125 -4.375,2.35 -2.125,-0.7625 -4.1251,-2.9709 -3.375,-5.1125 0.75,-2.1417 3.125,-3.2626 5.25,-2.5001 z m 32.5003,96.8341 c 2.1666,0.7626 3.625,2.6167 2.5,5.2626 -0.5,1.2542 -2.2084,3.1125 -4.3751,2.35 -2.125,-0.7667 -4.125,-2.9667 -3.375,-5.1125 0.75,-2.1459 3.125,-3.2626 5.2501,-2.5001 z m -104.1675,-67.2922 c 2.1416,0.7667 3.6,2.6209 2.5,5.2668 -0.525,1.2541 -2.225,3.1083 -4.3667,2.3458 -2.1459,-0.7625 -4.1626,-2.9667 -3.3959,-5.1084 a 4.1208663,4.1208663 0 0 1 5.2626,-2.5042 z m -4.1251,-49.9587 c 2.1417,0.7625 3.6001,2.6167 2.4959,5.2626 -0.5209,1.2541 -2.2209,3.1125 -4.3667,2.35 -2.1417,-0.7667 -4.1584,-2.9667 -3.3959,-5.1126 a 4.125033,4.125033 0 0 1 5.2667,-2.5 z m -96.5841,-4.0417 c 2.1459,0.7667 3.6,2.6209 2.5042,5.2667 -0.525,1.2542 -2.2292,3.1084 -4.3709,2.3459 -2.1458,-0.7625 -4.1583,-2.9667 -3.3958,-5.1084 a 4.1208663,4.1208663 0 0 1 5.2625,-2.5042 z m 354.8779,135.5428 c 2.125,0.7625 3.5833,2.6166 2.5,5.2625 -0.5417,1.2542 -2.25,3.1084 -4.3751,2.3459 -2.1666,-0.7625 -4.1667,-2.9667 -3.4167,-5.1084 a 4.1541999,4.1541999 0 0 1 5.2918,-2.5 z m -6.6668,-131.5011 c 2.1667,0.7625 3.6251,2.6167 2.5001,5.2626 -0.5,1.2541 -2.2084,3.1125 -4.3334,2.35 -2.1667,-0.7667 -4.1667,-2.9667 -3.4167,-5.1126 0.75,-2.1458 3.125,-3.2625 5.25,-2.5 z m -234.1685,174.7097 c 2.1458,0.7625 3.6,2.6126 2.5,5.2626 -0.5208,1.2542 -2.225,3.1083 -4.3667,2.3458 -2.1458,-0.7625 -4.1584,-2.9667 -3.3958,-5.1083 a 4.1125329,4.1125329 0 0 1 5.2625,-2.5001 z m -38.917,33.5836 c 2.1459,0.7667 3.6,2.6167 2.5042,5.2626 -0.525,1.2583 -2.225,3.1125 -4.3709,2.35 -2.1458,-0.7625 -4.1583,-2.9667 -3.3917,-5.1125 a 4.1166996,4.1166996 0 0 1 5.2584,-2.5001 z"
     fill="#e4c8b3"
     fill-rule="nonzero"
     id="path48"
     style="stroke-width:4.1667" /><path
     fill="#eee2ce"
     fill-rule="nonzero"
     d="m 3700.6732,1188.2833 h 414.6825 v 98.2175 h -414.6825 z"
     id="path50"
     style="stroke-width:4.1667" /><g
     fill="#e4c8b3"
     fill-rule="nonzero"
     id="g60"
     transform="matrix(-1,0,0,1,4708.8479,0)"><path
       d="m 997.6,234.61 -0.058,10e-4 c -2.442,0.035 -4.588,1.105 -6.377,3.18 -3.887,4.51 -5.41,12.995 -5.248,18.767 7.382,-9.064 13.899,-19.146 12.764,-21.538 -0.049,-0.102 -0.195,-0.41 -1.081,-0.41 z m -12.477,25.437 a 0.984,0.984 0 0 1 -0.975,-0.853 c -0.764,-5.678 0.464,-16.816 5.526,-22.688 2.172,-2.52 4.809,-3.82 7.84,-3.864 1.817,-0.026 2.61,0.819 2.95,1.534 2.36,4.978 -11.738,22.132 -14.588,25.52 a 0.985,0.985 0 0 1 -0.753,0.351 z"
       transform="matrix(-4.1667,0,0,4.1667,5000.04,106.358)"
       id="path52" /><path
       d="m 974.08,232.42 c -0.467,0 -0.879,0.154 -1.236,0.463 -2.058,1.782 -2.32,8.199 0.22,12.574 4.598,7.916 8.909,10.981 10.992,12.084 -0.313,-4.825 -1.706,-19.49 -7.255,-23.879 -1.046,-0.828 -1.956,-1.242 -2.721,-1.242 z m 11.042,27.628 a 0.962,0.962 0 0 1 -0.232,-0.028 c -0.269,-0.065 -6.65,-1.731 -13.529,-13.574 -2.902,-4.997 -2.806,-12.453 0.194,-15.051 0.99,-0.859 3.148,-1.904 6.468,0.722 7.357,5.82 8.056,26.057 8.083,26.916 a 0.986,0.986 0 0 1 -0.984,1.015 z"
       transform="matrix(-4.1667,0,0,4.1667,5000.04,106.358)"
       id="path54" /><path
       d="m 977.68,266.29 a 0.985,0.985 0 0 1 -0.111,-1.962 c 6.274,-0.72 6.56,-5.762 6.569,-5.976 a 0.987,0.987 0 0 1 1.831,-0.464 c 2.643,4.472 8.485,5.821 8.545,5.834 a 0.986,0.986 0 0 1 -0.426,1.923 c -0.238,-0.053 -5.197,-1.185 -8.504,-4.953 -0.794,2.113 -2.79,5.019 -7.791,5.592 a 1.07,1.07 0 0 1 -0.113,0.006 z"
       transform="matrix(-4.1667,0,0,4.1667,5000.04,106.358)"
       id="path56" /><path
       d="m 984.02,344.99 h -0.012 a 0.986,0.986 0 0 1 -0.973,-0.996 l 0.983,-84.351 c 0.005,-0.544 0.44,-0.962 0.996,-0.973 a 0.984,0.984 0 0 1 0.972,0.995 l -0.982,84.352 a 0.984,0.984 0 0 1 -0.984,0.973 z"
       transform="matrix(-4.1667,0,0,4.1667,5000.04,106.358)"
       id="path58" /></g><path
     d="m 3060.9181,1614.8284 2.7042,339.8611 386.2114,4.9292 13.946,-344.7903 z"
     fill="#eee2ce"
     fill-rule="nonzero"
     id="path62"
     style="stroke-width:4.1667" /><path
     d="m 3214.961,1932.0393 c 2.1417,0.7625 3.6,2.6167 2.5,5.2625 -0.525,1.2584 -2.225,3.1084 -4.3667,2.3459 -2.1458,-0.7625 -4.1625,-2.9667 -3.3958,-5.1084 a 4.1166996,4.1166996 0 0 1 5.2625,-2.5 z m 101.7925,-87.9591 c 2.1458,0.7625 3.6042,2.6167 2.5042,5.2667 -0.525,1.2501 -2.2251,3.1084 -4.3709,2.3417 -2.1417,-0.7625 -4.1584,-2.9667 -3.3917,-5.1083 a 4.1166996,4.1166996 0 0 1 5.2584,-2.5001 z m -31.3336,-135.5427 c 2.1417,0.7625 3.6,2.6167 2.4958,5.2625 -0.5208,1.2584 -2.2208,3.1084 -4.3625,2.3459 -2.1458,-0.7625 -4.1625,-2.9667 -3.3958,-5.1084 a 4.1208663,4.1208663 0 0 1 5.2625,-2.5 z m 23.0418,38.0836 c 2.1459,0.7625 3.6001,2.6167 2.5042,5.2584 -0.525,1.2583 -2.225,3.1125 -4.3708,2.35 -2.1417,-0.7625 -4.1542,-2.9667 -3.3917,-5.1125 a 4.1166996,4.1166996 0 0 1 5.2583,-2.4959 z m 74.2923,52.5421 c 2.1459,0.7667 3.6042,2.6209 2.5,5.2667 -0.5208,1.2542 -2.2208,3.1084 -4.3667,2.35 -2.1458,-0.7666 -4.1583,-2.9708 -3.3958,-5.1125 a 4.125033,4.125033 0 0 1 5.2625,-2.5042 z m -4.1667,-70.2089 c 2.1459,0.7667 3.6,2.6167 2.5042,5.2667 -0.525,1.2542 -2.225,3.1084 -4.3709,2.3459 -2.1417,-0.7667 -4.1542,-2.9667 -3.3917,-5.1126 a 4.1208663,4.1208663 0 0 1 5.2584,-2.5 z m 29.9586,33.9586 c 2.1375,0.7625 3.5958,2.6167 2.4958,5.2626 -0.525,1.2583 -2.225,3.1125 -4.3625,2.35 -2.1459,-0.7667 -4.1625,-2.9667 -3.4,-5.1126 a 4.125033,4.125033 0 0 1 5.2667,-2.5 z m -34.1253,102.1675 c 2.1459,0.7583 3.6,2.6167 2.5,5.2584 -0.5208,1.2583 -2.2208,3.1125 -4.3667,2.35 -2.1458,-0.7667 -4.1583,-2.9667 -3.3958,-5.1125 a 4.1166996,4.1166996 0 0 1 5.2625,-2.4959 z m -293.919,75.0006 c 2.1458,0.7625 3.6042,2.6167 2.5,5.2625 -0.5208,1.2542 -2.2208,3.1084 -4.3667,2.3459 -2.1458,-0.7667 -4.1584,-2.9667 -3.3917,-5.1084 a 4.1083662,4.1083662 0 0 1 5.2584,-2.5 z m 59.3755,-140.9178 c 2.1458,0.7667 3.6042,2.6209 2.5,5.2667 -0.5209,1.2542 -2.2209,3.1084 -4.3667,2.35 -2.1459,-0.7666 -4.1584,-2.9708 -3.3917,-5.1125 a 4.1166996,4.1166996 0 0 1 5.2584,-2.5042 z m -49.2921,-28.6252 c 2.1417,0.7625 3.5959,2.6167 2.5,5.2625 -0.5208,1.2542 -2.225,3.1084 -4.3667,2.3459 -2.1458,-0.7625 -4.1583,-2.9667 -3.4,-5.1084 a 4.125033,4.125033 0 0 1 5.2667,-2.5 z m 149.2095,86.5007 c 2.1375,0.7625 3.5959,2.6167 2.4959,5.2625 -0.5209,1.2542 -2.225,3.1084 -4.3626,2.3459 -2.1458,-0.7625 -4.1625,-2.9667 -3.4,-5.1084 a 4.1208663,4.1208663 0 0 1 5.2667,-2.5 z m -45.2503,-31.2503 c 2.1458,0.7625 3.6042,2.6167 2.5,5.2626 -0.5209,1.2583 -2.2209,3.1125 -4.3667,2.3458 -2.1459,-0.7583 -4.1584,-2.9667 -3.3917,-5.1084 a 4.1125329,4.1125329 0 0 1 5.2584,-2.5 z m -114.0426,-4 c 2.1458,0.7667 3.6042,2.6208 2.5,5.2667 -0.5208,1.2583 -2.2208,3.1084 -4.3667,2.3459 -2.1458,-0.7626 -4.1584,-2.9626 -3.3917,-5.1084 a 4.1166996,4.1166996 0 0 1 5.2584,-2.5042 z m 23.6252,75.8339 c 2.1417,0.7625 3.5958,2.6167 2.5,5.2626 -0.5208,1.2583 -2.225,3.1083 -4.3667,2.35 -2.1459,-0.7667 -4.1584,-2.9667 -3.4,-5.1126 a 4.125033,4.125033 0 0 1 5.2667,-2.5 z m 19.8751,-150.7928 c 2.1417,0.7625 3.6001,2.6166 2.4959,5.2625 -0.5208,1.2542 -2.2209,3.1125 -4.3667,2.35 -2.1417,-0.7667 -4.1584,-2.9708 -3.3959,-5.1125 a 4.125033,4.125033 0 0 1 5.2667,-2.5 z m 196.9183,201.6266 c 2.1417,0.7625 3.6,2.6167 2.5,5.2625 -0.525,1.2542 -2.225,3.1084 -4.3667,2.3459 -2.1417,-0.7625 -4.1584,-2.9667 -3.3959,-5.1084 0.7625,-2.1417 3.1209,-3.2625 5.2626,-2.5 z m 95.9174,-16.4168 c 2.1459,0.7625 3.6,2.6167 2.5042,5.2625 -0.525,1.2584 -2.2292,3.1084 -4.3709,2.3459 -2.1458,-0.7625 -4.1583,-2.9667 -3.3958,-5.1084 a 4.1166996,4.1166996 0 0 1 5.2625,-2.5 z m -54.7088,-26.3752 c 2.1459,0.7625 3.6001,2.6166 2.5042,5.2625 -0.525,1.2583 -2.2292,3.1084 -4.3708,2.3459 -2.1459,-0.7626 -4.1584,-2.9667 -3.3959,-5.1084 a 4.1166996,4.1166996 0 0 1 5.2625,-2.5 z m -76.7089,-14.4168 c 2.1417,0.7667 3.6,2.6167 2.4958,5.2667 -0.5208,1.25 -2.2208,3.1083 -4.3625,2.3458 -2.1458,-0.7625 -4.1625,-2.9708 -3.3958,-5.1083 a 4.1208663,4.1208663 0 0 1 5.2625,-2.5042 z m -145.5428,-22.1252 c 2.1458,0.7625 3.6042,2.6167 2.5,5.2584 -0.5209,1.2583 -2.2209,3.1125 -4.3667,2.35 -2.1459,-0.7625 -4.1584,-2.9667 -3.3917,-5.1125 a 4.1166996,4.1166996 0 0 1 5.2584,-2.4959 z m 304.8357,-91.4591 c 2.1459,0.7625 3.6042,2.6167 2.5001,5.2626 -0.5209,1.2583 -2.2209,3.1125 -4.3667,2.35 -2.1459,-0.7625 -4.1584,-2.9667 -3.3917,-5.1125 a 4.1125329,4.1125329 0 0 1 5.2583,-2.5001 z m -201.0849,25.5419 c 2.1375,0.7625 3.5959,2.6167 2.4958,5.2626 -0.5208,1.2583 -2.225,3.1125 -4.3667,2.3458 -2.1416,-0.7583 -4.1583,-2.9625 -3.3958,-5.1084 a 4.125033,4.125033 0 0 1 5.2667,-2.5 z m -24.5002,-56.3754 c 2.1417,0.7625 3.6,2.6166 2.4958,5.2625 -0.5208,1.2542 -2.225,3.1125 -4.3625,2.35 -2.1458,-0.7667 -4.1584,-2.9708 -3.4,-5.1125 a 4.125033,4.125033 0 0 1 5.2667,-2.5 z m 120.2093,48.3337 c 2.1458,0.7583 3.6042,2.6125 2.5,5.2584 -0.5208,1.2583 -2.2208,3.1125 -4.3667,2.35 -2.1458,-0.7625 -4.1584,-2.9667 -3.3917,-5.1126 a 4.1083662,4.1083662 0 0 1 5.2584,-2.4958 z m -90.4591,-62.2089 c 2.1459,0.7626 3.6042,2.6167 2.5001,5.2626 -0.5209,1.2542 -2.2209,3.1083 -4.3667,2.3458 -2.1417,-0.7625 -4.1584,-2.9667 -3.3917,-5.1125 a 4.1125329,4.1125329 0 0 1 5.2583,-2.4959 z m 32.417,96.8342 c 2.1375,0.7666 3.5958,2.6208 2.4958,5.2667 -0.5208,1.25 -2.225,3.1083 -4.3667,2.3458 -2.1417,-0.7625 -4.1584,-2.9667 -3.3958,-5.1084 a 4.125033,4.125033 0 0 1 5.2667,-2.5041 z m -104.2092,-67.2506 c 2.1417,0.7625 3.6,2.6167 2.5,5.2626 -0.5208,1.2541 -2.2292,3.1083 -4.3667,2.3458 -2.1458,-0.7625 -4.1584,-2.9667 -3.4,-5.1084 a 4.125033,4.125033 0 0 1 5.2667,-2.5 z m -4.1667,-50.0004 c 2.1458,0.7667 3.6,2.6167 2.5,5.2667 -0.525,1.2542 -2.225,3.1084 -4.3667,2.3459 -2.1458,-0.7625 -4.1584,-2.9667 -3.3958,-5.1084 a 4.1208663,4.1208663 0 0 1 5.2625,-2.5042 z m -96.5841,-4 c 2.1417,0.7625 3.5958,2.6167 2.5,5.2625 -0.5208,1.2584 -2.225,3.1084 -4.3667,2.3459 -2.1458,-0.7625 -4.1584,-2.9667 -3.4,-5.1084 a 4.125033,4.125033 0 0 1 5.2667,-2.5 z m 355.0445,135.5427 c 2.1458,0.7625 3.6,2.6167 2.5,5.2667 -0.5208,1.2501 -2.2208,3.1084 -4.3667,2.3417 -2.1458,-0.7625 -4.1584,-2.9667 -3.3958,-5.1083 0.7625,-2.1417 3.1166,-3.2626 5.2625,-2.5001 z m -6.9167,-131.5427 c 2.1458,0.7667 3.6,2.6167 2.5,5.2667 -0.5208,1.2542 -2.225,3.1084 -4.3667,2.3459 -2.1459,-0.7625 -4.1584,-2.9667 -3.3959,-5.1084 a 4.1208663,4.1208663 0 0 1 5.2626,-2.5042 z m -234.0852,174.7097 c 2.1416,0.7626 3.6,2.6167 2.5,5.2626 -0.5209,1.2583 -2.225,3.1125 -4.3667,2.3458 -2.1459,-0.7583 -4.1584,-2.9666 -3.3959,-5.1083 a 4.1166996,4.1166996 0 0 1 5.2626,-2.5001 z m -38.917,33.6253 c 2.1417,0.7625 3.6042,2.6167 2.5,5.2584 -0.5208,1.2583 -2.225,3.1125 -4.3667,2.35 -2.1417,-0.7625 -4.1584,-2.9667 -3.3959,-5.1125 a 4.125033,4.125033 0 0 1 5.2626,-2.4959 z"
     fill="#3c5a70"
     fill-rule="nonzero"
     id="path64"
     style="stroke-width:4.1667" /><path
     fill="#e4c8b3"
     fill-rule="nonzero"
     d="m 3055.1264,1605.7033 h 414.6825 v 98.2175 h -414.6825 z"
     id="path66"
     style="stroke-width:4.1667" /><g
     fill="#29475d"
     fill-rule="nonzero"
     id="g76"
     transform="matrix(-1,0,0,1,4708.8479,0)"><path
       d="m 842.67,334.8 -0.058,10e-4 c -2.442,0.035 -4.588,1.105 -6.376,3.18 -3.885,4.509 -5.41,12.994 -5.249,18.768 7.382,-9.065 13.899,-19.147 12.764,-21.538 -0.048,-0.103 -0.194,-0.411 -1.081,-0.411 z m -12.477,25.437 a 0.984,0.984 0 0 1 -0.975,-0.853 c -0.764,-5.679 0.467,-16.817 5.527,-22.689 2.172,-2.519 4.81,-3.819 7.839,-3.863 1.824,0.001 2.607,0.82 2.946,1.534 2.362,4.978 -11.733,22.132 -14.583,25.52 a 0.986,0.986 0 0 1 -0.754,0.351 z"
       transform="matrix(-4.1667,0,0,4.1667,5000.04,106.358)"
       id="path68" /><path
       d="m 819.15,332.61 c -0.466,0 -0.88,0.154 -1.237,0.463 -2.057,1.782 -2.319,8.201 0.221,12.576 4.64,7.989 8.925,11.02 10.992,12.098 -0.311,-4.81 -1.701,-19.501 -7.255,-23.895 -1.046,-0.827 -1.956,-1.242 -2.721,-1.242 z m 11.041,27.628 c -0.078,0 -0.155,-0.009 -0.232,-0.027 -0.269,-0.066 -6.649,-1.731 -13.528,-13.574 -2.902,-4.998 -2.807,-12.453 0.194,-15.052 0.989,-0.858 3.144,-1.905 6.468,0.723 7.356,5.82 8.055,26.057 8.082,26.915 a 0.982,0.982 0 0 1 -0.984,1.015 z"
       transform="matrix(-4.1667,0,0,4.1667,5000.04,106.358)"
       id="path70" /><path
       d="m 822.75,366.47 a 0.985,0.985 0 0 1 -0.11,-1.963 c 6.326,-0.725 6.561,-5.756 6.568,-5.97 a 0.985,0.985 0 0 1 1.831,-0.469 c 2.655,4.491 8.484,5.821 8.543,5.833 a 0.985,0.985 0 0 1 -0.423,1.923 c -0.239,-0.053 -5.198,-1.184 -8.504,-4.952 -0.794,2.113 -2.791,5.018 -7.791,5.591 a 0.883,0.883 0 0 1 -0.114,0.007 z"
       transform="matrix(-4.1667,0,0,4.1667,5000.04,106.358)"
       id="path72" /><path
       d="m 829.1,445.18 h -0.012 a 0.985,0.985 0 0 1 -0.973,-0.996 l 0.983,-84.351 a 0.984,0.984 0 0 1 0.984,-0.973 h 0.011 a 0.985,0.985 0 0 1 0.973,0.996 l -0.982,84.351 a 0.984,0.984 0 0 1 -0.984,0.973 z"
       transform="matrix(-4.1667,0,0,4.1667,5000.04,106.358)"
       id="path74" /></g><path
     d="m 3255.6697,1094.8242 -7.1751,434.0035 436.5452,0.3542 v -434.3785 h -429.3785 z"
     fill="#537891"
     fill-rule="nonzero"
     id="path78"
     style="stroke-width:4.1667" /><path
     d="m 3246.2112,1023.782 -0.9125,98.2133 h 446.2119 v -98.2133 h -445.2952 z"
     fill="#29475d"
     fill-rule="nonzero"
     id="path80"
     style="stroke-width:4.1667" /><path
     d="m 3685.0481,1370.0348 c -28.7461,0.125 -55.6546,0.3083 -76.2548,0.5833 -76.0673,1.0209 -206.4225,5.5667 -278.7897,4.0709 -24.7669,-0.5084 -52.3338,-1.6042 -78.9173,-2.8917 l -0.4292,25.7377 c 92.8174,3.5625 214.5726,3.4 275.5439,1.5958 45.2212,-1.3375 105.43,-1.8291 158.8471,-1.9583 z m 0,-215.5434 c -28.7461,0.125 -55.6546,0.3083 -76.2548,0.5833 -76.0673,1.0209 -206.4225,5.5667 -278.7897,4.0751 -23.6669,-0.4875 -49.8879,-1.5084 -75.3631,-2.7209 l -0.4209,25.7044 c 92.3466,3.4208 211.7934,3.2375 271.9814,1.4583 45.2212,-1.3417 105.43,-1.8292 158.8471,-1.9583 z m 0,76.0839 c -84.4924,-3.2333 -180.0181,-4.3417 -231.4977,-2.5292 -57.4588,2.0251 -138.9219,-1.8166 -200.0391,-3.0333 l -0.5333,32.1419 c 43.5836,-0.1292 87.7923,-0.375 118.2301,-0.8625 76.0714,-1.2125 206.4266,-6.6292 278.7939,-4.85 11.2209,0.275 23.021,0.6958 35.0461,1.2125 z m 0,73.709 c -28.7461,0.125 -55.6546,0.3125 -76.2548,0.5958 -76.0673,1.0375 -206.4225,5.6709 -278.7897,4.15 -24.4335,-0.5166 -51.5879,-1.6083 -77.8381,-2.8958 l -0.3125,19.0376 c 93.6882,3.5792 218.91,3.5084 279.4564,1.6875 43.2711,-1.3083 101.3508,-0.9833 153.7387,-0.55 z m 0,203.8349 c -28.7461,0.125 -55.6546,0.3125 -76.2548,0.5959 -76.0673,1.0375 -206.4225,5.6708 -278.7897,4.15 -25.4752,-0.5375 -53.9171,-1.7 -81.2007,-3.0625 l -0.3125,19.0501 436.5452,0.3542 v -21.0877 z m 0,-65.9172 c -86.0382,-2.1667 -184.7223,-1.8917 -236.3519,-0.3333 -56.2505,1.6958 -137.5053,0.6375 -198.7766,0.175 l -0.3708,22.5502 c 44.6795,-0.1084 90.4257,-0.3209 121.6593,-0.7459 76.0714,-1.0375 206.4058,-1.0875 278.773,0.4375 11.2293,0.2334 23.0377,0.3167 35.067,0.3417 z"
     fill="#f7ebda"
     fill-rule="nonzero"
     id="path82"
     style="stroke-width:4.1667" /><g
     fill="#e4c8b3"
     fill-rule="nonzero"
     id="g92"
     transform="matrix(-1,0,0,1,4708.8479,0)"><path
       d="m 916.94,203.1 -0.076,0.001 c -4.542,0.039 -8.143,1.697 -10.704,4.929 -2.5,3.156 -3.513,7.357 -3.359,10.389 9.169,-6.631 16.264,-13.346 15.74,-14.97 -0.024,-0.075 -0.367,-0.349 -1.601,-0.349 z m -14.899,18.057 a 0.984,0.984 0 0 1 -0.96,-0.767 c -0.797,-3.525 0.161,-9.323 3.536,-13.582 2.906,-3.67 7.136,-5.632 12.231,-5.676 l 0.086,-0.001 c 1.944,0 3.115,0.576 3.481,1.714 0.454,1.408 -0.108,3.932 -8.56,11.005 -4.493,3.761 -9.199,7.094 -9.246,7.126 a 0.978,0.978 0 0 1 -0.568,0.181 z"
       transform="matrix(-4.1667,0,0,4.1667,5000.04,106.358)"
       id="path84" /><path
       d="m 888.83,201.55 c -1.241,0 -2.227,0.448 -2.86,1.338 -1.196,1.68 -1.014,4.868 1.358,7.295 5.785,5.922 11.23,8.032 13.605,8.72 -0.42,-3.588 -2.136,-13.412 -8.519,-16.413 -1.334,-0.628 -2.548,-0.94 -3.584,-0.94 z m 13.21,19.613 a 0.932,0.932 0 0 1 -0.14,-0.01 c -0.314,-0.045 -7.785,-1.206 -15.98,-9.594 -2.77,-2.834 -3.452,-7.144 -1.555,-9.811 1.741,-2.449 5.064,-2.837 8.888,-1.04 8.889,4.18 9.738,18.8 9.77,19.42 a 0.982,0.982 0 0 1 -0.983,1.035 z"
       transform="matrix(-4.1667,0,0,4.1667,5000.04,106.358)"
       id="path86" /><path
       d="m 900.81,343.31 h -0.011 a 0.986,0.986 0 0 1 -0.974,-0.996 l 1.422,-122.14 a 0.985,0.985 0 0 1 0.922,-0.971 0.975,0.975 0 0 1 1.037,0.847 c 1.587,11.407 10.2,11.413 10.563,11.402 0.515,-0.025 0.99,0.423 1,0.966 a 0.983,0.983 0 0 1 -0.96,1.003 c -0.106,-0.005 -2.756,0.042 -5.632,-1.576 -1.656,-0.932 -3.591,-2.545 -5.034,-5.316 l -1.348,115.81 a 0.985,0.985 0 0 1 -0.985,0.973 z"
       transform="matrix(-4.1667,0,0,4.1667,5000.04,106.358)"
       id="path88" /><path
       d="m 890.76,236.25 a 0.984,0.984 0 0 1 -0.169,-1.954 c 0.417,-0.074 10.062,-1.942 10.657,-14.166 a 0.973,0.973 0 0 1 1.031,-0.936 0.986,0.986 0 0 1 0.936,1.032 c -0.351,7.203 -3.654,11.172 -6.363,13.234 -2.945,2.24 -5.802,2.755 -5.922,2.776 a 0.983,0.983 0 0 1 -0.17,0.014 z"
       transform="matrix(-4.1667,0,0,4.1667,5000.04,106.358)"
       id="path90" /></g><path
     d="m 3482.7965,1543.1612 14.3834,287.0648 521.9209,-3.1501 11.6251,-285.3398 -547.9211,1.4251 z"
     fill="#f45c58"
     fill-rule="nonzero"
     id="path94"
     style="stroke-width:4.1667" /><g
     fill="#3c5a70"
     fill-rule="nonzero"
     id="g106"
     transform="matrix(-1,0,0,1,4708.8479,0)"><path
       d="m 980.12,339.49 c -1.424,0 -2.333,0.282 -2.502,0.777 -0.666,1.951 5.76,10.252 22.021,22.746 0.449,-4.817 -1.071,-11.815 -5.105,-16.835 -3.52,-4.382 -8.336,-6.632 -14.312,-6.687 z m 20.248,26.3 a 0.993,0.993 0 0 1 -0.597,-0.2 c -0.064,-0.048 -6.492,-4.926 -12.606,-10.418 -11.467,-10.296 -12.004,-13.801 -11.41,-15.541 0.485,-1.422 2.003,-2.119 4.485,-2.109 6.502,0.06 11.976,2.627 15.829,7.423 4.889,6.079 6.359,14.874 5.259,20.064 a 0.978,0.978 0 0 1 -0.96,0.781 z"
       transform="matrix(-4.1667,0,0,4.1667,5000.04,106.358)"
       id="path96" /><path
       d="m 1018.3,337.23 c -1.45,0 -3.15,0.462 -4.99,1.39 -9.24,4.659 -11.42,20.257 -11.86,24.91 2.95,-0.84 10.79,-3.791 19.13,-12.947 3.52,-3.859 3.62,-8.98 1.7,-11.513 -0.93,-1.224 -2.3,-1.84 -3.98,-1.84 z m -17.94,28.557 a 0.994,0.994 0 0 1 -0.66,-0.252 0.979,0.979 0 0 1 -0.325,-0.779 c 0.01,-0.222 0.279,-5.499 1.985,-11.577 2.32,-8.296 6.04,-13.785 11.07,-16.318 6.95,-3.504 10.3,-0.455 11.42,1.019 2.8,3.684 2,9.847 -1.81,14.03 -11.06,12.128 -21.11,13.8 -21.53,13.866 a 0.947,0.947 0 0 1 -0.15,0.011 z"
       transform="matrix(-4.1667,0,0,4.1667,5000.04,106.358)"
       id="path98" /><path
       d="m 1012.4,380.09 c -0.05,0 -0.1,-0.004 -0.15,-0.01 -8.68,-1.269 -11.54,-8.144 -12.469,-12.218 -5.183,8.317 -13.699,10.793 -14.094,10.904 a 0.98426546,0.98426546 0 0 1 -0.533,-1.895 c 0.098,-0.028 9.816,-2.878 14.271,-12.482 a 0.984,0.984 0 0 1 1.875,0.389 c 0,0.028 0.1,3.036 1.57,6.179 1.91,4.103 5.16,6.517 9.67,7.174 0.53,0.079 0.91,0.579 0.83,1.117 a 0.982,0.982 0 0 1 -0.97,0.842 z"
       transform="matrix(-4.1667,0,0,4.1667,5000.04,106.358)"
       id="path100" /><path
       d="m 1000.7,414.71 a 0.986,0.986 0 0 1 -0.98,-0.973 L 998.887,344.5 a 0.985,0.985 0 0 1 0.972,-0.996 h 0.012 c 0.539,0 0.979,0.434 0.989,0.973 l 0.83,69.237 c 0,0.544 -0.43,0.99 -0.97,0.996 z"
       transform="matrix(-4.1667,0,0,4.1667,5000.04,106.358)"
       id="path102" /><path
       d="M 1036.1,365.65 H 907.22 a 0.985,0.985 0 0 1 0,-1.968 h 128.88 a 0.984,0.984 0 0 1 0,1.968 z"
       transform="matrix(-4.1667,0,0,4.1667,5000.04,106.358)"
       id="path104" /></g><path
     d="m 2479.0384,2115.6241 c 0,0 20.3085,-64.6047 96.2008,-87.4591 78.4131,-23.6126 137.5886,33.6378 133.2094,105.1425 -5.3459,87.3216 11.5793,155.4846 55.688,200.9225 44.1045,45.4462 138.2552,92.2216 277.1105,20.0501 138.8511,-72.1714 168.4014,-212.51 208.4975,-282.4522 40.3462,-70.3839 132.5844,-190.814 271.3188,-260.1813 141.672,-70.8339 380.9323,-133.6552 487.8373,-70.8339 106.9175,62.8172 10.2084,113.601 10.2084,113.601 l -630.38,721.7141 -711.0474,18.7126 -198.6683,-479.2538 z"
     fill="#29475d"
     fill-rule="nonzero"
     id="path108"
     style="stroke-width:4.1667" /><path
     d="m 2539.4556,2745.2958 c 0,0 -16.1543,-69.3797 -68.1672,-105.5842 -126.0802,-87.7674 -192.9057,-224.0935 -97.5675,-394.2823 94.6175,-168.893 205.8308,-179.0931 205.8308,-179.0931 0,0 97.4925,-17.5168 88.2091,88.2132 -6.8084,77.5423 34.7461,232.556 155.0387,272.6522 120.2885,40.0961 323.4443,-13.3668 403.6366,-205.8267 77.2423,-185.3848 238.8102,-442.7119 697.3389,-451.7953 35.1253,-0.7 67.9172,17.4127 86.2507,47.3963 79.7506,130.626 250.627,514.6707 -160.7471,939.0075 l -1309.8022,-10.6918 z"
     fill="#f45c58"
     fill-rule="nonzero"
     id="path110"
     style="stroke-width:4.1667" /><path
     d="m 2862.5832,2506.0855 h -54.988 c -4.625,-1.2166 -58.2129,-16.2043 -119.7884,-70.2297 3.1667,-5.0875 2.9292,-11.5209 0.4208,-17.571 -4.0459,-9.75 -15.2334,-14.3751 -24.9835,-10.3292 -9.7501,4.0458 -11.0668,17.8335 -7.0209,27.5877 4.0459,9.7542 15.721,9.8376 21.671,7.7251 a 22.375179,22.375179 0 0 0 5.5084,-2.8209 c 43.0837,37.8461 82.4798,56.9588 104.5633,65.638 h -83.084 c -0.3417,0 -34.9169,-0.4791 -75.8006,-17.2918 a 221.56427,221.56427 0 0 1 -27.1044,-13.3709 c -5.2167,-3.2334 -13.0376,-8.3667 -22.7918,-15.271 a 207.90583,207.90583 0 0 1 -12.9376,-10.8084 c -2.275,-4.6875 -13.421,-29.9377 -5.7167,-59.2796 a 3.1791921,3.1791921 0 0 0 -6.1459,-1.6125 c -5.3376,20.3251 -2.3834,38.5628 1.125,50.4629 a 210.38502,210.38502 0 0 1 -26.1002,-33.6086 c -1.7417,-3.7667 -10.8043,-24.4961 -14.1668,-55.4838 -3.1292,-28.8502 -1.7458,-72.2798 20.5252,-120.8468 a 18.829317,18.829317 0 0 0 7.3292,1.4833 c 10.3667,0 16.5335,-8.3959 18.771,-18.771 2.4083,-11.175 -8.4043,-18.7709 -18.771,-18.7709 -10.3668,0 -18.7668,8.4042 -18.7668,18.7709 0,5.4584 2.3375,10.3543 6.0584,13.7835 -28.0794,60.6338 -24.7586,114.5092 -17.596,147.9012 -0.2542,-0.6 -0.5209,-1.1834 -0.7709,-1.7875 -0.2,-0.45 -18.4668,-43.1046 -22.9835,-115.5343 5.5376,-2.8042 9.2501,-9.9292 9.8334,-16.5376 0.7834,-8.7918 -7.8375,-13.3835 -13.0667,-14.1251 -11.0085,-1.5584 -16.5585,5.725 -17.3377,14.5167 a 15.979294,15.979294 0 0 0 14.2793,17.3043 c 4.6792,73.1048 23.246,116.451 23.4294,116.8635 a 234.92271,234.92271 0 0 0 17.6751,34.3419 l 0.1708,0.3459 c 0.1209,0.25 0.2834,0.4625 0.4542,0.6583 a 219.59342,219.59342 0 0 0 14.1751,19.8793 c -26.2835,-21.3668 -57.2129,-49.142 -88.0049,-82.6215 3.1626,-3.8083 5.0584,-8.7667 5.0584,-14.3876 0,-9.9709 -10.0001,-22.3418 -22.3377,-22.3418 a 22.341845,22.341845 0 0 0 0,44.6795 22.654348,22.654348 0 0 0 12.5626,-3.7167 c 39.0295,42.442 77.4757,74.9256 104.1092,95.4966 9.0542,7 17.1751,12.9584 24.1169,17.8835 a 219.96426,219.96426 0 0 0 25.3252,17.0334 c 3.7917,2.3834 5.9667,3.5709 7.35,4.0501 a 230.15601,230.15601 0 0 0 20.071,9.3959 248.28949,248.28949 0 0 0 38.5378,12.2209 l -141.1553,2.1292 a 14.829285,14.829285 0 0 0 -2.2541,-7.3167 c -6.2668,-10.1376 -16.4835,-9.4918 -26.0336,-6.1209 a 18.337647,18.337647 0 0 0 12.2126,34.5753 c 5.8584,-2.0667 12.4584,-7.8668 15.0126,-14.7668 l 161.5513,-2.4375 c -29.4502,8.6917 -46.9295,22.071 -56.0629,31.1877 a 24.846032,24.846032 0 0 0 -6.7251,-0.9 19.120986,19.120986 0 0 0 -19.1168,19.121 c 0,10.5542 12.2334,17.0543 22.7918,17.0543 10.5585,0 15.1127,-10.7501 15.4418,-17.0543 0.375,-7.1501 -2.15,-12.1209 -6.1917,-15.2085 12.2501,-11.4501 38.1212,-29.1877 84.4549,-34.7211 l 6.1958,-0.096 h 62.4964 c -28.4002,15.2793 -68.0714,53.9462 -82.6923,68.688 -0.3542,-0.2083 -0.7084,-0.425 -1.0751,-0.6208 a 15.987628,15.987628 0 0 0 -21.6418,6.5375 c -4.1709,7.7876 2.2834,17.4085 10.0626,21.5794 7.7834,4.1709 15.3876,-1.9584 18.1168,-6.4751 4.0292,-6.6542 3.0209,-12.5417 -0.6042,-16.9084 24.6002,-24.8127 76.4173,-72.8006 96.9675,-72.8006 h 55.3921 a 3.1791921,3.1791921 0 1 0 0,-6.3501 z m 467.1287,3.5417 a 3.3875271,3.3875271 0 0 1 3.5209,-3.2417 c 14.1251,0.5917 28.5252,0.875 43.142,0.7959 4.9292,-11.8626 26.3752,-55.8505 80.6673,-77.4131 a 1.2125097,1.2125097 0 0 1 1.1708,0.2083 1.1291757,1.1291757 0 0 1 0.3375,1.1417 c -0.1583,0.6 -15.5167,55.3962 -66.988,75.8422 a 810.33982,810.33982 0 0 0 77.1965,-5.3542 c 12.5376,-72.6547 72.0297,-92.4799 72.6422,-92.7132 a 1.125009,1.125009 0 0 1 1.4542,1.2917 c -9.1959,46.0337 -47.7962,78.0964 -64.8255,90.2674 a 703.33063,703.33063 0 0 0 67.2047,-12.0918 c 4.3125,-16.3126 28.096,-93.7841 96.1757,-119.9343 a 1.125009,1.125009 0 0 1 1.5084,1.3083 c -0.2042,0.8709 -18.9793,78.884 -76.8548,113.4593 a 608.44653,608.44653 0 0 0 68.3214,-22.521 c 17.571,-91.2758 83.3757,-127.2636 84.0465,-127.6177 a 1.1333424,1.1333424 0 0 1 1.6458,1.15 c -8.675,62.8713 -45.7628,101.2716 -67.8713,119.0134 a 547.81272,547.81272 0 0 0 72.8672,-38.5253 c -1.3917,-14.9334 -4.6042,-80.4006 40.7753,-115.1217 a 1.1458425,1.1458425 0 0 1 1.1625,-0.125 1.1375091,1.1375091 0 0 1 0.6501,0.9708 c 0.033,0.725 2.5083,64.738 -27.4294,104.3717 a 530.70425,530.70425 0 0 0 51.8254,-40.0462 c -6.5751,-6.9667 -20.746,-30.7585 3.9292,-93.4049 a 1.125009,1.125009 0 0 1 2.0917,-0.012 c 0.067,0.1542 6.2792,15.5835 9.1542,34.917 2.8292,18.9918 1.4958,35.3752 -3.8125,48.2712 a 542.12934,542.12934 0 0 0 26.371,-26.2711 c -34.1336,-51.7295 2.0417,-107.6717 2.4125,-108.2342 a 1.125009,1.125009 0 0 1 0.9334,-0.5041 1.1166756,1.1166756 0 0 1 0.9458,0.4916 c 23.296,34.1128 10.1459,80.7549 2.8042,100.53 a 579.33797,579.33797 0 0 0 46.867,-59.2463 c -13.9459,-11.5626 -50.5254,-49.4921 -32.0669,-117.8134 a 1.125009,1.125009 0 0 1 1.9542,-0.4334 c 0.4708,0.5584 42.5295,50.8879 39.4878,104.2925 6.2084,-9.4584 12.2085,-19.246 18.0418,-29.3585 -35.1252,-77.184 8.2501,-120.1635 8.7084,-120.5927 a 1.1791761,1.1791761 0 0 1 1.1667,-0.2583 c 0.375,0.1375 0.6667,0.4833 0.75,0.8917 7.5001,46.8128 2.4584,84.0548 -2.125,104.8133 a 726.83915,726.83915 0 0 0 30.7919,-63.8755 c -16.2501,-66.0922 35.9586,-91.7091 36.5003,-91.9674 0.2917,-0.15 0.6667,-0.1458 0.9583,0 0.2917,0.15 0.5417,0.4333 0.6251,0.7666 14.5834,63.3714 -20.5002,88.0466 -32.042,94.2966 a 758.41023,758.41023 0 0 1 -13.4167,29.6961 c 37.7919,-43.2045 77.2089,-32.5253 77.6672,-32.4003 a 1.125009,1.125009 0 0 1 0.75,0.7459 c 0.125,0.3625 0.042,0.7583 -0.2083,1.05 -29.4169,36.5378 -51.1254,51.4712 -66.1672,56.7671 -4.7084,1.6458 -8.7501,2.3584 -12.1667,2.5042 -6.1251,0.2542 -10.3751,-1.2709 -12.9168,-2.6792 a 677.68459,677.68459 0 0 1 -31.8336,54.1088 c 12.2501,-10.4043 31.5002,-15.6002 56.6671,-15.1418 25.0002,0.4625 47.3337,6.3542 47.5421,6.4167 0.4583,0.1083 0.75,0.4583 0.8333,0.8792 a 1.0958421,1.0958421 0 0 1 -0.4583,1.1208 c -12.4168,9.1126 -24.6669,15.2751 -36.2087,19.346 -41.8753,14.7001 -74.9589,1.825 -77.4172,0.8042 a 591.6214,591.6214 0 0 1 -45.9796,58.2213 c 65.7297,-22.0335 102.355,4.3875 102.7717,4.675 0.2916,0.2292 0.4583,0.6125 0.4166,1 a 1.1458425,1.1458425 0 0 1 -0.5833,0.9125 c -4.5834,2.3042 -9.1667,4.2334 -13.7084,5.8376 -42.7087,15.0001 -83.4674,1.0916 -96.3966,-4.2209 a 550.48774,550.48774 0 0 1 -34.467,33.7586 c 54.0171,4.575 74.8631,34.6878 75.0715,35.0045 a 1.041675,1.041675 0 0 1 0.083,1.0458 0.9708411,0.9708411 0 0 1 -0.6667,0.6458 l -0.125,0.037 c -56.4588,12.5626 -75.1506,-20.1876 -79.8965,-31.8044 a 537.23346,537.23346 0 0 1 -58.4213,44.3754 c 54.9463,-5.7709 96.93,38.2836 97.3758,38.7586 a 1.1500092,1.1500092 0 0 1 0.2709,1.0542 1.1416758,1.1416758 0 0 1 -0.7209,0.7833 l -0.025,0.01 c -68.4172,22.3501 -99.7508,-21.7627 -106.9842,-34.1211 a 547.40021,547.40021 0 0 1 -37.0211,21.2001 567.52537,567.52537 0 0 1 -32.5419,15.6626 c 67.8963,-6.7083 107.63,56.2213 108.0675,56.9297 a 1.1333424,1.1333424 0 0 1 -0.95,1.7208 c -69.9714,0.6375 -117.5551,-39.6545 -128.3385,-49.7212 a 600.81731,600.81731 0 0 1 -22.6877,8.5084 628.7967,628.7967 0 0 1 -46.0004,14.1626 c 56.9171,5.4917 103.3592,66.4839 103.88,67.1797 0.25,0.3333 0.2959,0.7792 0.1209,1.1583 a 1.1458425,1.1458425 0 0 1 -0.9751,0.6459 c -72.1797,3.3917 -115.1425,-50.8463 -124.2718,-63.688 a 706.15982,706.15982 0 0 1 -66.9047,12.1126 c 13.3501,6.2667 25.7711,19.8251 36.3586,39.8753 9.9084,18.7585 14.8377,36.8045 14.8835,36.9836 a 1.125009,1.125009 0 0 1 -1.5,1.3417 c -64.5505,-25.3419 -64.0339,-64.1672 -61.963,-76.7131 a 809.59398,809.59398 0 0 1 -72.7631,5.0625 c 12.9918,5.7334 25.6669,17.2252 37.3628,34.0378 12.8584,18.4918 20.1418,37.1253 20.2085,37.3128 a 1.1375091,1.1375091 0 0 1 -0.1917,1.1458 1.1458425,1.1458425 0 0 1 -1.1,0.3667 c -55.7921,-12.3584 -71.6714,-59.8463 -74.9672,-72.5839 -14.1335,0.058 -28.4336,-0.175 -42.9379,-0.7833 a 3.3833604,3.3833604 0 0 1 -3.2417,-3.5251 z m 558.7128,244.877 c 0,0 -11.7084,-104.5175 -73.6047,-104.5175 -36.8253,0 -64.6922,72.1714 -64.6922,72.1714 0,0 -53.3338,-60.738 -90.6882,-57.1505 -37.3587,3.5917 -67.6714,57.1713 -67.6714,57.1713 0,0 -37.192,-67.5797 -75.6173,-64.7088 -38.4253,2.8708 -63.9297,66.6922 -63.9297,66.6922 0,0 -27.3252,-73.6923 -68.1505,-66.6922 -50.7838,8.7084 -65.5297,64.0005 -65.5297,64.0005 0,0 -19.8752,-63.638 -51.8754,-64.8047 -48.0046,-1.75 -64.4839,44.217 -70.1214,73.7506 -7.5876,-30.8711 -26.4127,-80.4298 -69.0422,-80.4298 -36.8253,0 -64.6922,72.1714 -64.6922,72.1714 0,0 -53.3338,-60.738 -90.6924,-57.1505 -37.3545,3.5917 -67.6672,57.1713 -67.6672,57.1713 0,0 -37.1962,-67.5797 -75.6215,-64.7088 -38.4211,2.8708 -63.9255,66.6922 -63.9255,66.6922 0,0 -27.3252,-73.6923 -68.1505,-66.6922 -50.7879,8.7084 -65.5339,64.0005 -65.5339,64.0005 0,0 -19.871,-63.638 -51.8712,-64.8047 -70.5173,-2.5667 -55.2338,91.2632 -55.2338,91.2632 0,0 435.8368,26.7877 674.4221,6.7876 49.542,2.1083 466.2954,18.9668 689.9222,-0.2125 z"
     fill="#f7ebda"
     fill-rule="nonzero"
     id="path112"
     style="stroke-width:4.1667" /><path
     d="m 3393.8374,2714.5039 c 0,5.0875 -3.9917,9.2125 -8.9209,9.2125 -4.9292,0 -8.9209,-4.125 -8.9209,-9.2125 0,-5.0876 3.9917,-9.2084 8.9209,-9.2084 4.9292,0 8.9209,4.1208 8.9209,9.2084 z m 129.0011,0 c 0,5.0875 -3.9917,9.2125 -8.9168,9.2125 -4.9292,0 -8.9251,-4.125 -8.9251,-9.2125 0,-5.0876 3.9959,-9.2084 8.9251,-9.2084 4.9251,0 8.9168,4.1208 8.9168,9.2084 z m 152.7928,-9.2084 c 0,5.0875 -3.9958,9.2084 -8.9209,9.2084 -4.9292,0 -8.925,-4.1209 -8.925,-9.2084 0,-5.0876 3.9958,-9.2084 8.925,-9.2084 4.9251,0 8.9209,4.1208 8.9209,9.2084 z m 153.5429,-3.7084 c 0,5.0834 -3.9958,9.2084 -8.925,9.2084 -4.9251,0 -8.9168,-4.125 -8.9168,-9.2084 0,-5.0875 3.9917,-9.2084 8.9168,-9.2084 4.9292,0 8.925,4.1209 8.925,9.2084 z m -562.2545,3.7084 c 0,5.0875 -3.9917,9.2084 -8.9167,9.2084 -4.9292,0 -8.9251,-4.1209 -8.9251,-9.2084 0,-5.0876 3.9959,-9.2084 8.9251,-9.2084 4.925,0 8.9167,4.1208 8.9167,9.2084 z m -560.4211,9.2084 c 0,5.0875 -3.9959,9.2125 -8.9209,9.2125 -4.9292,0 -8.9209,-4.125 -8.9209,-9.2125 0,-5.0876 3.9917,-9.2084 8.9209,-9.2084 4.925,0 8.9209,4.1208 8.9209,9.2084 z m 129.0427,0 c 0,5.0875 -3.9917,9.2125 -8.9167,9.2125 -4.9293,0 -8.9251,-4.125 -8.9251,-9.2125 0,-5.0876 3.9958,-9.2084 8.9251,-9.2084 4.925,0 8.9167,4.1208 8.9167,9.2084 z m 152.7929,-9.2084 c 0,5.0875 -3.9917,9.2084 -8.9168,9.2084 -4.9292,0 -8.925,-4.1209 -8.925,-9.2084 0,-5.0876 3.9958,-9.2084 8.925,-9.2084 4.9251,0 8.9168,4.1208 8.9168,9.2084 z m 153.5429,-3.7084 c 0,5.0834 -3.9917,9.2084 -8.9209,9.2084 -4.9251,0 -8.9209,-4.125 -8.9209,-9.2084 0,-5.0875 3.9958,-9.2084 8.9209,-9.2084 4.9292,0 8.9209,4.1209 8.9209,9.2084 z m -562.2545,3.7084 c 0,5.0875 -3.9917,9.2084 -8.9168,9.2084 -4.9292,0 -8.925,-4.1209 -8.925,-9.2084 0,-5.0876 3.9958,-9.2084 8.925,-9.2084 4.9251,0 8.9168,4.1208 8.9168,9.2084 z"
     fill="#3c5a70"
     fill-rule="nonzero"
     id="path114"
     style="stroke-width:4.1667" /><path
     d="m 2661.5399,2792.5045 c 0,0 -78.259,141.747 -90.7257,168.5847 -8.7876,18.9168 -32.2294,61.3005 -32.2294,61.3005 0,0 30.0002,32.2086 58.5171,28.646 28.5085,-3.5667 59.3755,-110.7092 73.3506,-142.797 8.0875,-18.5584 53.4629,-129.0552 53.4629,-129.0552 z m 1169.0094,0 c 0,0 49.6629,99.5258 59.7879,128.8635 6.8334,19.7127 42.2087,102.605 42.2087,102.605 0,0 -33.3753,3.5625 -61.9005,0 -28.5169,-3.5667 -47.5004,-84.8632 -61.4838,-116.9509 -8.0834,-18.5543 -40.9878,-127.8386 -40.9878,-127.8386 z m -625.505,7.125 c 0,0 0.6666,126.3011 0,149.6929 -0.3584,12.5918 -0.7959,85.5382 -0.7959,85.5382 l 76.2423,3.075 c 0,0 -4.0125,-81.3048 -6.0126,-116.2801 -2.0916,-36.4711 -2.0708,-149.7553 -2.0708,-149.7553 z"
     fill="#c0a38d"
     fill-rule="nonzero"
     id="path116"
     style="stroke-width:4.1667" /><path
     d="m 2539.4556,2745.2958 c 0,0 -45.4462,2.675 -49.0087,34.7503 -3.5667,32.0752 81.9756,35.6419 119.3968,35.6419 h 723.5057 c 40.9879,0 632.5884,-16.0376 659.3387,-12.4751 26.7502,3.5667 42.7503,-51.6796 0,-57.9171 -42.7504,-6.2376 -707.464,0.8917 -793.0064,0 -85.5423,-0.8917 -660.2553,0 -660.2553,0 z"
     fill="#e4c8b3"
     fill-rule="nonzero"
     id="path118"
     style="stroke-width:4.1667" /><path
     d="m 4306.3447,3004.7562 c -64.5422,1.0083 -1059.1334,1.1792 -1187.1761,0 -100.5092,-0.9209 -652.1719,-0.3958 -884.8404,-0.1292 -45.9713,0.05 -316.5317,-0.8333 -344.6361,-137.7177 -28.3628,-138.1095 80.1923,-168.4056 80.1923,-168.4056 0,0 4.3542,-1.55 10.7709,-4.0083 61.2213,-21.3835 64.4088,1.3375 64.0755,7.6834 -0.3333,6.35 -7.4792,20.121 -1.3375,23.7293 19.3793,11.3543 27.0627,-14.3751 27.0627,-14.3751 22.7252,-76.8464 -85.534,-75.2048 -85.534,-75.2048 l -0.01,0.079 c -20.5335,-0.7167 -48.2254,4.375 -84.5299,20.6668 -104.2508,46.7796 -209.835,201.8183 -89.5465,327.4527 120.2843,125.6301 425.2534,113.3134 425.2534,113.3134 h 1083.1336 c 61.3589,0 946.7993,-15.9585 987.0913,-16.496 44.5837,-0.5875 33.5419,-77.1131 0,-76.5881 z"
     fill="#e4c8b3"
     fill-rule="nonzero"
     id="path120"
     style="stroke-width:4.1667" /><g
     fill="#f7ebda"
     fill-rule="nonzero"
     id="g158"
     transform="matrix(-1,0,0,1,4708.8479,0)"><path
       d="m 905.21,499.19 a 0.909,0.909 0 0 1 -0.187,-1.796 c 0.409,-0.086 40.894,-8.672 49.994,-14.199 a 0.90818129,0.90818129 0 0 1 0.942,1.553 c -9.361,5.686 -48.883,14.068 -50.561,14.423 a 0.93,0.93 0 0 1 -0.188,0.019 z"
       transform="matrix(-4.1667,0,0,4.1667,5000.04,106.358)"
       id="path122" /><path
       d="m 940.03,513.6 a 0.91,0.91 0 0 1 -0.862,-0.622 c -0.108,-0.33 -11.037,-33.05 -22.442,-48.601 a 0.909,0.909 0 0 1 1.465,-1.073 c 11.574,15.781 22.591,48.77 22.701,49.101 a 0.907,0.907 0 0 1 -0.862,1.195 z"
       transform="matrix(-4.1667,0,0,4.1667,5000.04,106.358)"
       id="path124" /><path
       d="m 952.05,502.81 a 0.909,0.909 0 0 1 -0.354,-0.073 c -6.731,-2.852 -41.975,-20.695 -43.472,-21.453 a 0.909,0.909 0 0 1 0.82,-1.62 c 0.366,0.185 36.686,18.573 43.36,21.401 a 0.908,0.908 0 0 1 -0.354,1.745 z"
       transform="matrix(-4.1667,0,0,4.1667,5000.04,106.358)"
       id="path126" /><path
       d="m 925.83,515.59 a 0.907,0.907 0 0 1 -0.872,-1.163 c 0.082,-0.278 8.184,-27.956 12.319,-46.804 a 0.90807447,0.90807447 0 0 1 1.774,0.389 c -4.149,18.91 -12.269,46.647 -12.35,46.926 a 0.908,0.908 0 0 1 -0.871,0.652 z m -69.84,6.99 a 0.909,0.909 0 0 1 -0.027,-1.816 c 0.305,-0.01 30.676,-0.96 37.94,-3.762 a 0.908,0.908 0 0 1 0.654,1.693 c -7.552,2.913 -37.277,3.846 -38.539,3.883 -0.009,0.002 -0.019,0.002 -0.028,0.002 z"
       transform="matrix(-4.1667,0,0,4.1667,5000.04,106.358)"
       id="path128" /><path
       d="m 879.31,537.53 a 0.91,0.91 0 0 1 -0.898,-0.779 C 878.376,536.5 874.725,511.44 868.51,498.74 a 0.91,0.91 0 0 1 0.417,-1.215 0.911,0.911 0 0 1 1.215,0.417 c 6.34,12.957 9.919,37.512 10.067,38.551 a 0.907,0.907 0 0 1 -0.899,1.037 z"
       transform="matrix(-4.1667,0,0,4.1667,5000.04,106.358)"
       id="path130" /><path
       d="m 889.41,531.29 a 0.9,0.9 0 0 1 -0.495,-0.148 c -4.508,-2.943 -27.698,-20.438 -28.683,-21.182 a 0.90780463,0.90780463 0 0 1 1.094,-1.449 c 0.241,0.181 24.126,18.201 28.582,21.11 a 0.91,0.91 0 0 1 -0.498,1.669 z"
       transform="matrix(-4.1667,0,0,4.1667,5000.04,106.358)"
       id="path132" /><path
       d="m 868.78,537.12 a 0.906,0.906 0 0 1 -0.811,-1.313 c 0.094,-0.191 9.551,-19.158 14.987,-32.251 a 0.90830887,0.90830887 0 1 1 1.678,0.696 c -5.462,13.152 -14.946,32.175 -15.041,32.365 a 0.91,0.91 0 0 1 -0.813,0.503 z m 135.52,-75.16 a 0.98,0.98 0 0 1 -0.84,-0.467 c -0.24,-0.384 -23.899,-38.512 -32.883,-45.757 a 0.986,0.986 0 0 1 -0.15,-1.385 0.988,0.988 0 0 1 1.385,-0.148 c 9.245,7.455 32.338,44.673 33.318,46.254 a 0.975,0.975 0 0 1 -0.32,1.355 0.97,0.97 0 0 1 -0.51,0.148 z"
       transform="matrix(-4.1667,0,0,4.1667,5000.04,106.358)"
       id="path134" /><path
       d="m 964.63,462.16 a 0.986,0.986 0 0 1 -0.817,-1.534 c 11.833,-17.611 41.424,-40.99 41.724,-41.224 a 0.983,0.983 0 0 1 1.38,0.165 0.988,0.988 0 0 1 -0.17,1.382 c -0.29,0.233 -29.639,23.422 -41.3,40.776 a 0.982,0.982 0 0 1 -0.817,0.435 z"
       transform="matrix(-4.1667,0,0,4.1667,5000.04,106.358)"
       id="path136" /><path
       d="m 984.85,465.03 a 0.984,0.984 0 0 1 -0.979,-1.104 c 0.055,-0.442 5.439,-44.249 5.864,-52.097 a 0.99,0.99 0 0 1 1.036,-0.931 c 0.543,0.031 0.96,0.495 0.931,1.038 -0.431,7.915 -5.654,50.424 -5.877,52.231 a 0.984,0.984 0 0 1 -0.975,0.863 z"
       transform="matrix(-4.1667,0,0,4.1667,5000.04,106.358)"
       id="path138" /><path
       d="m 961.06,439.57 a 0.985,0.985 0 0 1 -0.127,-1.961 c 20.811,-2.73 52.084,-4.658 52.404,-4.676 0.55,-0.047 1.01,0.378 1.04,0.921 0.03,0.543 -0.38,1.01 -0.92,1.043 -0.32,0.019 -31.524,1.944 -52.268,4.664 a 0.954,0.954 0 0 1 -0.129,0.009 z m -39.09,92.44 c -4.191,0 -12.61,-1.465 -12.994,-1.532 a 0.98469805,0.98469805 0 0 1 0.339,-1.94 c 0.099,0.017 10.007,1.733 13.452,1.478 a 0.98,0.98 0 0 1 1.056,0.905 0.982,0.982 0 0 1 -0.905,1.057 c -0.282,0.022 -0.601,0.032 -0.948,0.032 z"
       transform="matrix(-4.1667,0,0,4.1667,5000.04,106.358)"
       id="path140" /><path
       d="m 915.22,538.31 a 0.984,0.984 0 0 1 -0.964,-1.19 c 0.017,-0.084 1.787,-8.448 1.468,-13.429 a 0.98448591,0.98448591 0 0 1 1.965,-0.125 c 0.336,5.251 -1.432,13.612 -1.508,13.965 a 0.985,0.985 0 0 1 -0.961,0.779 z m 73.66,55 a 0.986,0.986 0 0 1 -0.208,-1.947 l 15.856,-3.434 a 0.98465425,0.98465425 0 0 1 0.42,1.924 l -15.859,3.434 a 0.942,0.942 0 0 1 -0.209,0.023 z"
       transform="matrix(-4.1667,0,0,4.1667,5000.04,106.358)"
       id="path142" /><path
       d="m 1000.4,599.67 a 0.984,0.984 0 0 1 -0.961,-0.776 c -0.027,-0.123 -2.7,-12.426 -4.379,-16.155 a 0.985,0.985 0 0 1 1.796,-0.807 c 1.763,3.917 4.394,16.031 4.504,16.546 a 0.979,0.979 0 0 1 -0.96,1.192 z m 40.5,-150.99 -0.05,-0.001 -16.2,-0.684 a 0.987,0.987 0 0 1 -0.95,-1.025 c 0.03,-0.543 0.5,-0.967 1.03,-0.943 l 16.21,0.685 a 0.986,0.986 0 0 1 -0.04,1.968 z"
       transform="matrix(-4.1667,0,0,4.1667,5000.04,106.358)"
       id="path144" /><path
       d="m 1034.3,457.08 -0.04,-10e-4 a 0.987,0.987 0 0 1 -0.94,-1.025 c 0.01,-0.127 0.53,-12.705 -0.15,-16.738 a 0.984,0.984 0 0 1 0.8,-1.134 0.99,0.99 0 0 1 1.14,0.806 c 0.71,4.236 0.2,16.623 0.18,17.149 a 0.993,0.993 0 0 1 -0.99,0.943 z m -89.73,-16.4 c -0.053,0 -0.107,-0.005 -0.162,-0.014 l -10.107,-1.676 a 0.984,0.984 0 1 1 0.322,-1.941 l 10.106,1.675 a 0.985,0.985 0 0 1 -0.159,1.956 z"
       transform="matrix(-4.1667,0,0,4.1667,5000.04,106.358)"
       id="path146" /><path
       d="m 938.06,444.89 a 0.984,0.984 0 0 1 -0.983,-0.94 c -0.125,-2.747 1.158,-10.509 1.212,-10.838 a 0.985,0.985 0 0 1 1.942,0.324 c -0.012,0.078 -1.302,7.883 -1.187,10.425 a 0.986,0.986 0 0 1 -0.94,1.028 z m 45.78,46.67 a 0.989,0.989 0 0 1 -0.344,-0.062 l -9.602,-3.572 a 0.989,0.989 0 0 1 -0.579,-1.267 0.989,0.989 0 0 1 1.267,-0.58 l 9.602,3.573 c 0.508,0.19 0.768,0.757 0.579,1.267 a 0.989,0.989 0 0 1 -0.923,0.641 z"
       transform="matrix(-4.1667,0,0,4.1667,5000.04,106.358)"
       id="path148" /><path
       d="m 976.65,494.44 a 0.987,0.987 0 0 1 -0.975,-1.128 c 0.402,-2.72 3.14,-10.095 3.258,-10.408 a 0.985,0.985 0 0 1 1.844,0.688 c -0.028,0.074 -2.782,7.491 -3.153,10.008 a 0.985,0.985 0 0 1 -0.974,0.84 z m 53.65,62.47 c -0.12,0 -0.23,-0.019 -0.35,-0.061 l -9.6,-3.573 a 0.98490164,0.98490164 0 1 1 0.69,-1.845 l 9.6,3.572 a 0.985,0.985 0 0 1 -0.34,1.907 z"
       transform="matrix(-4.1667,0,0,4.1667,5000.04,106.358)"
       id="path150" /><path
       d="m 1023.1,559.8 a 0.983,0.983 0 0 1 -0.98,-1.128 c 0.4,-2.721 3.14,-10.095 3.26,-10.408 a 0.983,0.983 0 0 1 1.84,0.687 c -0.03,0.074 -2.78,7.492 -3.15,10.008 a 0.98,0.98 0 0 1 -0.97,0.841 z M 902.3,454.59 a 1.2,1.2 0 0 1 -0.084,-0.003 l -10.208,-0.858 a 0.986,0.986 0 0 1 -0.899,-1.064 0.995,0.995 0 0 1 1.064,-0.899 l 10.208,0.858 a 0.985,0.985 0 0 1 -0.081,1.966 z"
       transform="matrix(-4.1667,0,0,4.1667,5000.04,106.358)"
       id="path152" /><path
       d="m 896.14,459.3 a 0.985,0.985 0 0 1 -0.976,-0.862 c -0.345,-2.728 0.31,-10.567 0.337,-10.9 0.047,-0.541 0.534,-0.927 1.064,-0.898 a 0.985,0.985 0 0 1 0.899,1.064 c -0.007,0.079 -0.665,7.964 -0.346,10.487 a 0.986,0.986 0 0 1 -0.978,1.109 z m -11.48,23.36 a 0.907,0.907 0 0 1 -0.9,-0.799 l -1.13,-9.381 a 0.90800578,0.90800578 0 0 1 1.803,-0.217 l 1.129,9.381 a 0.908,0.908 0 0 1 -0.902,1.016 z"
       transform="matrix(-4.1667,0,0,4.1667,5000.04,106.358)"
       id="path154" /><path
       d="m 879.22,479.64 a 0.91,0.91 0 0 1 -0.108,-1.81 c 0.074,-0.009 7.319,-0.886 9.538,-1.645 a 0.90775726,0.90775726 0 1 1 0.587,1.718 c -2.399,0.821 -9.602,1.694 -9.908,1.73 a 0.808,0.808 0 0 1 -0.109,0.007 z m -83.58,112.84 c -3.601,-7.085 -5.85,-9.33 -7.142,-9.924 v -7.463 c 1.915,2.492 5.339,5.795 6.25,4.012 1.206,-2.36 -4.668,-18.043 -7.5,-14.892 -2.832,3.15 -8.864,16.256 -6.137,16.448 1.926,0.136 4.191,-3.676 5.356,-5.929 v 8.498 c -5.797,5.795 -8.496,12.307 -6.667,12.764 1.634,0.408 5.623,-5.66 6.667,-7.303 v 14.384 a 1.016,1.016 0 0 0 2.031,0 v -13.269 c 1.267,1.033 3.1,2.428 5.149,3.67 2.737,1.66 1.993,-0.996 1.993,-0.996 z m 51.71,0 c -3.6,-7.085 -5.85,-9.331 -7.142,-9.924 v -7.463 c 1.916,2.492 5.339,5.795 6.25,4.012 1.207,-2.36 -4.668,-18.043 -7.5,-14.892 -2.832,3.15 -8.864,16.256 -6.137,16.448 1.926,0.136 4.191,-3.676 5.357,-5.929 v 8.498 c -5.798,5.795 -8.497,12.307 -6.668,12.764 1.634,0.408 5.623,-5.66 6.668,-7.303 v 14.384 a 1.015,1.015 0 1 0 2.03,0 v -13.269 c 1.267,1.033 3.1,2.428 5.148,3.67 2.739,1.66 1.994,-0.996 1.994,-0.996 z m -25.86,0 c -3.599,-7.085 -5.849,-9.331 -7.141,-9.924 v -7.463 c 1.915,2.492 5.338,5.795 6.25,4.012 1.206,-2.36 -4.668,-18.043 -7.5,-14.892 -2.832,3.15 -8.865,16.256 -6.137,16.448 1.926,0.136 4.19,-3.676 5.355,-5.929 v 8.498 c -5.797,5.795 -8.496,12.307 -6.667,12.764 1.635,0.408 5.622,-5.66 6.667,-7.303 v 14.384 a 1.016,1.016 0 0 0 2.032,0 v -13.269 c 1.266,1.033 3.099,2.428 5.148,3.67 2.738,1.66 1.993,-0.996 1.993,-0.996 z"
       transform="matrix(-4.1667,0,0,4.1667,5000.04,106.358)"
       id="path156" /></g><path
     d="m 3477.5048,3054.7566 c 0,7.1917 -5.6417,13.0168 -12.6085,13.0168 -6.9667,0 -12.6084,-5.8251 -12.6084,-13.0168 0,-7.1876 5.6417,-13.021 12.6084,-13.021 6.9668,0 12.6085,5.8334 12.6085,13.021 z m 183.8764,-4.375 c 0,7.1917 -5.6417,13.0167 -12.6084,13.0167 -6.9667,0 -12.6084,-5.825 -12.6084,-13.0167 0,-7.1876 5.6417,-13.021 12.6084,-13.021 6.9667,0 12.6084,5.8334 12.6084,13.021 z m 212.8351,-2.9584 c 0,7.1876 -5.6417,13.0209 -12.6085,13.0209 -6.9667,0 -12.6084,-5.8333 -12.6084,-13.0209 0,-7.1917 5.6417,-13.0168 12.6084,-13.0168 6.9668,0 12.6085,5.8251 12.6085,13.0168 z m 217.1267,0 c 0,7.1876 -5.6667,13.0209 -12.6251,13.0209 -6.9584,0 -12.6251,-5.8333 -12.6251,-13.0209 0,-7.1917 5.6667,-13.0168 12.6251,-13.0168 6.9584,0 12.6251,5.8251 12.6251,13.0168 z m -794.8397,5.4167 c 0,7.1917 -5.6459,13.0168 -12.6084,13.0168 -6.9667,0 -12.6168,-5.8251 -12.6168,-13.0168 0,-7.1876 5.6501,-13.0209 12.6168,-13.0209 6.9625,0 12.6084,5.8333 12.6084,13.0209 z m -823.0482,2.375 c 0,7.1876 -5.6459,13.0168 -12.6126,13.0168 -6.9668,0 -12.6085,-5.8292 -12.6085,-13.0168 0,-7.1917 5.6417,-13.0209 12.6085,-13.0209 6.9667,0 12.6126,5.8292 12.6126,13.0209 z m 208.5016,-2.375 c 0,7.1917 -5.65,13.0168 -12.6167,13.0168 -6.9584,0 -12.6085,-5.8251 -12.6085,-13.0168 0,-7.1876 5.6501,-13.0209 12.6085,-13.0209 6.9667,0 12.6167,5.8333 12.6167,13.0209 z m 225.2935,0 c 0,7.1917 -5.6459,13.0168 -12.6084,13.0168 -6.9668,0 -12.6168,-5.8251 -12.6168,-13.0168 0,-7.1876 5.65,-13.0209 12.6168,-13.0209 6.9625,0 12.6084,5.8333 12.6084,13.0209 z m 212.4184,-1.5417 c 0,7.1918 -5.6417,13.021 -12.6085,13.021 -6.9667,0 -12.6084,-5.8292 -12.6084,-13.021 0,-7.1875 5.6417,-13.0167 12.6084,-13.0167 6.9668,0 12.6085,5.8292 12.6085,13.0167 z m -854.0902,3.9167 c 0,7.1876 -5.6417,13.0168 -12.6084,13.0168 -6.9668,0 -12.6126,-5.8292 -12.6126,-13.0168 0,-7.1917 5.6458,-13.0209 12.6126,-13.0209 6.9667,0 12.6084,5.8292 12.6084,13.0209 z m -206.585,-20.8335 c 0,7.1876 -5.6459,13.0168 -12.6126,13.0168 -6.9667,0 -12.6126,-5.8292 -12.6126,-13.0168 0,-7.1917 5.6459,-13.0209 12.6126,-13.0209 6.9667,0 12.6126,5.8292 12.6126,13.0209 z M 1841.575,2815.6713 c 0,7.1876 -5.6459,13.021 -12.6084,13.021 -6.9667,0 -12.6126,-5.8334 -12.6126,-13.021 0,-7.1917 5.6459,-13.0209 12.6126,-13.0209 6.9625,0 12.6084,5.8292 12.6084,13.0209 z m 57.0421,149.7096 c 0,7.1917 -5.65,13.0167 -12.6084,13.0167 -6.9667,0 -12.6168,-5.825 -12.6168,-13.0167 0,-7.1876 5.6501,-13.021 12.6168,-13.021 6.9584,0 12.6084,5.8334 12.6084,13.021 z"
     fill="#3c5a70"
     fill-rule="nonzero"
     id="path160"
     style="stroke-width:4.1667" /><path
     d="m 3082.8749,1312.016 a -14.892,14.892 0 1 1 29.784,0 -14.892,14.892 0 0 1 -29.784,0 z"
     fill="#72a5c1"
     fill-rule="nonzero"
     id="path162" /><path
     d="m 4320.9979,711.192 a -14.896501,14.896501 0 1 1 29.793,0.009 -14.896001,14.896001 0 0 1 -29.792,-0.009 z"
     fill="#eee2ce"
     fill-rule="nonzero"
     id="path164" /><path
     d="m 4171.8679,1723.171 a -14.896,14.896 0 1 1 29.792,0 -14.896,14.896 0 0 1 -29.792,0 z m -1480.204,79.766 a -14.896,14.896 0 1 1 29.791,0 -14.896,14.896 0 0 1 -29.791,0 z"
     fill="#72a5c1"
     fill-rule="nonzero"
     id="path166" /><path
     d="m 2298.9079,1222.474 a -14.8965,14.8965 0 1 1 29.793,0 -14.896,14.896 0 0 1 -29.792,0 z"
     fill="#eee2ce"
     fill-rule="nonzero"
     id="path168" /><path
     d="m 4245.9679,2052.689 a -14.896001,14.896001 0 1 1 29.792,0.01 -14.896001,14.896001 0 0 1 -29.792,-0.01 z m -1353.553,142.21 a -14.892,14.892 0 1 1 29.784,0 -14.892,14.892 0 0 1 -29.784,0 z"
     fill="#3c5a70"
     fill-rule="nonzero"
     id="path170" /></svg>
