<?xml version="1.0" encoding="UTF-8" standalone="no"?>
<svg
   xmlns:dc="http://purl.org/dc/elements/1.1/"
   xmlns:cc="http://creativecommons.org/ns#"
   xmlns:rdf="http://www.w3.org/1999/02/22-rdf-syntax-ns#"
   xmlns:svg="http://www.w3.org/2000/svg"
   xmlns="http://www.w3.org/2000/svg"
   xmlns:sodipodi="http://sodipodi.sourceforge.net/DTD/sodipodi-0.dtd"
   xmlns:inkscape="http://www.inkscape.org/namespaces/inkscape"
   version="1.1"
   viewBox="0 0 637.12701 979"
   id="svg8"
   sodipodi:docname="hero-middle.svg"
   width="637.12701"
   height="979"
   inkscape:version="1.0.2-2 (e86c870879, 2021-01-15)">
  <metadata
     id="metadata14">
    <rdf:RDF>
      <cc:Work
         rdf:about="">
        <dc:format>image/svg+xml</dc:format>
        <dc:type
           rdf:resource="http://purl.org/dc/dcmitype/StillImage" />
        <dc:title></dc:title>
      </cc:Work>
    </rdf:RDF>
  </metadata>
  <defs
     id="defs12" />
  <sodipodi:namedview
     pagecolor="#ffffff"
     bordercolor="#666666"
     borderopacity="1"
     objecttolerance="10"
     gridtolerance="10"
     guidetolerance="10"
     inkscape:pageopacity="1"
     inkscape:pageshadow="2"
     inkscape:window-width="2210"
     inkscape:window-height="1376"
     id="namedview10"
     showgrid="false"
     fit-margin-top="0"
     fit-margin-left="0"
     fit-margin-right="0"
     fit-margin-bottom="0"
     inkscape:zoom="1"
     inkscape:cx="517.92369"
     inkscape:cy="476.22486"
     inkscape:window-x="4479"
     inkscape:window-y="391"
     inkscape:window-maximized="0"
     inkscape:current-layer="layer1"
     inkscape:document-rotation="0"
     inkscape:pagecheckerboard="true" />
  <g
     inkscape:groupmode="layer"
     id="layer1"
     inkscape:label="Layer 1"
     style="display:inline">
    <path
       fill="#455964"
       d="m 0,0 h 9.0926753 q 9.2958327,26.56972 22.2375207,48.971963 13.551161,23.445485 28.623259,42.070096 14.731671,18.207311 29.787297,33.630821 21.754338,22.28694 46.962348,45.28218 24.67541,22.50657 45.89715,43.05294 22.29243,21.57863 42.67957,46.27601 22.24301,26.95407 37.64455,58.24583 2.17983,4.42554 4.64517,9.94923 12.39261,27.7118 21.46882,56.70842 4.47496,14.30889 8.73028,28.68366 6.02884,20.37067 12.29927,40.66996 6.6493,21.50725 14.7152,42.52582 9.17504,23.91769 21.78179,46.21012 11.6294,20.56834 26.66307,38.79212 15.47841,18.76188 33.17508,35.45375 15.28075,14.42419 31.37962,27.92044 16.8456,14.13318 33.89437,28.01928 12.50243,10.19082 24.81268,20.61226 14.73167,12.47497 28.77151,25.72963 18.29517,17.27389 34.20186,36.73859 3.57996,4.38161 6.75361,8.65341 28.08517,37.80928 44.04677,82.27883 10.06454,28.04124 15.85178,57.26848 7.29171,36.87585 9.18053,74.80592 a 0.26355581,0.25806506 88.3 0 1 -0.25807,0.28003 L 0,978.75292 Z"
       id="path4"
       style="fill:#455964;fill-opacity:1;stroke-width:0.549075" />
    <g
       id="g842"
       transform="scale(0.5490746)">
      <rect
         style="fill:#ffffff;fill-opacity:1;stroke:none;stroke-width:0;stroke-miterlimit:4;stroke-dasharray:none;stroke-opacity:0"
         id="rect838"
         width="1160.3651"
         height="1783"
         x="0"
         y="0" />
      <path
         stroke="#a2acb2"
         stroke-width="2"
         fill="none"
         stroke-linecap="butt"
         vector-effect="non-scaling-stroke"
         d="m 0,0 c 11.286668,32.26 41.346667,61.99 57.06,89.19 16.453333,28.46667 33.83,54.00667 52.12999,76.62 17.88667,22.10667 35.97,42.52333 54.25,61.25 26.41333,27.06 54.92333,54.55 85.53,82.47 29.96,27.32667 57.82333,53.46333 83.59,78.41 27.06667,26.2 52.97667,54.29333 77.73,84.28 27.00667,32.72667 49.86,68.08667 68.56,106.08 2.64667,5.37333 5.46667,11.41333 8.46,18.12 15.04667,33.64667 28.08,68.07333 39.1,103.28 5.43333,17.37333 10.73333,34.78667 15.9,52.24 7.32,24.73333 14.78667,49.42333 22.4,74.07 8.07333,26.11333 17.00667,51.93 26.8,77.45 11.14,29.04 24.36333,57.09333 39.67,84.16 14.12,24.9732 30.30667,48.5232 48.56,70.6499 18.79333,22.78 38.93333,44.3033 60.42,64.57 18.55333,17.5133 37.60333,34.4633 57.15,50.85 20.45333,17.16 41.03,34.17 61.73,51.03 15.18,12.3733 30.24333,24.8867 45.19,37.54 17.88667,15.1467 35.35333,30.7667 52.4,46.86 22.21333,20.9733 42.97667,43.2767 62.29011,66.91 4.3467,5.32 8.4467,10.5733 12.3,15.76 34.1,45.9067 60.84,95.8567 80.22,149.85 12.22,34.0467 21.8433,68.8133 28.87,104.3 8.8533,44.7733 14.4267,90.1867 16.72,136.24 0.017,0.277 -0.1983,0.5109 -0.47,0.51 L 0,1782.5499"
         id="path2"
         style="fill:#455964;fill-opacity:1;stroke:none;stroke-width:0;stroke-miterlimit:4;stroke-dasharray:none;stroke-opacity:0"
         sodipodi:nodetypes="ccccccccccccccccccccccccccc" />
    </g>
  </g>
</svg>
