<svg xmlns="http://www.w3.org/2000/svg" width="2500" height="1261.966" viewBox="0 0 661.458 333.895"><defs><clipPath id="a"><path d="M1212.86 2041.06c7.045-4.749 16.52-10.354 25.682-16.241 7.494-4.814 15.151-9.58 22.086-13.622 27.352-15.964 83.295-42.607 129.864-69.181 20.133-11.488 38.492-22.941 51.852-33.498 20.751-16.412 41.614-35.311 57.66-56.962 10.625-14.337 19.137-29.875 23.974-46.713 5.237-18.235 6.471-41.945 5.805-66.551-1.009-37.26-6.456-76.534-9.911-102.815-2.52-19.078-6.208-38.724-12.763-57.05-4.313-12.059-9.867-23.545-17.188-33.878-10.466-14.743-26.654-30.984-43.994-46.035-17.436-15.134-36.051-29.052-51.348-39.051-10.334-6.744-21.577-12.112-33.187-16.692-17.942-7.077-36.756-12.28-54.583-17.605-17.381-5.18-35.058-11.905-52.913-15.78-11.468-2.489-23.008-3.786-34.588-2.517-13.744 1.518-28.59 5.696-43.876 11.315-21.056 7.741-42.899 18.227-63.85 28.61-9.335 4.626-21.156 11.158-33.785 18.433-16.54 9.528-34.449 20.327-50.02 29.848-7.247 4.435-13.898 8.854-20.159 13.204-17.178 11.934-31.504 23.356-47.055 33.255-51.579 32.837-80.47 69.156-82.084 112.604-1.309 35.254 32.035 105.441 67.119 150.705a38.958 38.958 0 0 1 5.378-6.543c29.982-28.863 103.579-90.364 183.294-139.028 80.659-49.241 146.521-94.28 186.549-103.375a35.157 35.157 0 0 1 3.218-.578c-1.276-7.983 10.008-11.118 11.128-1.886 4.836 1.416 17.97 9.587 22.917 12.31 20.832 11.466 22.453 14.207 36.497 36.939 9.657 15.63 14.437 26.294 15.14 38.867.824 14.762 3.375 13.571-10.946 17.723-36.341 10.633-106.424 48.445-182.698 99.432-13.833 9.246-39.131 24.418-52.443 33.92 49.189 5.377 107.188 32.589 146.839 56.963.519.318.994.681 1.424 1.079 0 0 9.12-.493.056 15.1-5.618 9.667-12.129 18.824-19.319 25.902-12.332 12.041-34.005 25.955-57.802 40.929-19.154 12.053-39.593 24.909-57.379 38.152-16.986 12.647-31.595 25.473-39.135 39.039-9.332 16.497-12.094 37.119-11.821 58.155.418 32.289 12.367 91.662 18.029 114.348 10.928-4.216 22.949-6.61 35.585-6.748 9.013.1 17.713 1.347 25.927 3.585-1.145-8.909-6.236-43.869-6.746-52.799-.751-13.13-.75-26.262-.233-39.392.248-6.291.587-12.566 1.208-18.841.414-4.185.918-8.328 1.579-12.489 1.24-7.81 5.398-10.76 11.016-14.547z"/></clipPath></defs><path d="M-205.421 434.903c.675 6.458 1.012 12.439 1.012 17.943 0 4.363-.267 7.959-.803 10.787-.349 1.28-.756 2.292-1.222 3.037-2.07 3.13-5.567 4.695-10.49 4.695-2.78 0-5.893-.57-9.337-1.71h-.088l1.658-5.708c3.177.966 5.516 1.448 7.017 1.448h1.24c2.64 0 4.351-.744 5.13-2.234.245-.349.449-1.449.612-3.298-2.071.767-4.032 1.152-5.882 1.152h-.035c-3.875 0-6.935-1.7-9.181-5.097-1.548-2.584-2.322-5.54-2.322-8.867 0-3.153.629-5.743 1.885-7.767 1.804-2.595 4.556-3.893 8.256-3.893 1.885 0 4.12.39 6.703 1.17 0-.07-.03-.43-.088-1.082 3.212-.326 5.19-.518 5.935-.576zm-16.721 12.235c0 2.944.791 5.213 2.373 6.807.896.757 1.979 1.135 3.247 1.135 1.431 0 3.24-.495 5.428-1.484.489-.22.74-.366.75-.436v-1.676c0-.023-.01-.035-.034-.035 0-.034.011-.052.035-.052a2.83 2.83 0 0 1-.035-.349c0-2.083-.105-4.718-.314-7.907-2.863-1.198-5.318-1.798-7.366-1.798s-3.235.675-3.56 2.025c-.35 1.06-.524 2.316-.524 3.77zm250.615-10.074h.035c7.855 0 12.916 1.816 15.185 5.446.699 1.187 1.048 2.618 1.048 4.294v.052c0 4.818-1.751 8.623-5.254 11.415-2.595 1.874-5.812 2.81-9.652 2.81h-.873l-.227-.034-.035.087v10.246h-6.126v-33.95c2.164-.243 4.13-.366 5.9-.366zm.262 6.127-.035.087v11.555c0 .058.03.087.088.087h1.256c3.991 0 6.61-1.437 7.855-4.311.477-1.28.715-2.502.715-3.666 0-.942-.238-1.547-.715-1.815-.547-.43-1.38-.82-2.496-1.17-2.28-.511-4.503-.767-6.668-.767z" style="clip-rule:evenodd;fill:#f9afaa;fill-rule:nonzero;stroke-width:.264583;stroke-linejoin:round;stroke-miterlimit:2" transform="translate(374.574 -145.26)"/><g style="clip-rule:evenodd;fill-rule:evenodd;stroke-linejoin:round;stroke-miterlimit:2"><path d="M820.857 2421.52h.528c41.56 0 69.597 11.742 84.11 35.227 5.454 9.808 8.181 20.649 8.181 32.523 0 22.254-9.83 39.208-29.489 50.862-15.129 8.18-34.633 12.27-58.514 12.27h-.198c-13.458 0-26.937-1.363-40.439-4.09 0-.483 1.297-8.708 3.892-24.672l9.829 1.451v-.198l-5.211-76.128-7.982 1.319c-.616-3.254-1.914-11.544-3.893-24.87 13.502-2.463 26.564-3.694 39.186-3.694zm-2.243 25.068v.132l5.607 80.614c25.553 0 43.738-4.706 54.557-14.117 6.421-5.761 9.631-13.876 9.631-24.343 0-18.999-10.379-31.555-31.137-37.668-10.335-3.079-23.221-4.618-38.658-4.618zm139.955 7.652c8.752 0 18.207 2.925 28.367 8.774 3.21 1.672 4.815 2.573 4.815 2.705l-10.093 19.065c-10.115-5.761-17.064-8.642-20.846-8.642 0-.088-.682-.132-2.045-.132h-1.781c-2.375 0-5.036.594-7.983 1.781v73.16h-21.638v-84.374c8.489-8.224 18.89-12.337 31.204-12.337zm76.561.66h.33c13.15 0 21.924 4.684 26.322 14.052 1.407 3.034 2.111 6.75 2.111 11.148 0 22.958.66 46.311 1.979 70.06l-.528.197c-4.574.176-10.797.506-18.669.99-.264-4.53-.396-7.433-.396-8.708h-.33c-9.807 7.213-18.999 10.819-27.575 10.819h-1.385c-7.785 0-14.667-3.32-20.649-9.961-4.837-6.289-7.256-13.502-7.256-21.638v-.528c0-6.905 1.847-13.788 5.541-20.648 5.498-8.136 15.173-12.205 29.027-12.205h1.385c5.717 0 12.27.66 19.659 1.98v-3.695c0-.088-.044-.132-.132-.132 0-.088.044-.132.132-.132-.088-1.583-.132-2.77-.132-3.562v-4.024c0-1.891-.726-3.123-2.177-3.694-2.155-.748-4.618-1.122-7.389-1.122-7.916 0-18.625 2.617-32.127 7.85h-.263c-.308-1.055-2.441-6.992-6.399-17.811v-.264c15.172-5.981 28.146-8.972 38.921-8.972zm-26.849 66.695c0 5.146 1.715 8.994 5.145 11.545 1.32.747 2.969 1.121 4.948 1.121 5.454 0 12.666-3.848 21.638-11.545 3.211-3.034 4.904-4.551 5.08-4.551-.044-5.278-.132-7.917-.264-7.917-7.697-1.715-14.513-2.573-20.451-2.573-7.168 0-11.676 1.188-13.523 3.563-1.716 3.87-2.573 7.322-2.573 10.357zm177.229-65.905 19.659 5.277c-15.217 56.294-24.035 89.081-26.454 98.36h-27.839l-14.843-56.139c-.22 0-.879 1.825-1.979 5.475l-14.843 44.331h-26.585l-9.368-46.31c-.528-1.979-3.716-17.46-9.565-46.442h.132c12.929-2.727 19.592-4.09 19.988-4.09v.132c8.664 42.44 13.216 64.781 13.656 67.024h.132l16.492-49.938h25.266c0 .351 3.826 14.931 11.479 43.737l3.958 14.513h.132c0-.352 6.817-25.662 20.45-75.93zm43.31 71.77c9.412 4.09 14.25 6.245 14.513 6.465a4252.124 4252.124 0 0 0-12.27 28.103h-.132c-2.067-.792-6.949-2.903-14.645-6.333l12.402-28.235zm181.58-117.55c5.541 0 10.203 2.771 13.986 8.312 1.319 2.727 1.979 5.256 1.979 7.587v.923c0 6.289-3.365 11.193-10.094 14.711-2.023.704-3.98 1.056-5.871 1.056h-.858c-5.981 0-10.708-3.079-14.183-9.236-1.055-2.419-1.583-4.705-1.583-6.86 0-7.037 3.54-12.183 10.621-15.437a17.796 17.796 0 0 1 6.003-1.056zm11.347 45.783c.088.659.132 1.033.132 1.121l3.034 89.916-.659.198c-1.716 0-8.598.286-20.649.858l-.132-.33-3.034-90.642c.088 0 .308-.066.659-.198 1.76 0 8.642-.307 20.649-.923zm72.933-42.883c7.037 0 16.47 1.539 28.301 4.618l-5.542 23.287c-9.807-2.595-17.504-3.892-23.089-3.892-8.708 0-14.183 2.177-16.426 6.531-.836 2.462-1.254 4.771-1.254 6.926l.528 11.677 28.235-.528c.264 9.324.396 17.196.396 23.617.088 0 .132.066.132.198-.22.132-.396.198-.528.198-1.495 0-9.786.11-24.87.33 0 .132-.066.198-.198.198v-.198l-.33.198h-1.583a15350.72 15350.72 0 0 1 2.968 66.628c-13.765.572-21.77.858-24.013.858v-.198c-1.055-27.047-2.067-49.367-3.034-66.959l-1.188.198c-2.55 0-8.576.066-18.075.198v-8.312l-.132-.396h.132c-.088-.22-.132-.395-.132-.527 0-2.683-.066-7.565-.198-14.646 1.935-.131 3.408-.197 4.42-.197h5.475l.33-.132v.132l.396-.132h7.784c-.264-6.817-.439-10.775-.527-11.875 0-14.249 5.651-24.848 16.954-31.797 6.86-4.002 15.217-6.003 25.068-6.003zm36.71 25.27h.132l21.308.792-.792 17.811h28.697v21.308h-29.488c-.836 21.946-1.408 35.206-1.715 39.78 0 7.652 3.562 12.446 10.687 14.381 3.342.616 6.245.924 8.707.924 2.419 0 8.005-.484 16.757-1.452 1.363 13.458 2.045 20.561 2.045 21.308h-.198c-8.048.968-13.942 1.452-17.68 1.452h-1.847c-18.208-.352-30.368-7.235-36.481-20.649-2.199-4.618-3.298-9.829-3.298-15.634v-1.122c.219-3.21.747-16.206 1.583-38.988h-11.215v-21.308h12.138zm110.83-20.06h23.947v42.155h.131c8.313-2.947 16.229-4.42 23.749-4.42h.396c15.481 0 26.52 6.905 33.117 20.714 2.946 6.377 4.42 17.548 4.42 33.512 0 19.395-7.037 32.457-21.111 39.186-6.508 2.815-14.007 4.222-22.495 4.222h-.528c-5.277 0-12.006-.594-20.186-1.781h-21.44zm23.947 109.509c7.432 1.276 13.391 1.913 17.877 1.913 9.104 0 14.887-2.067 17.35-6.201 1.671-2.946 2.507-7.3 2.507-13.062 0-14.513-1.122-23.133-3.365-25.86-1.891-3.078-5.453-4.617-10.687-4.617-6.157 0-14.051 2.111-23.682 6.333zm73.453-72.629c6.861.396 13.788.77 20.781 1.122 0 .088.044.132.132.132-.396 6.245-.638 11.544-.726 15.898 0 18.735 2.793 34.216 8.378 46.442 3.518 6.817 7.806 11.083 12.864 12.798 2.375.616 4.596.924 6.663.924 4.794 0 8.18-2.815 10.159-8.444 2.727-6.553 4.09-15.613 4.09-27.179 0-9.94-1.099-21.088-3.298-33.447.44 0 7.41-1.077 20.912-3.232 2.331 13.018 3.496 24.826 3.496 35.425v2.837c-.176 27.135-7.168 44.419-20.978 51.852-4.134 2.199-8.708 3.298-13.721 3.298h-2.507c-9.896 0-18.955-3.958-27.179-11.874-7.037-7.433-12.249-17.592-15.635-30.478-2.903-11.875-4.354-24.848-4.354-38.922v-.594c0-2.199.198-7.674.594-16.426zm106.58-16.82h.132l21.308.792-.792 17.811h28.697v21.308h-29.488c-.836 21.946-1.408 35.206-1.716 39.78 0 7.652 3.563 12.446 10.687 14.381 3.343.616 6.245.924 8.708.924 2.419 0 8.004-.484 16.756-1.452 1.364 13.458 2.045 20.561 2.045 21.308h-.197c-8.049.968-13.942 1.452-17.68 1.452h-1.847c-18.208-.352-30.368-7.235-36.481-20.649-2.199-4.618-3.299-9.829-3.299-15.634v-1.122c.22-3.21.748-16.206 1.584-38.988h-11.215v-21.308h12.138zm111.42-3.83h21.77v51.324c35.052-26.344 52.841-39.67 53.369-39.977h.198c8.532 11.258 12.798 17.02 12.798 17.283v.132c-.704.396-14.843 10.951-42.418 31.666.967 1.407 10.291 13.083 27.971 35.029l6.927 8.774c-.132 0-5.784 4.486-16.955 13.458-23.485-29.423-35.271-44.134-35.359-44.134-4.31 3.123-6.487 4.772-6.531 4.948v37.273h-21.77z" style="fill:#f9afaa;fill-rule:nonzero" transform="translate(-195.609 -360.11) scale(.26458)"/><path d="M2087.95 2458.13h.989c11.875 0 22.166 4.354 30.874 13.062 0 .219.703 1.099 2.111 2.638 4.573 6.465 6.86 12.139 6.86 17.02v1.584c0 6.816-3.98 12.71-11.94 17.679-9.016 4.574-20.934 6.861-35.755 6.861h-2.969c-5.014 0-10.467-.33-16.36-.989 2.375 5.013 7.234 8.993 14.579 11.94 5.19 1.847 10.027 2.771 14.513 2.771h2.639c7.52 0 14.711-2.397 21.572-7.191.835-.396 2.529-1.385 5.079-2.969h.132c0 .176 3.717 6.509 11.149 19v.131c-10.731 6.641-18.537 10.402-23.419 11.281a65.552 65.552 0 0 1-15.964 1.979c-15.129 0-28.433-4.64-39.912-13.919-9.367-8.488-14.051-18.45-14.051-29.884 0-12.051 3.98-23.221 11.94-33.513 10.643-11.654 23.287-17.481 37.933-17.481zm-23.749 35.821c5.233.616 10.423.923 15.568.923 11.479 0 20.297-1.407 26.454-4.222-1.495-3.606-4.222-6.377-8.18-8.312-3.167-1.451-6.531-2.177-10.093-2.177-7.917 0-14.887 3.233-20.913 9.698-.703.879-1.649 2.243-2.836 4.09zm121.879-35.821h.989c11.875 0 22.166 4.354 30.874 13.062 0 .219.704 1.099 2.111 2.638 4.574 6.465 6.861 12.139 6.861 17.02v1.584c0 6.816-3.98 12.71-11.941 17.679-9.015 4.574-20.934 6.861-35.755 6.861h-2.969c-5.013 0-10.467-.33-16.36-.989 2.375 5.013 7.235 8.993 14.579 11.94 5.19 1.847 10.028 2.771 14.514 2.771h2.638c7.521 0 14.711-2.397 21.572-7.191.836-.396 2.529-1.385 5.08-2.969h.132c0 .176 3.716 6.509 11.149 19v.131c-10.731 6.641-18.538 10.402-23.42 11.281a65.552 65.552 0 0 1-15.964 1.979c-15.129 0-28.433-4.64-39.911-13.919-9.368-8.488-14.052-18.45-14.052-29.884 0-12.051 3.98-23.221 11.941-33.513 10.643-11.654 23.287-17.481 37.932-17.481zm-23.749 35.821c5.234.616 10.423.923 15.569.923 11.478 0 20.296-1.407 26.453-4.222-1.495-3.606-4.222-6.377-8.18-8.312-3.166-1.451-6.531-2.177-10.093-2.177-7.916 0-14.887 3.233-20.912 9.698-.704.879-1.65 2.243-2.837 4.09zm228.349-84.041c5.541 0 10.203 2.771 13.985 8.312 1.32 2.727 1.979 5.256 1.979 7.587v.923c0 6.289-3.364 11.193-10.093 14.711-2.023.704-3.98 1.056-5.871 1.056h-.858c-5.981 0-10.709-3.079-14.183-9.236-1.055-2.419-1.583-4.705-1.583-6.86 0-7.037 3.54-12.183 10.621-15.437a17.796 17.796 0 0 1 6.003-1.056zm11.347 45.783c.088.659.132 1.033.132 1.121l3.034 89.916-.66.198c-1.715 0-8.597.286-20.648.858l-.132-.33-3.034-90.642c.088 0 .307-.066.659-.198 1.76 0 8.642-.307 20.649-.923zm29.003-17.613h.132l21.308.792-.791 17.811h28.696v21.308h-29.488c-.836 21.946-1.407 35.206-1.715 39.78 0 7.652 3.562 12.446 10.687 14.381 3.342.616 6.245.924 8.708.924 2.419 0 8.004-.484 16.756-1.452 1.363 13.458 2.045 20.561 2.045 21.308h-.198c-8.048.968-13.941 1.452-17.68 1.452h-1.847c-18.207-.352-30.368-7.235-36.481-20.649-2.199-4.618-3.298-9.829-3.298-15.634v-1.122c.22-3.21.748-16.206 1.583-38.988h-11.215v-21.308h12.139zm154.5 16.82h.329c13.15 0 21.924 4.684 26.322 14.052 1.407 3.034 2.111 6.75 2.111 11.148 0 22.958.66 46.311 1.979 70.06l-.528.197c-4.573.176-10.796.506-18.669.99-.264-4.53-.396-7.433-.396-8.708h-.329c-9.808 7.213-19 10.819-27.576 10.819h-1.385c-7.784 0-14.667-3.32-20.648-9.961-4.838-6.289-7.257-13.502-7.257-21.638v-.528c0-6.905 1.847-13.788 5.542-20.648 5.497-8.136 15.173-12.205 29.026-12.205h1.385c5.718 0 12.271.66 19.659 1.98v-3.695c0-.088-.044-.132-.132-.132 0-.088.044-.132.132-.132-.088-1.583-.132-2.77-.132-3.562v-4.024c0-1.891-.725-3.123-2.177-3.694-2.155-.748-4.618-1.122-7.388-1.122-7.917 0-18.626 2.617-32.127 7.85h-.264c-.308-1.055-2.441-6.992-6.399-17.811v-.264c15.173-5.981 28.147-8.972 38.922-8.972zm-26.85 66.695c0 5.146 1.715 8.994 5.146 11.545 1.319.747 2.968 1.121 4.947 1.121 5.454 0 12.667-3.848 21.638-11.545 3.211-3.034 4.904-4.551 5.08-4.551-.044-5.278-.132-7.917-.264-7.917-7.696-1.715-14.513-2.573-20.45-2.573-7.169 0-11.677 1.188-13.524 3.563-1.715 3.87-2.573 7.322-2.573 10.357zm166.97-63.795h1.979c11.698 0 25.266 1.517 40.703 4.552-.44 3.43-1.694 10.621-3.761 21.572-15.304-2.815-28.058-4.222-38.262-4.222-8.708 0-15.085 1.011-19.131 3.034v.33c0 5.541 4.002 9.126 12.007 10.753 4.837.967 15.634 1.451 32.39 1.451 5.894.616 9.632 1.254 11.215 1.913 2.375.528 5.3 2.529 8.774 6.004 2.155 2.814 3.233 6.992 3.233 12.534 0 7.256-2.221 14.161-6.663 20.714-2.771 3.87-6.179 7.169-10.225 9.895-9.236 5.85-19.879 8.774-31.93 8.774-12.182 0-25.969-3.298-41.362-9.895l7.652-20.451h.132c7.653 3.079 14.096 5.256 19.329 6.531a58.003 58.003 0 0 0 14.249 1.782c12.139 0 20.517-3.585 25.135-10.753.967-2.023 1.451-3.629 1.451-4.816-1.979-.22-10.687-.44-26.124-.66-6.421-.66-11.214-1.363-14.381-2.111-9.5-2.595-16.536-7.037-21.11-13.326-3.914-5.849-5.871-12.27-5.871-19.263v-.527c0-6.465 3.1-12.029 9.301-16.691 6.729-4.749 17.152-7.124 31.27-7.124zm107.3.33h.989c11.875 0 22.166 4.354 30.874 13.062 0 .219.703 1.099 2.111 2.638 4.574 6.465 6.861 12.139 6.861 17.02v1.584c0 6.816-3.981 12.71-11.941 17.679-9.016 4.574-20.934 6.861-35.755 6.861h-2.969c-5.013 0-10.467-.33-16.36-.989 2.375 5.013 7.235 8.993 14.579 11.94 5.19 1.847 10.027 2.771 14.513 2.771h2.639c7.521 0 14.711-2.397 21.572-7.191.836-.396 2.529-1.385 5.08-2.969h.132c0 .176 3.716 6.509 11.148 19v.131c-10.731 6.641-18.537 10.402-23.419 11.281a65.552 65.552 0 0 1-15.964 1.979c-15.129 0-28.433-4.64-39.912-13.919-9.367-8.488-14.051-18.45-14.051-29.884 0-12.051 3.98-23.221 11.94-33.513 10.643-11.654 23.288-17.481 37.933-17.481zm-23.749 35.821a133.08 133.08 0 0 0 15.569.923c11.478 0 20.296-1.407 26.453-4.222-1.495-3.606-4.222-6.377-8.18-8.312-3.167-1.451-6.531-2.177-10.093-2.177-7.917 0-14.887 3.233-20.913 9.698-.703.879-1.649 2.243-2.836 4.09zm112.709-38.261c9.368 0 19.549 2.155 30.544 6.465.528.308 3.452 1.561 8.774 3.76l-8.774 20.714c-7.301-3.474-13.744-5.849-19.329-7.124-3.914-.88-7.322-1.32-10.225-1.32h-1.979c-6.861 0-11.061 2.419-12.6 7.257-1.32 4.178-1.979 8.972-1.979 14.381 0 9.895 2.375 17.9 7.124 24.013 3.651 3.958 7.939 5.937 12.864 5.937h1.847c7.345 0 17.548-3.694 30.61-11.083.176 0 .77-.264 1.781-.791 6.729 13.106 10.093 19.768 10.093 19.988-10.73 5.718-18.823 9.412-24.276 11.083-6.641 2.199-12.996 3.299-19.065 3.299-16.273 0-28.609-7.719-37.009-23.156-4.31-9.015-6.465-18.889-6.465-29.62 0-9.807 1.759-18.559 5.278-26.255 1.407-2.287 2.726-4.222 3.958-5.806 6.905-7.828 16.514-11.742 28.828-11.742zm87.51-1.45c8.752 0 18.207 2.925 28.366 8.774 3.211 1.672 4.816 2.573 4.816 2.705l-10.093 19.065c-10.115-5.761-17.064-8.642-20.846-8.642 0-.088-.682-.132-2.045-.132h-1.782c-2.374 0-5.035.594-7.982 1.781v73.16h-21.638v-84.374c8.488-8.224 18.889-12.337 31.204-12.337zm77.22 3.89h.989c11.875 0 22.166 4.354 30.874 13.062 0 .219.704 1.099 2.111 2.638 4.574 6.465 6.861 12.139 6.861 17.02v1.584c0 6.816-3.98 12.71-11.941 17.679-9.016 4.574-20.934 6.861-35.755 6.861h-2.969c-5.013 0-10.467-.33-16.36-.989 2.375 5.013 7.235 8.993 14.579 11.94 5.19 1.847 10.028 2.771 14.513 2.771h2.639c7.521 0 14.711-2.397 21.572-7.191.836-.396 2.529-1.385 5.08-2.969h.132c0 .176 3.716 6.509 11.148 19v.131c-10.731 6.641-18.537 10.402-23.419 11.281a65.552 65.552 0 0 1-15.964 1.979c-15.129 0-28.433-4.64-39.911-13.919-9.368-8.488-14.052-18.45-14.052-29.884 0-12.051 3.98-23.221 11.941-33.513 10.643-11.654 23.287-17.481 37.932-17.481zm-23.749 35.821a133.08 133.08 0 0 0 15.569.923c11.478 0 20.296-1.407 26.453-4.222-1.495-3.606-4.222-6.377-8.18-8.312-3.166-1.451-6.531-2.177-10.093-2.177-7.917 0-14.887 3.233-20.912 9.698-.704.879-1.65 2.243-2.837 4.09zm84.869-55.871h.132l21.308.792-.791 17.811h28.696v21.308h-29.488c-.835 21.946-1.407 35.206-1.715 39.78 0 7.652 3.562 12.446 10.687 14.381 3.342.616 6.245.924 8.708.924 2.419 0 8.004-.484 16.756-1.452 1.363 13.458 2.045 20.561 2.045 21.308h-.198c-8.048.968-13.941 1.452-17.68 1.452h-1.847c-18.207-.352-30.367-7.235-36.481-20.649-2.199-4.618-3.298-9.829-3.298-15.634v-1.122c.22-3.21.748-16.206 1.583-38.988h-11.215v-21.308h12.139z" style="fill:#f9afaa;fill-rule:nonzero" transform="translate(-195.609 -360.11) scale(.26458)"/></g><path d="M171.965 178.78c-.297.287-6.323 6.333-6.583 6.583-.822.794-1.387 1.915-1.386 3.327l.046 136.08c0 2.696 1.797 4.557 4.489 4.655l43.006 1.567c1.411.052 2.552-.473 3.375-1.267.297-.287 6.324-6.332 6.583-6.583.822-.793 1.387-1.915 1.387-3.326l-.007-18.948c0-2.696-1.797-4.557-4.49-4.655l-17.875-.651-.006-23.537 5.852.213c1.412.051 2.553-.474 3.376-1.268a4.52 4.52 0 0 0 .775-.985 4.582 4.582 0 0 0 1.645-1.645c.321-.187.612-.411.871-.661a4.52 4.52 0 0 0 .775-.985 4.582 4.582 0 0 0 1.645-1.646c.321-.187.612-.41.871-.66.822-.794 1.387-1.915 1.387-3.327l-.006-18.948c0-2.695-1.797-4.556-4.489-4.654l-12.715-.464-.008-23.537 9.294.339c1.412.051 2.553-.474 3.376-1.268.297-.286 3.851-3.906 4.066-4.276.055-.032.108-.065.161-.099l.005 1.69c.008 2.645 1.773 4.507 4.407 4.662l9.35.548.326 178.283c.008 2.646 1.772 4.509 4.407 4.663l20.621 1.21c1.437.084 2.597-.434 3.433-1.227.308-.292 6.33-6.344 6.583-6.582.833-.79 1.413-1.917 1.41-3.355l-.314-170.852 2.3.135c1.437.084 2.597-.435 3.433-1.227.308-.292 6.33-6.344 6.582-6.582.834-.79 1.414-1.918 1.41-3.356l-.054-18.97c-.007-2.645-1.772-4.507-4.407-4.662l-48.116-2.822c-1.437-.085-2.597.434-3.433 1.226-.308.293-3.04 3.053-3.29 3.292a4.47 4.47 0 0 0-.805 1.013 4.454 4.454 0 0 0-.111.067v-1.636c0-2.695-1.798-4.556-4.49-4.654l-41.285-1.505c-1.412-.051-2.553.473-3.376 1.268zm-266.8 9.023c-.586.508-4.425 4.348-4.938 4.937-5.994 5.2-8.075 14.703-7.989 27.83l.124 50.13c.053 7.93 1.63 13.539 4.561 17.846 2.95 4.336 7.322 7.42 13.328 10.028l13.818 6.11c1.69.708 1.2 2.395 1.206 3.263l.067 20.744-.023-.004a4.965 4.965 0 0 0-1.108-.059l-20.622 1.192c-.511.03-1.02.125-1.501.299a4.353 4.353 0 0 0-1.757 1.165 4.26 4.26 0 0 0-.554.777l-.004.007c-.7.389-1.262.95-1.646 1.645l-.008.005a4.29 4.29 0 0 0-.915.686 4.2 4.2 0 0 0-.718.948l-.004.007a4.19 4.19 0 0 0-1.646 1.646c-1.402.779-2.244 2.247-2.231 4.093l.185 27.75c.051 7.797.82 14.237 2.708 19.033 1.48 3.76 3.643 6.611 6.56 8.535 3.048 2.012 6.984 3.045 12.083 2.75l20.622-1.19c6.398-.37 11-2.475 14.207-6.161.585-.508 6.02-5.946 6.503-6.493.298-.338.583-.688.855-1.049 1.74-2.311 2.9-5.01 3.697-7.778.127-.44.245-.883.355-1.328.141-.575.27-1.153.386-1.734.152-.757.283-1.519.398-2.283.15-.999.27-2.001.369-3.006.13-1.348.22-2.7.278-4.053a97.046 97.046 0 0 0 .084-5.044l-.17-59.533c0-.367-.008-.734-.018-1.1a52.46 52.46 0 0 0-.1-2.196 46.198 46.198 0 0 0-.126-1.504c-.338-3.38-1.075-6.753-2.508-9.848a22.743 22.743 0 0 0-.896-1.736 22.017 22.017 0 0 0-1.668-2.504 23.072 23.072 0 0 0-3.175-3.349 29.186 29.186 0 0 0-3.948-2.853 41.253 41.253 0 0 0-3.67-1.974 52.76 52.76 0 0 0-1.152-.533c-.21-.094-.419-.185-.628-.277l-13.818-6.11c-.063-.029-.126-.056-.188-.088a2.205 2.205 0 0 1-.363-.231 1.833 1.833 0 0 1-.263-.256 1.866 1.866 0 0 1-.376-.766 3.016 3.016 0 0 1-.077-.666 7.587 7.587 0 0 1 .03-.693c.014-.187.032-.375.031-.563l-.048-18.232c.35.06.72.082 1.112.06l20.622-1.191c1.737-.101 3.091-.937 3.816-2.249.701-.389 4.553-4.242 4.937-4.936 1.402-.78 2.244-2.248 2.232-4.094l-.14-20.855c-.052-7.798-.82-14.238-2.708-19.033-1.48-3.761-3.643-6.612-6.56-8.536-3.048-2.01-6.983-3.045-12.083-2.75l-20.622 1.191c-6.398.37-11 2.475-14.206 6.161zM80.052 330.985c-.274.274-7.052 7.113-7.233 7.427l-.003-4.492a3.975 3.975 0 0 0-1.2-2.886 3.977 3.977 0 0 0-2.9-1.163l-7.54.089c-1.207.014-2.212.43-2.914 1.144-.739-.72-1.73-1.09-2.884-1.075l-6.96.082c-1.665.02-2.947.804-3.578 2.082-.724.358-4.58 4.214-4.936 4.937-1.295.64-2.08 1.941-2.078 3.625l.012 17.315-1.113-23.72v.005c-.024-1.568-.725-2.433-1.422-3.018-.67-.563-1.565-.962-2.723-.934l-14.61.357c-1.1.027-1.953.428-2.6.994-.338.297-6.365 6.393-6.581 6.583-.667.584-1.316 1.427-1.364 2.904l-1.498 23.274.006-.964c.022-3.288-.674-5.611-1.867-7.425a9.925 9.925 0 0 0-.483-.67 3.71 3.71 0 0 0 .344-.56c1.287-.645 2.075-1.937 2.086-3.592l.045-7.023c.037-5.701-1.382-9.566-4.078-11.417-1.399-.96-3.198-1.533-5.559-1.448l-6.955.253c-2.298.084-4.055.75-5.43 1.783-.583.44-6.04 5.905-6.498 6.52l-.084.063c-2.664 2.005-4.018 5.872-4.054 11.453l-.041 6.27c-.022 3.287.674 5.61 1.867 7.424.152.23.313.454.483.67-.13.175-.245.362-.344.56-1.287.646-2.075 1.938-2.086 3.593l-.06 9.345c-.038 5.7 1.382 9.565 4.078 11.416 1.399.96 3.198 1.534 5.56 1.448l6.954-.253c2.298-.083 4.055-.75 5.43-1.783.583-.44 6.04-5.904 6.498-6.52l.083-.062c1.458-1.097 2.523-2.75 3.195-4.936l-.547 8.506v.105c-.015 1.65.706 2.546 1.421 3.147.67.563 1.566.962 2.724.934l6.957-.17c1.1-.027 1.952-.428 2.6-.995.092-.08.183-.167.273-.259.067.063.134.122.201.179.67.562 1.566.961 2.723.933l6.957-.17c1.101-.026 1.953-.428 2.6-.994.339-.297 6.366-6.393 6.582-6.583.118-.103.235-.214.349-.335l.003 3.614c0 1.214.49 2.187 1.2 2.886a3.979 3.979 0 0 0 2.9 1.164l6.959-.083c1.459-.017 2.623-.62 3.312-1.63.762 1.033 1.911 1.568 3.299 1.552l6.726-.08c1.666-.02 2.948-.804 3.579-2.082.724-.358 4.58-4.214 4.936-4.937 1.296-.64 2.08-1.941 2.078-3.625l-.022-30.87c.18.306.397.582.64.826a3.983 3.983 0 0 0 2.873 1.183h.584l-.01 35.38a3.98 3.98 0 0 0 1.183 2.873c.7.701 1.67 1.183 2.872 1.184l6.96.003a3.986 3.986 0 0 0 2.873-1.182l6.582-6.583a3.984 3.984 0 0 0 1.183-2.872l.008-33.113c.057-.051 3.664-3.665 3.758-3.782l-1.871 43.372-.004.105.003.104c.02 1.57.7 2.445 1.393 3.041.654.562 1.514.958 2.623.97l6.959.08c1.15.014 2.036-.391 2.7-.959.07-.06.14-.123.21-.19.087.087.176.169.266.246.653.562 1.514.957 2.622.97l6.959.08c1.15.013 2.036-.392 2.7-.96.352-.3.704-.673.966-1.173.248-.137 5.802-5.572 5.893-5.663l.042 4.032c.025 2.363 1.617 3.97 3.978 4.021l5.798.124a3.968 3.968 0 0 0 2.939-1.163c.28-.277 7.086-7.151 7.277-7.493l.005 4.945c.003 2.364 1.58 3.988 3.941 4.06l6.956.211a3.968 3.968 0 0 0 2.949-1.136c.29-.282 6.319-6.327 6.582-6.582a3.967 3.967 0 0 0 1.221-2.913l-.011-12.11c.14-.177 4.305-4.272 4.568-4.528a3.97 3.97 0 0 0 1.221-2.913l-.006-6.382c-.003-2.364-1.579-3.988-3.941-4.06l-1.86-.056v-.743c.292-.17 6.14-5.984 6.31-6.245l.147 44.325c.008 2.334 1.569 3.954 3.899 4.052l6.953.291a3.953 3.953 0 0 0 2.415-.665c.134.105.273.2.416.286a4.195 4.195 0 0 0 1.92.579l7.07.296a3.925 3.925 0 0 0 3.632-2.012c.015-.027 6.215-5.932 6.582-6.582.603-1.068.842-2.53-.072-4.027l-.003-.004c-.355-.653-.17-1.754-.172-2.282l-.05-15.094c-.007-2.106-.505-3.675-1.225-4.84.68-1.092 1.2-2.594 1.194-4.68l-.027-8.011c-.018-5.579-1.357-9.451-4.013-11.47-1.37-1.04-3.124-1.715-5.42-1.812l-12.457-.522a3.961 3.961 0 0 0-2.98 1.121c-.296.285-7.001 7.03-7.173 7.294l-.005-4.831c-.003-2.365-1.58-3.988-3.941-4.06l-13.912-.423a3.969 3.969 0 0 0-2.949 1.136c-.29.282-6.319 6.327-6.582 6.583a3.97 3.97 0 0 0-1.222 2.912l.029 29.988c-.63-1.271-1.9-2.06-3.541-2.094l-5.798-.124a3.968 3.968 0 0 0-2.939 1.163c-.28.277-6.735 6.74-6.807 6.823l-2.951-43.26v.007c-.055-1.49-.715-2.333-1.39-2.913-.654-.562-1.515-.958-2.623-.97l-14.613-.168c-1.15-.013-2.037.392-2.7.96-.352.3-7.004 6.967-7.195 7.21v-4.193a3.986 3.986 0 0 0-1.181-2.874 3.985 3.985 0 0 0-2.873-1.183l-16.238-.004a3.986 3.986 0 0 0-2.874 1.182zM36.417 180.387c-.979.719-7.094 6.81-7.607 7.401-2.935 2.545-4.96 6.148-6.18 10.777-1.18 4.474-1.62 9.99-1.575 16.402l.589 81.678a4.58 4.58 0 0 0-.714-.88c-.823-.792-1.961-1.315-3.367-1.266l-17.608.608v-24.002l5.991-.207c1.787-.062 3.178-.897 3.913-2.238.702-.387 4.554-4.239 4.937-4.937 1.394-.767 2.232-2.225 2.225-4.075l-.067-18.944c-.005-1.406-.57-2.524-1.392-3.315-.823-.792-1.961-1.315-3.367-1.267l-12.462.431-.093-24 9.54-.329c1.787-.061 3.178-.897 3.913-2.238a4.131 4.131 0 0 0 1.646-1.645 4.131 4.131 0 0 0 1.645-1.646 4.131 4.131 0 0 0 1.646-1.646c1.394-.767 2.232-2.224 2.225-4.075l-.067-18.944c-.005-1.406-.57-2.523-1.392-3.315-.823-.792-1.962-1.315-3.367-1.266l-41.288 1.427c-1.787.061-3.178.897-3.914 2.238l-4.936 4.936c-1.394.768-2.232 2.225-2.225 4.075l.48 136.054c.006 1.406.57 2.523 1.393 3.315.822.793 1.961 1.315 3.367 1.267l43.008-1.487c1.787-.061 3.178-.897 3.914-2.238.701-.386 4.553-4.238 4.936-4.936 1.395-.768 2.232-2.225 2.225-4.076l-.033-9.491c.275 1.95.64 3.762 1.105 5.424 1.435 5.128 3.852 8.958 7.39 11.445 3.035 2.133 6.948 3.323 12.021 3.262l20.655-.249c5.066-.06 8.956-1.342 11.955-3.544.979-.719 7.095-6.81 7.608-7.4 2.935-2.546 4.96-6.148 6.18-10.778 1.18-4.474 1.62-9.99 1.574-16.402l-.281-39.075c-.01-1.378-.56-2.488-1.37-3.282s-1.93-1.323-3.308-1.306l-.967.011.053-.094c.704-.383 2.91-2.59 3.29-3.292 1.396-.758 2.228-2.217 2.215-4.086l-.227-31.501c-.046-6.413-.566-11.92-1.81-16.365-1.435-5.128-3.852-8.958-7.391-11.445-3.034-2.133-6.948-3.324-12.02-3.262l-20.656.249c-5.065.06-8.956 1.342-11.954 3.544zm63.504-2.696c-.279.277-6.312 6.315-6.582 6.582-.808.801-1.355 1.92-1.349 3.311l.546 136.009c.01 2.737 1.842 4.586 4.579 4.622l20.655.276c1.391.019 2.515-.517 3.323-1.318.28-.277 4.665-4.668 4.934-4.934.407 1.467.954 2.84 1.686 3.982a5.566 5.566 0 0 0 1.908 1.824c.773.436 1.598.626 2.263.635l20.999.28a4.366 4.366 0 0 0 3.9-2.212c.698-.396 6.22-5.931 6.604-6.621.678-1.222.89-2.87-.158-4.524-1.722-2.933-1.542-8.002-1.552-10.456l-.18-44.762c-.03-7.573-3.012-11.77-6.104-13.996.28-.279.555-.578.821-.899 2.78-2.3 5.198-6.365 5.17-13.34l-.095-23.758c-.055-13.6-2.576-23.238-9.067-27.976-3.017-2.202-6.914-3.483-11.971-3.55l-37.006-.495c-1.392-.019-2.516.518-3.324 1.319zm-42.07 72.915.014 1.822.068-.037a4.059 4.059 0 0 1 1.645-1.646l.053-.095-.967.012a5.015 5.015 0 0 1-.812-.056z" style="clip-rule:evenodd;fill:#455964;fill-rule:nonzero;stroke-width:.264583;stroke-linejoin:round;stroke-miterlimit:2" transform="translate(374.574 -145.26)"/><g style="clip-rule:evenodd;fill-rule:evenodd;stroke-linejoin:round;stroke-miterlimit:2"><path d="M1910.78 1692.44c.013 1.954 1.32 3.182 3.269 3.069l77.942-4.502c1.949-.113 3.239-1.491 3.226-3.445l-.525-78.823c-.435-65.144-13.685-103.48-65.647-100.478l-77.942 4.503c-51.961 3.001-64.691 42.838-64.257 107.981l.469 189.462c.352 52.766 19.344 75.13 59.095 92.384l52.135 23.056c13.683 5.726 13.116 18.141 13.164 25.307l.803 249.105-38.971 2.252-.873-130.939c-.013-1.954-1.321-3.182-3.269-3.069l-77.942 4.502c-1.949.113-3.239 1.491-3.226 3.445l.699 104.881c.434 65.143 13.685 103.479 65.646 100.477l77.942-4.502c51.962-3.002 64.692-42.838 64.258-107.982l-.643-225.002c-.352-52.766-19.344-75.13-59.095-92.384l-52.135-23.056c-13.683-5.726-13.116-18.141-13.164-25.307l-.538-201.387-20.098-11.022 58.978-3.407zm291.1 104.36c1.951-.067 3.247-1.414 3.24-3.367l-.253-71.6c-.01-1.953-1.312-3.209-3.263-3.142l-61.77 2.135-.506-131.735-17.801-10.85 92.575-3.2c1.951-.067 3.247-1.414 3.24-3.366l-.253-71.6c-.01-1.953-1.312-3.21-3.263-3.143l-156.051 5.393c-1.951.068-3.246 1.414-3.239 3.367l1.817 514.218c.01 1.953 1.312 3.21 3.263 3.143l162.553-5.618c1.951-.067 3.247-1.414 3.24-3.367l-.253-71.6c-.01-1.953-1.312-3.209-3.263-3.142l-81.277 2.809V1810.79l-18.307-11.24zm196.29-79.7c.014 1.952 1.325 3.238 3.276 3.214l78.067-.942c1.951-.023 3.243-1.34 3.229-3.292l-.857-119.058c-.469-65.059-13.761-103.938-65.805-103.31l-78.067.942c-52.044.628-64.774 39.82-64.305 104.879l2.248 312.284c.469 65.059 13.761 103.938 65.805 103.31l78.067-.942c52.044-.628 64.774-39.82 64.305-104.879l-1.063-147.684c-.014-1.952-1.325-3.238-3.276-3.214l-78.067.941c-1.951.024-3.243 1.341-3.229 3.293l1.251 173.708-39.033.47-2.533-351.682-20.17-12.407 59.112-.713zm361.68 295.26c-7.859-13.118-7.95-35.892-7.995-46.954l-.679-169.181c-.14-35.137-21-45.826-30.763-47.258l-.052-13.014c10.403-1.162 30.528-11.304 30.387-46.441l-.36-89.796c-.261-65.069-13.428-104.285-65.472-104.98l-139.866-1.869c-1.952-.026-3.248 1.258-3.24 3.21l2.062 514.048c.01 1.952 1.314 3.271 3.266 3.297l78.065 1.043c1.952.026 3.248-1.258 3.24-3.21l-.773-217.56-19.997-13.436 58.876.521-.565 183.478c.049 12.363.141 35.138 8.65 48.265.656 1.31 2.612 2.637 3.914 2.655l79.366 1.06c1.951.026 3.245-1.909 1.936-3.878zm-132.647-310.185-.411-118.862-19.954-11.276 58.875.521.522 130.139zm333.147 99.695c1.951.072 3.251-1.183 3.25-3.136l-.024-71.615c0-1.953-1.302-3.302-3.252-3.373l-61.766-2.251-.045-131.429-19.526-12.512 94.292 3.437c1.95.071 3.25-1.184 3.249-3.137l-.024-71.615c-.001-1.953-1.301-3.302-3.252-3.373l-156.04-5.687c-1.951-.071-3.251 1.184-3.25 3.137l.174 514.322c0 1.953 1.302 3.302 3.252 3.373l162.542 5.924c1.951.071 3.251-1.184 3.25-3.137l-.024-71.614c-.001-1.953-1.302-3.303-3.252-3.374l-81.271-2.962-.036-130.343-19.535-13.597zm58.43-296.41c-1.949-.114-3.244 1.113-3.238 3.069l.205 71.701c.01 1.955 1.308 3.335 3.256 3.449l48.712 2.858 1.258 687.214c.01 1.956 1.308 3.335 3.257 3.45l77.938 4.571c1.948.115 3.243-1.113 3.238-3.068l-1.236-675.02-21.335-13.445 70.024 4.108c1.948.114 3.244-1.113 3.238-3.069l-.205-71.701c-.01-1.955-1.308-3.335-3.257-3.45z" style="fill:#e4c8b3;fill-rule:nonzero" transform="translate(-195.609 -360.11) scale(.26458)"/><path d="M2135.04 2140.74c0 .658.431 1.081 1.088 1.057l26.285-.956c.658-.024 1.098-.478 1.103-1.137l.172-26.545c.143-21.938-4.153-34.942-21.676-34.305l-26.285.956c-17.523.637-21.99 13.96-22.132 35.898l-.154 23.693c-.115 17.77 6.185 25.437 19.504 31.533l17.466 8.138c4.586 2.026 4.34 6.203 4.324 8.616l-.263 40.586-13.143.478.287-44.096c0-.658-.431-1.081-1.088-1.057l-26.285.955c-.658.024-1.099.479-1.103 1.137l-.229 35.321c-.143 21.938 4.152 34.942 21.676 34.305l26.285-.956c17.523-.637 21.989-13.96 22.132-35.898l.211-32.469c.115-17.77-6.185-25.437-19.504-31.532l-17.467-8.138c-4.585-2.027-4.339-6.203-4.323-8.616l.206-31.811 13.143-.478zm144.56-64.64c.01-.877-.429-1.086-1.086-1.07l-55.219 1.348c-.657.016-1.097.246-1.105 1.123l-11.159 173.481c-.01.877.429 1.086 1.086 1.07l26.294-.642c.658-.016 1.098-.246 1.106-1.123l2.575-43.913 15.339-.375 1.807 43.807c-.01.877.428 1.085 1.086 1.069l26.294-.641c.657-.016 1.098-.246 1.105-1.124zm-31.117 25.973 4.382-.107 3.262 77.755-12.271.299zm116.137 146.907c.657-.01 1.095-.451 1.095-1.109l-.06-82.2 4.384-.051 18.25 81.984c.22.655.659 1.088 1.316 1.08l25.424-.301c.657-.01 1.095-.451 1.095-1.109l-.125-173.168c0-.657-.439-1.091-1.096-1.083l-28.493.338c-.657.01-1.095.451-1.095 1.109l.053 73.432-4.383.052-15.176-73.253c-.22-.655-.658-1.088-1.316-1.08l-26.3.311c-.658.01-1.096.452-1.095 1.109l.125 173.168c0 .658.439 1.091 1.096 1.083zm103.82-176.21c-.657 0-1.096.438-1.096 1.095l-.01 24.111c0 .657.438 1.096 1.096 1.096h16.439l-.038 147.951c0 .657.438 1.096 1.096 1.096l26.302.01c.658 0 1.096-.438 1.096-1.096l.038-147.951 16.439.01c.657 0 1.096-.439 1.096-1.096l.01-24.111c0-.657-.438-1.096-1.095-1.096zm170.27 2.06c-.011-.877-.452-1.102-1.109-1.109l-55.232-.633c-.657-.01-1.093.206-1.082 1.083l-7.465 173.083c.011.877.452 1.101 1.109 1.109l26.301.301c.657.01 1.093-.206 1.082-1.083l1.64-43.822 15.342.176 2.743 43.872c.011.877.453 1.101 1.11 1.109l26.301.301c.657.01 1.093-.206 1.082-1.083zm-30.586 24.857 4.383.05 4.924 77.873-12.273-.141zm114.696 150.973c.658.014 1.091-.415 1.084-1.073l-.276-26.314c-.01-.658-.45-1.106-1.108-1.12l-21.913-.469c-.658-.014-1.091.416-1.084 1.073l.276 26.315c.01.658.45 1.105 1.108 1.12zm53.49-174.11c-.657-.02-1.095.405-1.094 1.063l.165 173.242c0 .658.439 1.11 1.096 1.13l26.29.8c.658.02 1.095-.405 1.095-1.063l-.07-73.464 20.813.634c.657.02 1.095-.405 1.094-1.063l-.023-24.123c0-.658-.439-1.11-1.096-1.13l-20.813-.633-.046-48.245 25.195.767c.657.02 1.095-.405 1.094-1.063l-.023-24.122c0-.658-.439-1.11-1.096-1.13zm177.89 180.6c-2.642-4.499-2.668-12.178-2.68-15.908l-.189-57.046c-.04-11.849-7.059-15.653-10.345-16.229l-.015-4.389c3.502-.292 10.28-3.517 10.24-15.366l-.1-30.278c-.073-21.941-4.497-35.289-22.016-36.024l-47.084-1.974c-.657-.027-1.093.393-1.091 1.051l.575 173.334c0 .658.442 1.115 1.099 1.143l26.279 1.101c.657.028 1.093-.392 1.091-1.051l-.258-77.89 13.139.551-.232 61.855c.014 4.169.039 11.848 2.9 16.356.221.448.879.914 1.317.932l26.718 1.121c.657.027 1.092-.613.652-1.289zm-44.582-105.855-.145-43.882 13.14.551.145 43.882z" style="fill:#f9afaa;fill-rule:nonzero" transform="translate(-195.609 -360.11) scale(.26458)"/></g><g transform="translate(-195.609 -360.11) scale(.26458)" style="clip-rule:evenodd;fill-rule:evenodd;stroke-linejoin:round;stroke-miterlimit:2"><circle cx="1194.9" cy="1885.24" style="fill:#e4c8b3" r="413.232"/><path d="M1212.86 2041.06c7.045-4.749 16.52-10.354 25.682-16.241 7.494-4.814 15.151-9.58 22.086-13.622 27.352-15.964 83.295-42.607 129.864-69.181 20.133-11.488 38.492-22.941 51.852-33.498 20.751-16.412 41.614-35.311 57.66-56.962 10.625-14.337 19.137-29.875 23.974-46.713 5.237-18.235 6.471-41.945 5.805-66.551-1.009-37.26-6.456-76.534-9.911-102.815-2.52-19.078-6.208-38.724-12.763-57.05-4.313-12.059-9.867-23.545-17.188-33.878-10.466-14.743-26.654-30.984-43.994-46.035-17.436-15.134-36.051-29.052-51.348-39.051-10.334-6.744-21.577-12.112-33.187-16.692-17.942-7.077-36.756-12.28-54.583-17.605-17.381-5.18-35.058-11.905-52.913-15.78-11.468-2.489-23.008-3.786-34.588-2.517-13.744 1.518-28.59 5.696-43.876 11.315-21.056 7.741-42.899 18.227-63.85 28.61-9.335 4.626-21.156 11.158-33.785 18.433-16.54 9.528-34.449 20.327-50.02 29.848-7.247 4.435-13.898 8.854-20.159 13.204-17.178 11.934-31.504 23.356-47.055 33.255-51.579 32.837-80.47 69.156-82.084 112.604-1.309 35.254 32.035 105.441 67.119 150.705a38.958 38.958 0 0 1 5.378-6.543c29.982-28.863 103.579-90.364 183.294-139.028 80.659-49.241 146.521-94.28 186.549-103.375a35.157 35.157 0 0 1 3.218-.578c-1.276-7.983 10.008-11.118 11.128-1.886 4.836 1.416 17.97 9.587 22.917 12.31 20.832 11.466 22.453 14.207 36.497 36.939 9.657 15.63 14.437 26.294 15.14 38.867.824 14.762 3.375 13.571-10.946 17.723-36.341 10.633-106.424 48.445-182.698 99.432-13.833 9.246-39.131 24.418-52.443 33.92 49.189 5.377 107.188 32.589 146.839 56.963.519.318.994.681 1.424 1.079 0 0 9.12-.493.056 15.1-5.618 9.667-12.129 18.824-19.319 25.902-12.332 12.041-34.005 25.955-57.802 40.929-19.154 12.053-39.593 24.909-57.379 38.152-16.986 12.647-31.595 25.473-39.135 39.039-9.332 16.497-12.094 37.119-11.821 58.155.418 32.289 12.367 91.662 18.029 114.348 10.928-4.216 22.949-6.61 35.585-6.748 9.013.1 17.713 1.347 25.927 3.585-1.145-8.909-6.236-43.869-6.746-52.799-.751-13.13-.75-26.262-.233-39.392.248-6.291.587-12.566 1.208-18.841.414-4.185.918-8.328 1.579-12.489 1.24-7.81 5.398-10.76 11.016-14.547z" style="fill:#d03133"/><g clip-path="url(#a)"><path d="M1334.88 1805.41c6.131 32.512-18.134 79.437-42.026 100.398-13.571 11.906-28.747 21.222-43.02 32.107-25.745 19.635-68.755 41.687-87.125 68.252-21.843 31.585-12.383 66.206-11.059 104.3.372 10.691 1.243 21.134 3.135 31.667.652 3.633 3.809 11.137 2.815 14.491-.42 1.419-7.643 3.703-9.206 4.342-1.484.606-6.462 3.346-8.461 2.854-15.484-3.814-23.853-29.362-26.66-42.139-.972-4.423-1.665-8.918-2.211-13.413-5.765-47.429 7.729-100.583 46.25-130.583 14.501-11.293 30.428-20.498 45.66-30.733 17.238-11.582 33.898-23.957 51.167-35.497 18.389-12.289 37.853-22.697 52.251-39.992 8.014-9.626 14.362-31.72 20.655-44.414z" style="fill:#a62729"/><path d="M1205.21 2024.74c24.573-12.921 48.788-30.446 72.1-41.319 27.409-12.783 55.319-24.16 83.656-34.701 15.733-5.852 30.558-12.437 45.179-20.546a233.242 233.242 0 0 1 14.967-7.627 135.208 135.208 0 0 1 5.443-2.406c.871-.358 2.809-1.961 2.626-1.037-5.159 26.128-34.629 35.717-54.554 48.11-27.275 16.966-54.343 34.42-83.122 48.794-25.846 12.908-64.67 29.562-89.969 43.625zm45.16-587.2c23.111 2.678 48.259.267 69.209 10.473 77.186 37.605 105.704 44.49 158.484 123.021 12.197 18.148 24.954 85.516 26.302 108.012 1.801 30.05 5.711 70.19 0 102.259-7.757 43.56-26.219 72.226-26.302 40.48-.455-172.661-191.506-37.477-205.222-25.149-2.169 1.949-1.288.787-10.289 7.737-6.394 4.938 54.416 23.863 62.587 36.131 8.801 13.213-43.633 27.323-44.785 26.518-26.346-18.415-78.785-43.551-108.26-54.932-12.227-4.721-38.67-13.112-37.802-30.893 1.35-27.628 24.185-53.607 44.913-69.431 20.157-15.387 42.525-27.593 62.796-42.841 23.305-17.533 44.143-39.025 62.389-61.773 34.736-43.305 43.988-71.351 17.193-119.657-9.689-17.466-19.471-27.237-38.22-37.681zm-291.06 123.51c-35.008 37.761-68.723 68.342-56.863 125.811 2.765 13.396 15.945 51.144 22.29 63.171 3.33 6.311 6.952 12.382 11.239 18.104.023.03.031.098.068.09 4.449-.98 19.248-16.983 23.271-20.476 19.077-16.564 25.906-18.548 46.815-32.75 6.978-4.74 14.059-9.228 21.426-13.347.278-.155.739-.162.835-.466.076-.241-8.201-3.599-9.014-3.943-6.251-2.649-39.254-8.072-60.062-44.509-10.739-18.806-.005-91.685-.005-91.685z" style="fill:#a62729"/></g><path d="M1175.93 2167.68c20.164-.224 38.615 6.503 52.33 17.821 14.527 11.989 23.794 29.042 23.978 48.091.144 19.204-8.835 36.597-23.287 48.912-13.786 11.748-32.48 18.907-53.021 18.975-20.54-.071-39.232-7.231-53.016-18.981-14.445-12.315-23.415-29.707-23.265-48.906.178-19.043 9.437-36.096 23.957-48.084 13.712-11.32 32.161-18.049 52.324-17.828zm-229.158-387.15c29.239-28.62 104.664-81.756 182.677-130.18 78.568-48.768 159.717-92.852 198.826-102.007 8.833-2.058 18.974 1.397 29.241 7.544 13.524 8.096 27.046 21.044 38.086 35.255 14.135 18.194 24.424 38.389 24.568 53.113.065 6.711-2.457 11.956-9.148 13.909-37.094 10.73-118.817 55.771-196.851 107.393-75.643 50.04-147.721 106.353-172.808 143.665-4.898 7.274-14.389 5.819-24.223 2.348-15.609-5.509-32.31-18.068-40.764-29.124-9.943-13.015-26.799-38.939-33.786-63.478-4.236-14.878-5.335-29.28 4.182-38.438z" style="fill:#fff"/><path d="M1099.65 1830.46c-42.529 21.085-52.958 54.506-79.238 54.779-24.944.259-38.017-25.091-51.556-43.356-6.4-8.633-14.302-34.279-11.458-45.502 3.577-14.121 24.942-29.651 36.705-36.75 5.173-3.121 33.9-25.479 33.878-24.509-.206 8.89-4.53 31.253-3.161 40.186 3.771 24.596 21.209 37.713 44.036 44.408zm85.37 458.48c-29.143-3.853-71.94-22.708-66.548-58.46 2.695-17.867 16.292-30.34 33.241-35.09 5.636-1.58 11.508-2.282 17.34-2.643 1.874-.117 3.749-.184 5.625-.246.951-.031 3.413-.851 2.852-.083-6.306 8.637-14.36 15.457-19.818 24.826-10.252 17.599-9.376 39.169 4.78 54.126z" style="fill:#ebebeb"/></g></svg>