<svg xmlns="http://www.w3.org/2000/svg" xmlns:svg="http://www.w3.org/2000/svg" id="svg2" version="1.0" viewBox="0 0 140.42 139.36"><defs id="defs24"><rect id="rect28" width="34.584" height="58.382" x="182.255" y="455.997"/></defs><g id="layer1" transform="translate(-129.18,-418.16)" style="display:inline"><path style="color:#000;font-style:normal;font-variant:normal;font-weight:400;font-stretch:normal;font-size:medium;line-height:normal;font-family:sans-serif;font-variant-ligatures:normal;font-variant-position:normal;font-variant-caps:normal;font-variant-numeric:normal;font-variant-alternates:normal;font-variant-east-asian:normal;font-feature-settings:normal;font-variation-settings:normal;text-indent:0;text-align:start;text-decoration:none;text-decoration-line:none;text-decoration-style:solid;text-decoration-color:#000;letter-spacing:normal;word-spacing:normal;text-transform:none;writing-mode:lr-tb;direction:ltr;text-orientation:mixed;dominant-baseline:auto;baseline-shift:baseline;text-anchor:start;white-space:normal;shape-padding:0;shape-margin:0;inline-size:0;clip-rule:nonzero;display:inline;overflow:visible;visibility:visible;isolation:auto;mix-blend-mode:normal;color-interpolation:sRGB;color-interpolation-filters:linearRGB;solid-color:#000;solid-opacity:1;vector-effect:none;fill:#000;fill-opacity:1;fill-rule:evenodd;stroke:#fff;stroke-width:1.33333337;stroke-linecap:butt;stroke-linejoin:miter;stroke-miterlimit:4;stroke-dasharray:none;stroke-dashoffset:0;stroke-opacity:.49836066;color-rendering:auto;image-rendering:auto;shape-rendering:auto;text-rendering:auto;enable-background:accumulate;stop-color:#000;paint-order:normal" id="path857" d="m 208.03,418.3 c -12.26,0.28 -24.81,-0.92 -36.04,4.5 -11.12,10.09 -18.04,22.7 -23.74,36.04 l -6.56,6.54 c -7.82,-0.74 -12.25,4.74 -12.37,10.24 -0.06,2.81 1,5.62 3.31,7.61 0.9,0.78 2,1.44 3.29,1.92 1.87,0.88 3.23,0.62 5.07,0.06 0.73,-0.22 1.57,-0.48 2.36,-0.74 2.28,-0.46 3.16,-1.41 4.17,-3.38 3.06,-6.14 -0.63,-7.18 -0.1,-10.39 -1.88,-5.42 9.05,-13.05 10.65,-11.05 2.7,-0.31 5.31,-0.9 6.94,-4.43 -0.77,2.82 -1.36,5.49 -1.48,7.26 -3.76,0.78 -7.34,1.89 -7.1,9.86 -3.28,3 -5.79,6.31 -3.68,11.47 -1.6,10.79 -10.89,10.86 -16.38,16.79 -0.8,3.87 -5.91,9.34 1.23,10.23 -2.9,14.62 4.65,18.17 14.91,16.88 2.92,-0.37 6.06,-1.13 9.24,-2.14 0.96,-3.95 15.29,-6.41 16.39,-3.68 1.3,1.62 2.77,3.08 4.36,4.44 4.11,3.51 9.01,6.33 13.79,9.41 6.3,4.05 12.4,8.55 16.24,15.63 l 9.41,3.69 c 6.24,-0.66 13.86,-3.62 18.03,-0.82 7.15,1.32 13.54,4.93 22.1,2.05 7.42,0.43 8.37,-5.08 6.56,-13.11 1.82,-5.38 0.34,-10.11 -1.64,-14.74 1.76,-4.07 -2.99,-6.51 -7.2,-9.09 l -2.34,-1.62 -2.11,-4 -3.91,-4.94 c -0.73,-3.97 0.94,-4.76 2.45,-5.73 l -2.45,-2.46 4.09,-3.28 c 1.68,-3.26 -0.75,-7.71 -4.09,-9.01 3.25,0.46 6.51,0.92 9.01,-1.64 0.27,-1.5 1.76,-2.08 -0.82,-5.73 -3.3,-2.4 -6.26,-5.79 -9.01,-9.82 l 3.77,-7.62 c 0.54,-2.43 -0.19,-3.58 -0.98,-4.95 2.19,0.03 2.31,-1.39 2.65,-2.17 -1.1,-8.87 -7.08,-14.17 -12.48,-20.88 -1.54,-0.95 -2.09,-0.42 -2.55,0.24 l -8.01,-8.03 c -7.17,-3.14 -8.03,-6.27 -24.98,-9.41 z"/><path style="color:#000;font-style:normal;font-variant:normal;font-weight:400;font-stretch:normal;font-size:medium;line-height:normal;font-family:sans-serif;font-variant-ligatures:normal;font-variant-position:normal;font-variant-caps:normal;font-variant-numeric:normal;font-variant-alternates:normal;font-variant-east-asian:normal;font-feature-settings:normal;font-variation-settings:normal;text-indent:0;text-align:start;text-decoration:none;text-decoration-line:none;text-decoration-style:solid;text-decoration-color:#000;letter-spacing:normal;word-spacing:normal;text-transform:none;writing-mode:lr-tb;direction:ltr;text-orientation:mixed;dominant-baseline:auto;baseline-shift:baseline;text-anchor:start;white-space:normal;shape-padding:0;shape-margin:0;inline-size:0;clip-rule:nonzero;display:inline;overflow:visible;visibility:visible;isolation:auto;mix-blend-mode:normal;color-interpolation:sRGB;color-interpolation-filters:linearRGB;solid-color:#000;solid-opacity:1;vector-effect:none;fill:#000;fill-opacity:1;fill-rule:evenodd;stroke:#fff;stroke-linecap:butt;stroke-linejoin:miter;stroke-miterlimit:4;stroke-dasharray:none;stroke-dashoffset:0;stroke-opacity:.49836066;color-rendering:auto;image-rendering:auto;shape-rendering:auto;text-rendering:auto;enable-background:accumulate;stop-color:#000;paint-order:normal;stroke-width:1.33333337" id="path859" d="m 208.02734,418.15625 c -12.24842,0.27974 -24.82451,-0.92614 -36.09961,4.51563 l -0.0195,0.008 -0.0137,0.0137 c -11.13379,10.10251 -18.06049,22.72303 -23.76172,36.06055 l -6.5039,6.48437 c -7.84264,-0.70271 -12.3319,4.82256 -12.45313,10.37891 -0.0608,2.84805 1.01721,5.70131 3.36133,7.7207 0.91074,0.78931 2.02195,1.45608 3.32227,1.94141 1.90406,0.89603 3.32487,0.63049 5.17187,0.0684 0.72587,-0.21876 1.56063,-0.47753 2.34766,-0.73633 l 0.008,-0.004 c 1.14969,-0.23315 1.96641,-0.59435 2.61719,-1.15234 0.65276,-0.5597 1.13609,-1.30712 1.64453,-2.29883 v -0.002 c 1.5417,-3.09348 1.3883,-4.94857 0.90625,-6.40235 -0.48205,-1.45378 -1.25003,-2.47949 -0.99414,-4.02929 l 0.006,-0.0352 -0.0117,-0.0352 c -0.4525,-1.30454 -0.13691,-2.75301 0.63672,-4.17773 0.77362,-1.42472 2.00302,-2.81575 3.34179,-3.97461 1.33877,-1.15886 2.78921,-2.0871 3.99024,-2.59766 0.60051,-0.25527 1.13786,-0.40541 1.56054,-0.43164 0.42269,-0.0262 0.71375,0.068 0.875,0.26953 l 0.0488,0.0605 0.0781,-0.008 c 1.35503,-0.15558 2.70188,-0.38214 3.92187,-1.02344 1.03868,-0.54598 1.94426,-1.49964 2.71094,-2.84375 -0.64626,2.46079 -1.19125,4.83407 -1.31055,6.43945 -1.85235,0.38744 -3.68477,0.86501 -5.03125,2.24805 -1.35965,1.39657 -2.19032,3.70735 -2.08398,7.66211 -1.62808,1.49358 -3.07533,3.07085 -3.85547,4.93359 -0.78049,1.8636 -0.87217,4.01473 0.16602,6.59375 -0.79699,5.34484 -3.47453,8.01059 -6.66407,10.10547 -3.19263,2.09692 -6.90164,3.59939 -9.67383,6.59375 l -0.0273,0.0293 -0.008,0.0391 c -0.39047,1.88887 -1.86642,4.22591 -2.36133,6.22852 -0.24746,1.0013 -0.24766,1.94079 0.29883,2.68555 0.52909,0.72105 1.57335,1.21734 3.27539,1.45312 -1.41027,7.24961 -0.25621,11.82436 2.58008,14.4043 2.85551,2.59742 7.35344,3.15734 12.5039,2.50976 2.93157,-0.37146 6.07946,-1.13257 9.26563,-2.14453 l 0.0781,-0.0254 0.0176,-0.0781 c 0.22149,-0.91132 1.2572,-1.79602 2.73633,-2.53125 1.47913,-0.73524 3.38476,-1.32525 5.29492,-1.70704 1.91017,-0.38178 3.82744,-0.55529 5.32227,-0.46484 0.74741,0.0452 1.38893,0.15739 1.86719,0.33594 0.47825,0.17855 0.78248,0.41926 0.89843,0.70703 l 0.008,0.0195 0.0117,0.0176 c 1.3067,1.62835 2.78357,3.09441 4.37891,4.45898 4.12395,3.52192 9.03065,6.34446 13.80664,9.42188 6.29478,4.04664 12.3696,8.52971 16.19141,15.57617 l 0.0254,0.0469 9.49023,3.72265 0.0352,-0.004 c 3.13622,-0.33171 6.602,-1.23816 9.79687,-1.70898 3.19487,-0.47082 6.10662,-0.49922 8.13867,0.86524 l 0.0234,0.0156 0.0293,0.006 c 7.11195,1.31297 13.5448,4.93315 22.14648,2.05078 1.85839,0.10391 3.329,-0.15785 4.45704,-0.75195 1.13419,-0.59735 1.91667,-1.52913 2.39648,-2.71875 0.95655,-2.37165 0.73252,-5.76706 -0.16797,-9.77735 1.80679,-5.39079 0.3321,-10.14378 -1.63672,-14.75586 0.42267,-1.01618 0.46451,-1.95162 0.19727,-2.80468 -0.27349,-0.87298 -0.84975,-1.65958 -1.60742,-2.39063 -1.51392,-1.4607 -3.75746,-2.71332 -5.85743,-4 l -0.004,-0.002 c -7.7e-4,-4.7e-4 -0.001,-10e-4 -0.002,-0.002 l -2.30468,-1.59571 -2.09961,-3.98047 -3.89258,-4.91796 c -0.35171,-1.9422 -0.12166,-3.08381 0.36719,-3.85743 0.49186,-0.77839 1.26115,-1.20884 2.02148,-1.69726 l 0.15039,-0.0957 -2.46289,-2.47265 3.98828,-3.19922 0.0137,-0.0273 c 0.86506,-1.67862 0.66981,-3.65381 -0.16015,-5.36719 -0.74556,-1.53915 -2.04134,-2.79278 -3.5293,-3.53125 1.44213,0.20012 2.89263,0.41209 4.27344,0.27929 1.5575,-0.14978 3.03775,-0.69074 4.3125,-1.99609 l 0.0312,-0.0312 0.006,-0.043 c 0.12743,-0.70793 0.57349,-1.23378 0.66211,-2.06836 0.0886,-0.83458 -0.20629,-1.93099 -1.50586,-3.76953 l -0.0137,-0.0195 -0.0176,-0.0137 c -3.26205,-2.3724 -6.19715,-5.73007 -8.92774,-9.7207 l 3.73828,-7.55469 0.004,-0.0176 c 0.52477,-2.36144 -0.16214,-3.57363 -0.91211,-4.87305 0.97026,-0.0394 1.5811,-0.35854 1.92383,-0.80273 0.37147,-0.48144 0.49065,-1.05151 0.65039,-1.41797 l 0.0156,-0.0371 -0.006,-0.0371 c -1.10695,-8.92603 -7.11906,-14.25467 -12.50977,-20.95312 l -0.0156,-0.0195 -0.0215,-0.0117 c -0.78662,-0.48526 -1.34865,-0.61135 -1.78906,-0.50196 -0.37991,0.0944 -0.60748,0.38725 -0.82227,0.67383 l -7.9414,-7.96094 -0.0234,-0.0117 c -7.1418,-3.12765 -8.0458,-6.27697 -25.01172,-9.41992 l -0.0156,-0.002 z m -0.0137,0.28711 c 16.89411,3.13107 17.74673,6.23659 24.91016,9.38281 l 8.11523,8.13672 0.0977,-0.14062 c 0.22497,-0.32279 0.45252,-0.58291 0.78711,-0.66602 0.33168,-0.0824 0.81446,0.007 1.55664,0.46094 5.39571,6.69878 11.31456,11.9684 12.41797,20.74804 -0.17065,0.4073 -0.28288,0.91352 -0.59375,1.31641 -0.32103,0.41606 -0.83835,0.73919 -1.90235,0.72461 l -0.25195,-0.004 0.125,0.21875 c 0.79037,1.37065 1.49162,2.45266 0.96484,4.83789 l -3.79492,7.67188 0.0469,0.0703 c 2.74846,4.02775 5.70946,7.41945 9.01758,9.83203 1.27288,1.80378 1.52597,2.82127 1.44726,3.5625 -0.0765,0.72096 -0.48404,1.23519 -0.63867,1.98828 -1.22087,1.24103 -2.61275,1.752 -4.11524,1.89649 -1.51,0.14522 -3.12892,-0.0825 -4.7539,-0.3125 l -0.0703,0.27539 c 1.62944,0.63421 3.04957,2.0476 3.84961,3.69922 0.79725,1.64586 0.97317,3.51581 0.16796,5.09375 l -4.17968,3.35156 2.45312,2.46289 c -0.7097,0.44934 -1.47219,0.8737 -1.97656,1.67188 -0.53814,0.85161 -0.77312,2.08797 -0.4043,4.09375 l 0.006,0.0351 3.92383,4.95703 2.12109,4.01953 2.3711,1.64258 0.004,0.002 c 2.10832,1.29203 4.34231,2.54639 5.81446,3.96679 0.73607,0.71021 1.2795,1.4597 1.5332,2.26953 0.2537,0.80984 0.22548,1.68268 -0.20312,2.67383 l -0.0254,0.0566 0.0234,0.0566 c 1.97628,4.6213 3.44099,9.30517 1.63672,14.63868 l -0.0137,0.0371 0.01,0.0391 c 0.90228,4.00289 1.10539,7.36682 0.1875,9.64258 -0.45894,1.13787 -1.19138,2.00649 -2.26562,2.57226 -1.07424,0.56577 -2.49681,0.82717 -4.33399,0.7207 l -0.0273,-0.002 -0.0273,0.01 c -8.4982,2.8592 -14.83624,-0.72243 -22.00977,-2.05078 -2.13551,-1.41226 -5.10218,-1.36424 -8.30273,-0.89258 -3.20733,0.47266 -6.65777,1.37027 -9.75391,1.70117 l -9.33398,-3.66016 c -3.85985,-7.0827 -9.96646,-11.58962 -16.25586,-15.63281 -4.78401,-3.08258 -9.67739,-5.90035 -13.77344,-9.39844 -1.58466,-1.35543 -3.0485,-2.80827 -4.3418,-4.41992 l 0.0215,0.0352 c -0.15905,-0.39474 -0.54475,-0.67316 -1.06446,-0.86719 -0.51971,-0.19403 -1.18545,-0.30718 -1.95117,-0.35352 -1.53142,-0.0927 -3.46274,0.083 -5.39258,0.46875 -1.92983,0.38572 -3.85506,0.98079 -5.36718,1.73243 -1.4633,0.72736 -2.52092,1.6056 -2.82422,2.625 -3.16208,1.0026 -6.2837,1.75974 -9.18164,2.12695 -5.10954,0.64243 -9.5159,0.0726 -12.27539,-2.4375 -2.75949,-2.51008 -3.92152,-6.98889 -2.47657,-14.27344 l 0.0312,-0.15039 -0.15429,-0.0195 c -1.76504,-0.22001 -2.74024,-0.71897 -3.21875,-1.37109 -0.47852,-0.65213 -0.4895,-1.48803 -0.25196,-2.44922 0.47065,-1.90441 1.91645,-4.21061 2.3418,-6.17969 2.71667,-2.9273 6.38914,-4.42597 9.60938,-6.54102 3.22486,-2.11808 5.98902,-4.88164 6.79492,-10.3164 l 0.006,-0.0371 -0.0156,-0.0371 c -1.0434,-2.55164 -0.94202,-4.61998 -0.18164,-6.43555 0.76038,-1.81557 2.19211,-3.38043 3.82617,-4.875 l 0.0488,-0.043 -0.002,-0.0664 c -0.11935,-3.96337 0.70712,-6.18548 2.00781,-7.52149 1.30069,-1.33601 3.10094,-1.80427 4.97656,-2.19336 l 0.10743,-0.0234 0.008,-0.10743 c 0.11851,-1.74807 0.70576,-4.41665 1.47461,-7.23242 l -0.26758,-0.0976 c -0.80407,1.74132 -1.83835,2.74176 -3.00586,3.35546 -1.16751,0.61371 -2.4773,0.83777 -3.82227,0.99219 l 0.12891,0.0527 c -0.23874,-0.29843 -0.64128,-0.40441 -1.11523,-0.375 -0.47396,0.0294 -1.03645,0.18965 -1.65625,0.45312 -1.2396,0.52695 -2.70573,1.46839 -4.06446,2.64453 -1.35873,1.17614 -2.60925,2.58691 -3.40625,4.05469 -0.78413,1.44408 -1.11341,2.95101 -0.66015,4.33789 -0.002,0.0104 0.004,0.017 0.002,0.0273 -0.25895,1.6429 0.53941,2.74373 1.00195,4.13868 0.46545,1.40372 0.62768,3.13706 -0.89062,6.18359 -0.50156,0.97829 -0.96448,1.69009 -1.57422,2.21289 -0.60974,0.52281 -1.37134,0.86487 -2.49609,1.0918 l -0.01,0.002 -0.008,0.002 c -0.7883,0.25944 -1.62626,0.51852 -2.35547,0.73829 -1.833,0.55787 -3.13281,0.81123 -4.96875,-0.0527 l -0.004,-0.002 -0.006,-0.002 c -1.27471,-0.47431 -2.35953,-1.12617 -3.24609,-1.89453 h -0.002 c -2.27589,-1.9606 -3.31896,-4.7261 -3.25977,-7.49804 0.11837,-5.42518 4.46401,-10.83288 12.21289,-10.09961 l 0.0684,0.006 6.62695,-6.60742 0.01,-0.0254 c 5.6935,-13.32478 12.6013,-25.90717 23.68945,-35.9746 11.17452,-5.38566 23.68445,-4.20011 35.94336,-4.47852 z"/><rect style="fill:none;fill-opacity:1;stroke:none;stroke-width:.671;stroke-miterlimit:4;stroke-dasharray:none;stroke-opacity:1" id="rect886" width="156.998" height="151.691" x="122.16" y="410.798"/></g><g id="layer2" style="display:inline"><text id="text26" transform="matrix(2.9973402,0,0,2.9973402,-505.06848,-1388.1048)" xml:space="preserve" style="font-style:italic;font-variant:normal;font-weight:400;font-stretch:normal;font-size:40px;line-height:1.25;font-family:Cookie;-inkscape-font-specification:'Cookie Italic';white-space:pre;shape-inside:url(#rect28);fill:#000;fill-opacity:1;stroke:none"><tspan x="182.254" y="496.148"><tspan style="font-style:italic;font-variant:normal;font-weight:400;font-stretch:normal;font-size:48px;font-family:Cookie;-inkscape-font-specification:'Cookie Italic';fill:red;fill-opacity:1">?</tspan></tspan></text></g><metadata id="metadata21"/></svg>