<svg xmlns="http://www.w3.org/2000/svg" clip-rule="evenodd" fill-rule="evenodd" stroke-linecap="round" stroke-miterlimit="2" viewBox="0 0 5000 3334" xml:space="preserve"><path fill="#455964" fill-rule="nonzero" d="M5000 0H-.04v3333.36H5000z"/><path d="M1885.273 1112.666c.492-.129 28.905-7.791 63.717-17.97a1945.978 1945.978 0 0 1-55.575-56.297 4.168 4.168 0 1 1 6.062-5.72c.459.487 24.267 25.679 51.172 51.962a12723.568 12723.568 0 0 1-5.646-68.517 4.167 4.167 0 0 1 3.825-4.483 4.188 4.188 0 0 1 4.483 3.825c.046.658 2.775 34.87 5.842 70.742 17.338-24.563 34.988-52.38 44.504-75.53a4.167 4.167 0 0 1 7.705 3.163c-9.634 23.454-26.946 51.004-44.092 75.446 21.096-6.317 43.104-13.196 61.85-19.658a4.167 4.167 0 1 1 2.717 7.879c-20.192 6.966-44.138 14.4-66.68 21.104 20.667 19.58 41.055 37.405 52.446 43.292a4.167 4.167 0 1 1-3.825 7.404c-11.866-6.129-32.246-23.787-52.904-43.258 2.316 26.296 4.587 50.27 5.858 58.833a4.167 4.167 0 1 1-8.242 1.221c-1.266-8.525-3.45-31.392-5.7-56.783-18.354 24.683-33.692 42.887-35.025 44.458a4.167 4.167 0 1 1-6.358-5.387c.325-.388 15.946-18.921 34.704-44.18-32.492 9.446-58.204 16.375-58.675 16.504a4.168 4.168 0 1 1-2.163-8.05zM4503.32 1089.725c.217.055 12.694 3.241 28.153 6.842-4.852-16.374-8.788-32.193-9.087-33.403a1.824 1.824 0 1 1 3.54-.878 897.804 897.804 0 0 0 8.34 30.805c6.207-13.6 12.091-26.298 12.57-27.333a1.825 1.825 0 0 1 2.421-.888 1.832 1.832 0 0 1 .889 2.422c-.123.263-6.437 13.89-12.976 28.224 11.889-5.638 24.595-12.449 33.198-19.229a1.823 1.823 0 1 1 2.257 2.862c-8.713 6.87-21.234 13.652-33.022 19.285 9.4 2.124 19.267 4.233 27.802 5.797a1.817 1.817 0 0 1 1.464 2.122 1.822 1.822 0 0 1-2.12 1.465c-9.196-1.684-19.923-3.996-29.954-6.283 3.669 11.905 7.61 23.08 10.688 27.773a1.824 1.824 0 0 1-3.05 2.001c-3.206-4.888-7.18-15.997-10.87-27.858-4.768 10.522-9.055 20.148-10.41 23.685a1.824 1.824 0 0 1-3.406-1.306c1.35-3.522 5.431-12.71 10.031-22.87-12.301 5.465-22.06 9.106-22.906 9.42a1.824 1.824 0 1 1-1.267-3.42c.208-.077 10.146-3.786 22.725-9.383a1501.906 1501.906 0 0 1-25.914-6.32 1.826 1.826 0 0 1-1.316-2.218 1.826 1.826 0 0 1 2.22-1.314zM4116.124 529.675c.495-.13 28.908-7.792 63.717-17.967a1946.42 1946.42 0 0 1-55.572-56.3 4.168 4.168 0 1 1 6.063-5.721 2041.35 2041.35 0 0 0 51.167 51.967c-2.9-34.042-5.442-65.921-5.646-68.517a4.17 4.17 0 0 1 3.825-4.488 4.188 4.188 0 0 1 4.484 3.825c.05.663 2.775 34.875 5.845 70.742 17.338-24.562 34.988-52.375 44.505-75.53a4.165 4.165 0 1 1 7.704 3.167c-9.637 23.45-26.95 51-44.096 75.447 21.096-6.321 43.105-13.196 61.855-19.663a4.167 4.167 0 0 1 2.716 7.88c-20.196 6.966-44.142 14.4-66.68 21.108 20.667 19.58 41.051 37.404 52.447 43.288a4.17 4.17 0 0 1-3.825 7.404c-11.871-6.13-32.246-23.784-52.905-43.255 2.317 26.296 4.588 50.272 5.859 58.834a4.168 4.168 0 1 1-8.246 1.221c-1.263-8.53-3.45-31.396-5.696-56.784-18.354 24.684-33.692 42.884-35.025 44.459a4.169 4.169 0 0 1-6.363-5.388c.33-.387 15.95-18.92 34.709-44.18-32.496 9.443-58.21 16.372-58.676 16.501a4.168 4.168 0 0 1-2.166-8.05zM138.578 1367.892c.458-.133 28.875-7.792 63.708-17.971-28.041-27.146-53.625-54.221-55.583-56.296a4.175 4.175 0 1 1 6.083-5.721c.458.487 24.25 25.68 51.167 51.963-2.917-34.038-5.458-65.918-5.667-68.513a4.192 4.192 0 0 1 3.834-4.488 4.23 4.23 0 0 1 4.5 3.825 10504.25 10504.25 0 0 0 5.833 70.742c17.334-24.562 35-52.375 44.5-75.53a4.146 4.146 0 0 1 5.417-2.27 4.146 4.146 0 0 1 2.292 5.437c-9.625 23.45-26.959 51.005-44.084 75.443 21.084-6.317 43.084-13.192 61.834-19.659a4.158 4.158 0 0 1 5.292 2.583 4.174 4.174 0 0 1-2.584 5.296c-20.166 6.963-44.125 14.4-66.667 21.105 20.667 19.579 41.042 37.404 52.459 43.292a4.182 4.182 0 0 1 1.792 5.612 4.192 4.192 0 0 1-5.625 1.792c-11.876-6.134-32.25-23.788-52.918-43.259 2.334 26.296 4.584 50.271 5.876 58.834a4.183 4.183 0 0 1-4.125 4.78c-2.042 0-3.834-1.488-4.126-3.56-1.25-8.528-3.458-31.391-5.708-56.783-18.333 24.684-33.709 42.884-35 44.459a4.183 4.183 0 0 1-5.875.487 4.125 4.125 0 0 1-.5-5.875c.333-.387 15.958-18.92 34.708-44.18-32.5 9.442-58.208 16.376-58.667 16.505a4.168 4.168 0 1 1-2.166-8.05zM2649.622 574.781c.43.275 25.15 16.246 56.026 35.272 1.38-38.997 4.346-76.13 4.575-78.972a4.168 4.168 0 1 1 8.308.671c-.05.667-2.812 35.217-4.308 72.8 23.33-24.954 45.3-48.192 47.092-50.087a4.17 4.17 0 0 1 5.892-.163 4.188 4.188 0 0 1 .162 5.892c-.454.479-24.033 25.417-48.613 51.721 29.85-3.58 62.33-9.104 85.897-17.546a4.167 4.167 0 0 1 2.808 7.842c-23.867 8.554-55.921 14.154-85.555 17.796 18.821 11.43 38.672 23.167 56.026 32.754a4.167 4.167 0 1 1-4.03 7.296c-18.7-10.33-40.258-23.13-60.333-35.371-.696 28.459-.275 55.534 2.983 67.938a4.167 4.167 0 0 1-8.058 2.12c-3.396-12.92-3.938-39.879-3.317-68.258-17.975 19.334-34.259 37.08-39.763 43.759a4.167 4.167 0 1 1-6.429-5.304c5.483-6.65 21-23.592 38.346-42.267-30.62 2.908-54.409 3.708-56.471 3.775a4.169 4.169 0 0 1-.258-8.334c.508-.017 24.733-.833 56.05-3.82a3398.244 3398.244 0 0 1-51.555-32.518 4.166 4.166 0 1 1 4.525-6.996zM1783.917 708.352h.004c.442 0 18.05-.017 37.609-.642v-43.517a6.25 6.25 0 0 1 12.5 0v43.034c13.746-.638 26.879-1.63 34.22-3.192a6.25 6.25 0 0 1 2.6 12.225c-8.137 1.733-22.274 2.808-36.82 3.48v26.558a6.25 6.25 0 1 1-12.5 0v-26.075c-19.026.608-35.93.629-37.572.629h-.045a6.25 6.25 0 0 1 .004-12.5z" fill="#e4c8b3" fill-rule="nonzero"/><path d="M2272.644 1524.27h.004c.271.271 11.1 11.088 23.509 22.721l26.746-26.746a5.432 5.432 0 1 1 7.68 7.684l-26.447 26.446c8.838 8.058 17.521 15.516 22.992 19.066a5.438 5.438 0 0 1-5.917 9.117c-6.066-3.937-15.416-11.967-24.767-20.492l-16.32 16.321a5.433 5.433 0 0 1-7.684-7.683l16.025-16.025a1118.076 1118.076 0 0 1-23.48-22.705l-.024-.029a5.433 5.433 0 0 1 7.683-7.675z" fill="#d1aa75" fill-rule="nonzero"/><path d="M4250.743 699.724c.262 0 10.77-.009 22.446-.38v-25.97a3.73 3.73 0 1 1 7.458 0v25.679c8.205-.38 16.042-.971 20.425-1.904a3.73 3.73 0 1 1 1.55 7.296c-4.854 1.033-13.295 1.675-21.975 2.079v15.846a3.73 3.73 0 1 1-7.458 0V706.81a780.423 780.423 0 0 1-22.425.375h-.025a3.733 3.733 0 0 1 .004-7.462z" fill="#e4c8b3" fill-rule="nonzero"/><path d="M614.548 1013.097c.25 0 10.792-.008 22.459-.379v-25.971a3.73 3.73 0 1 1 7.458 0v25.684c8.209-.384 16.042-.975 20.417-1.909a3.725 3.725 0 0 1 4.417 2.875c.416 2.013-.834 3.992-2.875 4.425-4.834 1.034-13.292 1.671-21.959 2.075v15.846a3.733 3.733 0 0 1-7.458 0v-15.558a782.053 782.053 0 0 1-22.417.375h-.042c-2.041 0-3.75-1.671-3.75-3.734a3.758 3.758 0 0 1 3.75-3.729zM2736.365 1105.783c.263 0 10.771-.008 22.442-.379v-25.971a3.731 3.731 0 1 1 7.462 0v25.68c8.205-.38 16.042-.972 20.421-1.905a3.733 3.733 0 0 1 1.555 7.296c-4.859 1.033-13.296 1.68-21.976 2.08v15.845a3.731 3.731 0 1 1-7.462 0v-15.558a780.225 780.225 0 0 1-22.421.375h-.025a3.733 3.733 0 0 1 .004-7.463zM1801.224 1658.02c.263 0 10.775-.01 22.446-.384v-25.971a3.731 3.731 0 0 1 7.463 0v25.683c8.2-.379 16.038-.975 20.421-1.908a3.731 3.731 0 0 1 1.55 7.3c-4.854 1.033-13.292 1.675-21.971 2.075v15.85a3.733 3.733 0 0 1-7.463 0v-15.558c-11.354.362-21.446.37-22.42.37h-.03a3.733 3.733 0 0 1 .004-7.458zM3315.629 597.57c.15.15 6.212 6.203 13.15 12.712l14.966-14.967a3.042 3.042 0 0 1 4.296 4.3l-14.796 14.796c4.946 4.508 9.805 8.683 12.863 10.67a3.042 3.042 0 0 1-3.308 5.1c-3.392-2.203-8.625-6.695-13.859-11.466l-9.13 9.134a3.042 3.042 0 1 1-4.3-4.3l8.963-8.967a622.642 622.642 0 0 1-13.129-12.7l-.016-.017a3.042 3.042 0 1 1 4.3-4.296zM1375.138 784.97c.15.15 6.212 6.205 13.15 12.713l14.967-14.963a3.038 3.038 0 1 1 4.295 4.296l-14.791 14.8c4.941 4.509 9.8 8.68 12.862 10.667a3.042 3.042 0 0 1-3.308 5.1c-3.396-2.204-8.63-6.696-13.863-11.467l-9.129 9.134a3.04 3.04 0 1 1-4.296-4.3l8.963-8.963c-6.75-6.333-12.567-12.142-13.134-12.704a3.042 3.042 0 1 1 4.284-4.313zM2937.218 1517.475a645.755 645.755 0 0 0 13.154 12.713l14.963-14.963a3.042 3.042 0 0 1 4.3 4.296l-14.8 14.8c4.945 4.508 9.804 8.68 12.866 10.667a3.042 3.042 0 0 1-3.312 5.1c-3.392-2.204-8.621-6.696-13.855-11.467l-9.133 9.133a3.038 3.038 0 1 1-4.296-4.295l8.963-8.967a634.963 634.963 0 0 1-13.15-12.721 3.04 3.04 0 1 1 4.3-4.296zM216.713 1918.666c.125.15 6.208 6.2 13.125 12.713l14.958-14.967a3.088 3.088 0 0 1 4.334 0 3.08 3.08 0 0 1 0 4.3l-14.834 14.796c4.959 4.508 9.834 8.683 12.875 10.67a3.033 3.033 0 1 1-3.291 5.097c-3.417-2.2-8.625-6.692-13.875-11.463l-9.126 9.133c-1.208 1.188-3.125 1.188-4.291 0a3 3 0 0 1 0-4.3l8.958-8.966a560.88 560.88 0 0 1-13.125-12.705l-.042-.012a3.08 3.08 0 0 1 0-4.3 3.083 3.083 0 0 1 4.334.004zM1390.03 313.553c.459 0 18.084-.013 37.626-.638v-43.52a6.25 6.25 0 1 1 12.5 0v43.033c13.75-.633 26.875-1.63 34.208-3.192 3.375-.72 6.709 1.438 7.417 4.813s-1.417 6.696-4.792 7.412c-8.166 1.734-22.292 2.809-36.833 3.48v26.558c0 3.454-2.792 6.25-6.25 6.25s-6.25-2.796-6.25-6.25v-26.071c-19.042.608-35.917.625-37.584.625h-.042a6.25 6.25 0 1 1 0-12.5z" fill="#d1aa75" fill-rule="nonzero"/><path d="m831.58 449.24.447 56.251 63.923.817 2.308-57.068H831.58z" fill="#537891" fill-rule="nonzero" transform="matrix(-4.1667 0 0 4.1667 5000.04 106.358)"/><path d="M845.28 470.02c1.431.096 2.928.18 4.22.214h.013a.46.46 0 0 0 .011-.921c-1.123-.03-2.405-.097-3.662-.177 1.471-1.032 2.961-2.198 3.988-3.303a.459.459 0 0 0-.025-.65.459.459 0 0 0-.65.023c-.999 1.076-2.495 2.233-3.966 3.258.577-2.058 1.104-3.895 1.114-3.933a.46.46 0 1 0-.885-.254c-.042.151-.534 1.864-1.08 3.808a131.091 131.091 0 0 1-1.709-3.859.462.462 0 0 0-.85.357c.069.164.934 2.215 1.964 4.405-2.196-.167-3.927-.332-3.959-.335a.46.46 0 0 0-.088.918c.028.002 1.467.14 3.384.29a62.888 62.888 0 0 1-2.631 1.585.461.461 0 0 0 .449.804c.107-.06 1.253-.704 2.737-1.647-.386 1.406-.713 2.625-.818 3.121a.46.46 0 1 0 .9.192c.107-.493.449-1.769.851-3.225.749 1.496 1.501 2.841 2.041 3.438a.46.46 0 0 0 .683-.618c-.516-.571-1.276-1.958-2.032-3.491zm-7.44-20.78a36.158 36.158 0 0 1-2.414 1.82l.513-1.82h-.957l-.407 1.441c-.231-.502-.453-.99-.655-1.441h-1.01c.31.697.678 1.51 1.07 2.344-.905-.068-1.728-.137-2.389-.193l.008.925c.499.042 1.078.09 1.718.141-.667.423-1.255.779-1.71 1.049l.009 1.065a66.385 66.385 0 0 0 2.257-1.371c-.387 1.405-.712 2.624-.818 3.119a.46.46 0 0 0 .45.557.46.46 0 0 0 .45-.363c.105-.494.448-1.77.85-3.226.75 1.497 1.502 2.841 2.042 3.438a.462.462 0 0 0 .65.033.461.461 0 0 0 .032-.651c-.515-.571-1.274-1.957-2.031-3.491 1.431.097 2.928.18 4.22.214h.012a.46.46 0 0 0 .012-.921 98.366 98.366 0 0 1-3.662-.177c1.114-.782 2.239-1.641 3.166-2.492h-1.406zm23.38 50.91c-.601-.165-1.747-.79-2.998-1.543a95.057 95.057 0 0 0 3.086-1.756.462.462 0 0 0-.474-.79c-.79.474-1.699.99-2.605 1.489.571-1.395 1.087-2.877 1.315-4.119a.46.46 0 0 0-.906-.166c-.22 1.2-.741 2.671-1.312 4.054a610.561 610.561 0 0 1-.966-3.227.461.461 0 0 0-.884.263c.039.125.451 1.515.935 3.123a104.687 104.687 0 0 1-2.902-1.931.46.46 0 1 0-.525.757c.124.087 1.66 1.148 3.399 2.25-1.637.875-2.93 1.536-2.954 1.548a.461.461 0 1 0 .419.82c.021-.011 1.056-.539 2.444-1.276a54.423 54.423 0 0 1-1.104 2.212.46.46 0 0 0 .812.437c.049-.091.551-1.031 1.167-2.337.351 1.142.661 2.117.808 2.512a.462.462 0 0 0 .592.271.46.46 0 0 0 .271-.592c-.146-.393-.468-1.413-.833-2.598 1.198.711 2.319 1.309 2.97 1.488a.463.463 0 0 0 .567-.322.462.462 0 0 0-.322-.567zm18.03-9.91c-.409.133-1.471.418-2.703.74.781-1.195 1.445-2.317 1.656-2.974a.461.461 0 1 0-.877-.282c-.195.606-.886 1.752-1.713 2.998a92.892 92.892 0 0 0-1.658-3.233.46.46 0 0 0-.81.44c.453.831.941 1.787 1.414 2.738-1.402-.645-2.896-1.241-4.156-1.528a.46.46 0 1 0-.205.898c1.219.278 2.702.877 4.092 1.524-1.766.451-3.316.839-3.35.846a.46.46 0 1 0 .224.895c.13-.033 1.575-.395 3.242-.819a109.336 109.336 0 0 1-2.106 2.887.462.462 0 0 0 .734.558c.094-.124 1.246-1.647 2.446-3.371.823 1.71 1.441 3.062 1.453 3.088a.46.46 0 0 0 .838-.383c-.01-.023-.508-1.112-1.203-2.569 1.291.68 2.205 1.221 2.227 1.234a.462.462 0 0 0 .632-.16.462.462 0 0 0-.16-.632 58.081 58.081 0 0 0-2.347-1.301c1.187-.31 2.203-.584 2.613-.717a.462.462 0 0 0-.283-.877zm15-24.78c-.453.329-1.528.782-2.76 1.238.189-1.075.37-2.19.501-3.162a.46.46 0 0 0-.914-.122 73.497 73.497 0 0 1-.407 2.62c-.663-1.182-1.412-2.368-2.155-3.223a.461.461 0 0 0-.697.603c.716.823 1.451 1.999 2.102 3.171-1.476-.593-2.744-1.108-2.773-1.119a.457.457 0 0 0-.599.253.457.457 0 0 0 .253.599c.108.045 1.293.527 2.685 1.086a95.98 95.98 0 0 1-2.956.942.46.46 0 0 0 .132.902.468.468 0 0 0 .132-.019c.132-.039 1.74-.522 3.506-1.128-.306 1.646-.568 2.922-.572 2.946a.46.46 0 1 0 .902.185c.004-.02.208-1.014.467-2.377.543 1.119.895 1.939.904 1.96a.463.463 0 0 0 .604.243.46.46 0 0 0 .244-.604 51.876 51.876 0 0 0-.967-2.096c.985.388 1.823.71 2.18.829a.464.464 0 0 0 .583-.294.46.46 0 0 0-.294-.581c-.355-.118-1.231-.455-2.251-.859 1.165-.441 2.2-.89 2.692-1.248a.46.46 0 1 0-.542-.745zm-22.73-4.24a.432.432 0 0 0 .132-.02 98.109 98.109 0 0 0 3.507-1.128 174.374 174.374 0 0 1-.573 2.947.46.46 0 1 0 .902.185c.005-.02.209-1.014.467-2.378.544 1.119.897 1.94.905 1.96a.46.46 0 0 0 .847-.36 48.08 48.08 0 0 0-.966-2.096c.985.388 1.822.71 2.18.828a.458.458 0 0 0 .582-.294.46.46 0 0 0-.293-.581c-.355-.117-1.231-.455-2.252-.858 1.165-.442 2.2-.891 2.692-1.248a.46.46 0 1 0-.541-.745c-.454.329-1.529.782-2.76 1.238.188-1.075.37-2.19.501-3.161a.461.461 0 1 0-.914-.123 75.849 75.849 0 0 1-.407 2.62c-.664-1.183-1.413-2.368-2.156-3.224a.46.46 0 1 0-.695.604c.715.823 1.449 1.999 2.1 3.171-1.474-.592-2.744-1.109-2.771-1.119a.46.46 0 1 0-.348.852c.11.045 1.293.526 2.686 1.086a95.568 95.568 0 0 1-2.955.941.461.461 0 0 0 .13.903zm-26.45 30.67c-.485.085-1.083.116-1.676.12.018-.743.055-1.448.081-1.841a.46.46 0 0 0-.43-.489.451.451 0 0 0-.49.429c-.004.069-.059.912-.083 1.885-.928-.033-1.672-.107-1.687-.108a.465.465 0 0 0-.505.411.462.462 0 0 0 .411.505c.061.007.82.082 1.77.114 0 .673.025 1.313.102 1.718a.461.461 0 1 0 .905-.17c-.064-.336-.086-.906-.087-1.534.643-.004 1.302-.037 1.847-.132a.46.46 0 1 0-.158-.908zm45.19-9.83a.46.46 0 1 0-.192-.901c-.449.096-1.245.158-2.086.198v-2.654a.46.46 0 0 0-.921 0v2.689a84.497 84.497 0 0 1-2.313.039.46.46 0 1 0 0 .921h.003c.099 0 1.132-.001 2.31-.037v1.581a.461.461 0 0 0 .921 0v-1.618c.902-.043 1.772-.11 2.278-.218zm3.44 18.33h-.006c-.049.001-.612.006-1.29.033l-.01-.824a.46.46 0 0 0-.46-.456h-.004a.46.46 0 0 0-.456.466l.009.861c-.518.033-1.006.08-1.301.146a.461.461 0 0 0 .201.9c.236-.053.649-.094 1.11-.124l.017 1.496a.46.46 0 0 0 .461.455h.004a.461.461 0 0 0 .457-.465l-.018-1.533a47.45 47.45 0 0 1 1.291-.035.46.46 0 0 0-.005-.92zm-40.4-20.07a.501.501 0 0 0 .101-.01c.236-.053.649-.093 1.111-.124l.016 1.496a.46.46 0 0 0 .46.456h.005a.461.461 0 0 0 .456-.466l-.016-1.533a46.497 46.497 0 0 1 1.291-.034.46.46 0 1 0-.011-.921c-.05.001-.613.007-1.291.033l-.009-.824a.461.461 0 0 0-.461-.455h-.005a.46.46 0 0 0-.456.465l.01.861c-.518.033-1.005.081-1.302.147a.46.46 0 0 0 .101.909zm42.57-27.17c-.049.001-.613.008-1.291.034l-.01-.825a.46.46 0 0 0-.46-.455h-.004a.463.463 0 0 0-.457.466l.01.86c-.517.034-1.006.082-1.302.148a.46.46 0 1 0 .203.898c.235-.052.648-.092 1.109-.124l.017 1.496a.462.462 0 0 0 .461.457h.004a.462.462 0 0 0 .456-.466l-.017-1.534c.522-.02 1.009-.03 1.291-.034a.46.46 0 1 0-.01-.921zm-33.14 4.44c-.049.001-.613.008-1.291.033l-.008-.824a.461.461 0 0 0-.461-.455h-.005a.462.462 0 0 0-.456.466l.01.86c-.519.033-1.006.081-1.302.147a.46.46 0 0 0 .201.899c.236-.053.649-.093 1.111-.124l.017 1.496a.46.46 0 0 0 .46.456h.005a.461.461 0 0 0 .456-.466l-.018-1.533c.523-.02 1.009-.03 1.291-.033a.462.462 0 0 0 .456-.466.447.447 0 0 0-.466-.456zm6.93 12.09 1.496-.039a.462.462 0 0 0-.024-.921l-1.532.04a50.151 50.151 0 0 1-.054-1.29.46.46 0 0 0-.46-.449h-.013a.459.459 0 0 0-.448.472c.001.05.017.613.053 1.29l-.825.022a.462.462 0 0 0 .012.921h.013l.86-.023c.041.518.096 1.005.166 1.3a.462.462 0 0 0 .897-.215c-.057-.235-.103-.647-.141-1.108zm-22.14-16.77h.014l.86-.022c.041.517.095 1.004.167 1.299a.459.459 0 0 0 .554.34.46.46 0 0 0 .341-.555c-.057-.235-.104-.648-.141-1.109l1.496-.039a.461.461 0 0 0-.011-.921h-.013l-1.532.04a54.347 54.347 0 0 1-.054-1.29.46.46 0 0 0-.921.024c.001.05.017.613.053 1.291l-.823.021a.46.46 0 0 0 .01.921z" transform="matrix(-4.1667 0 0 4.1667 5000.04 106.358)" fill="#f9eddc" fill-rule="nonzero"/><g fill="#f7ebda" fill-rule="nonzero"><path d="M888.87 431.16h-.027c-1.495.023-2.761.659-3.872 1.948-2.138 2.481-3.188 6.812-3.411 10.408 4.352-5.571 7.573-10.856 7.437-12.351a1.455 1.455 0 0 0-.127-.005zm-8.602 17.542a1.386 1.386 0 0 1-1.375-1.203c-.544-4.043.343-11.988 3.975-16.203 1.637-1.899 3.633-2.877 5.935-2.911 1.687-.001 2.418.906 2.681 1.464 1.721 3.626-6.529 14.046-10.154 18.359-.268.317-.66.494-1.062.494z" transform="matrix(-4.1667 0 0 4.1667 5000.04 106.358)"/><path d="M872.67 429.66a.588.588 0 0 0-.401.141c-1.058.916-1.354 4.929.3 7.779 2.395 4.123 4.653 6.267 6.164 7.352-.407-4.659-1.663-12.221-4.638-14.575-.438-.345-.989-.697-1.425-.697zm7.603 19.047c-.11 0-.219-.013-.328-.039-.494-.12-4.964-1.41-9.775-9.694-2.19-3.771-2.053-9.248.281-11.272.684-.591 2.574-1.728 5.366.479 5.239 4.143 5.796 17.578 5.842 19.095a1.384 1.384 0 0 1-1.386 1.431z" transform="matrix(-4.1667 0 0 4.1667 5000.04 106.358)"/><path d="M875.14 453.01a1.388 1.388 0 0 1-.156-2.767c3.761-.43 3.898-3.313 3.903-3.436a1.386 1.386 0 0 1 2.581-.66c1.648 2.789 5.395 3.682 5.433 3.69a1.385 1.385 0 0 1 1.056 1.653 1.385 1.385 0 0 1-1.653 1.058c-.158-.035-3.12-.712-5.49-2.874-.886 1.521-2.568 2.989-5.514 3.327a1.444 1.444 0 0 1-.16.009z" transform="matrix(-4.1667 0 0 4.1667 5000.04 106.358)"/><path d="M879.51 507.29h-.017a1.39 1.39 0 0 1-1.372-1.404l.677-58.172a1.388 1.388 0 0 1 1.388-1.371h.016a1.388 1.388 0 0 1 1.372 1.403l-.677 58.172a1.388 1.388 0 0 1-1.387 1.372z" transform="matrix(-4.1667 0 0 4.1667 5000.04 106.358)"/></g><path d="m904.72 159.36.446 56.25 63.923.817 2.308-57.067H904.72z" fill="#29475d" fill-rule="nonzero" transform="matrix(-4.1667 0 0 4.1667 5000.04 106.358)"/><path d="M918.42 180.15c1.431.097 2.928.18 4.22.214h.012a.46.46 0 0 0 .012-.921 100.68 100.68 0 0 1-3.662-.177c1.471-1.032 2.961-2.197 3.987-3.303a.46.46 0 0 0-.674-.627c-.999 1.076-2.496 2.234-3.966 3.258a819.432 819.432 0 0 1 1.114-3.932.46.46 0 1 0-.885-.254c-.043.15-.534 1.863-1.081 3.807a137.657 137.657 0 0 1-1.709-3.859.46.46 0 0 0-.849.357c.069.164.933 2.215 1.963 4.405-2.195-.166-3.926-.331-3.959-.334a.46.46 0 0 0-.087.917c.029.003 1.466.14 3.383.29-1.479.938-2.604 1.571-2.63 1.586a.461.461 0 1 0 .45.804c.106-.061 1.252-.705 2.736-1.647-.387 1.405-.712 2.624-.818 3.12a.459.459 0 0 0 .451.557.46.46 0 0 0 .449-.365c.107-.493.448-1.769.851-3.225.75 1.497 1.501 2.842 2.041 3.438a.458.458 0 0 0 .65.033.46.46 0 0 0 .032-.651c-.515-.57-1.274-1.958-2.031-3.491zm-7.44-20.79a36.158 36.158 0 0 1-2.414 1.82l.515-1.82h-.958c-.128.45-.265.936-.406 1.441-.233-.502-.454-.99-.657-1.441h-1.009c.309.697.677 1.51 1.07 2.344-.905-.068-1.728-.137-2.39-.193l.008.925c.499.042 1.078.091 1.72.141-.668.423-1.256.779-1.711 1.049l.009 1.066a69.397 69.397 0 0 0 2.258-1.372c-.388 1.405-.713 2.624-.82 3.12a.462.462 0 0 0 .901.193c.106-.494.448-1.769.85-3.226.749 1.497 1.501 2.842 2.041 3.438a.458.458 0 0 0 .651.033.461.461 0 0 0 .032-.651c-.516-.57-1.275-1.957-2.031-3.491a106.305 106.305 0 0 0 4.232.215.461.461 0 0 0 .012-.921c-1.123-.03-2.406-.097-3.662-.178 1.115-.782 2.239-1.641 3.166-2.492h-1.407zm23.38 50.91c-.6-.165-1.747-.79-2.998-1.544a91.967 91.967 0 0 0 3.086-1.756.46.46 0 0 0-.473-.79c-.789.474-1.699.99-2.605 1.489.57-1.395 1.087-2.877 1.315-4.119a.461.461 0 0 0-.907-.166c-.219 1.2-.74 2.671-1.311 4.055-.515-1.704-.956-3.195-.966-3.228a.46.46 0 0 0-.884.263c.038.125.45 1.516.936 3.123a103.064 103.064 0 0 1-2.904-1.931.46.46 0 1 0-.524.757c.125.087 1.66 1.148 3.398 2.25a185.246 185.246 0 0 1-2.954 1.548.462.462 0 0 0 .21.871.448.448 0 0 0 .209-.051 166.8 166.8 0 0 0 2.445-1.276 54.423 54.423 0 0 1-1.104 2.212.461.461 0 0 0 .812.437c.048-.091.55-1.031 1.167-2.337.351 1.142.661 2.118.807 2.512a.462.462 0 0 0 .593.271.46.46 0 0 0 .27-.592c-.145-.393-.467-1.412-.833-2.598 1.199.711 2.32 1.309 2.971 1.488a.463.463 0 0 0 .567-.322.461.461 0 0 0-.323-.566zm18.03-9.91c-.41.132-1.471.417-2.703.739.781-1.194 1.445-2.316 1.657-2.974a.462.462 0 0 0-.878-.282c-.195.606-.886 1.752-1.713 2.998a92.815 92.815 0 0 0-1.658-3.232.46.46 0 1 0-.809.44c.451.83.94 1.786 1.412 2.737-1.401-.645-2.895-1.241-4.155-1.528a.46.46 0 1 0-.205.898c1.219.278 2.702.878 4.092 1.524-1.766.451-3.317.839-3.35.847a.461.461 0 0 0 .224.894c.13-.033 1.575-.394 3.242-.819a109.684 109.684 0 0 1-2.106 2.888.46.46 0 1 0 .734.557 113.67 113.67 0 0 0 2.447-3.371 185.13 185.13 0 0 1 1.451 3.088.461.461 0 0 0 .839-.383c-.011-.023-.509-1.111-1.203-2.568 1.291.68 2.205 1.22 2.227 1.233a.458.458 0 0 0 .631-.16.46.46 0 0 0-.16-.632c-.091-.053-1.035-.611-2.346-1.3 1.187-.311 2.203-.585 2.613-.718a.461.461 0 0 0-.283-.876zm15-24.78c-.453.329-1.529.781-2.76 1.238.188-1.075.37-2.191.501-3.162a.462.462 0 0 0-.396-.518.458.458 0 0 0-.517.395 78.508 78.508 0 0 1-.408 2.621c-.664-1.183-1.413-2.368-2.156-3.224a.46.46 0 1 0-.695.604c.715.823 1.449 1.998 2.101 3.171-1.476-.593-2.745-1.109-2.773-1.12a.458.458 0 0 0-.599.253.459.459 0 0 0 .252.6c.11.044 1.293.526 2.686 1.085-1.18.396-2.287.743-2.956.942a.462.462 0 0 0 .132.903.465.465 0 0 0 .132-.02 101.1 101.1 0 0 0 3.505-1.128 167.803 167.803 0 0 1-.572 2.946.461.461 0 0 0 .903.186c.003-.021.208-1.015.466-2.378.543 1.119.896 1.94.905 1.96a.46.46 0 0 0 .847-.361 48.366 48.366 0 0 0-.966-2.095c.985.387 1.823.71 2.18.828a.46.46 0 0 0 .288-.875c-.354-.117-1.229-.455-2.251-.858 1.165-.442 2.2-.891 2.693-1.248a.46.46 0 0 0-.542-.745zm-22.73-4.24a.463.463 0 0 0 .132-.019c.133-.04 1.741-.522 3.507-1.128a175.333 175.333 0 0 1-.573 2.946.461.461 0 0 0 .902.186c.005-.021.209-1.015.467-2.379.544 1.119.896 1.94.905 1.961a.46.46 0 0 0 .848-.361 52.213 52.213 0 0 0-.967-2.095c.984.387 1.822.71 2.18.827a.462.462 0 0 0 .289-.875c-.355-.116-1.231-.454-2.252-.858 1.165-.442 2.2-.89 2.692-1.247a.462.462 0 0 0-.541-.746c-.453.329-1.529.782-2.761 1.238.189-1.075.37-2.19.501-3.161a.46.46 0 1 0-.913-.123 75.475 75.475 0 0 1-.407 2.62c-.664-1.182-1.412-2.368-2.156-3.224a.462.462 0 0 0-.696.604c.715.824 1.45 1.999 2.102 3.171-1.476-.592-2.745-1.108-2.773-1.119a.46.46 0 1 0-.347.853c.109.044 1.293.525 2.685 1.085a98.023 98.023 0 0 1-2.955.942.46.46 0 0 0 .131.902zm-26.45 30.68c-.485.085-1.083.116-1.677.12.019-.743.056-1.448.081-1.841a.46.46 0 0 0-.429-.489.454.454 0 0 0-.491.429c-.004.069-.058.912-.083 1.885-.927-.033-1.671-.107-1.686-.108a.466.466 0 0 0-.505.411.461.461 0 0 0 .411.505c.061.007.819.082 1.77.114.001.673.025 1.314.101 1.718a.46.46 0 1 0 .905-.17c-.063-.336-.085-.906-.086-1.534.643-.004 1.301-.037 1.846-.132a.46.46 0 0 0-.157-.908zm45.19-9.84a.462.462 0 0 0-.191-.902c-.449.096-1.245.158-2.085.198v-2.653a.461.461 0 0 0-.922 0v2.688a84.497 84.497 0 0 1-2.313.039.46.46 0 0 0 0 .921h.003c.099 0 1.131-.001 2.31-.037v1.581a.461.461 0 0 0 .922 0v-1.617c.9-.043 1.77-.111 2.276-.218zm3.44 18.34h-.005c-.05.001-.613.007-1.291.033l-.009-.824a.461.461 0 0 0-.461-.456h-.005a.461.461 0 0 0-.456.466l.01.861c-.519.033-1.006.08-1.302.147a.46.46 0 0 0 .201.899c.237-.053.65-.094 1.111-.124l.017 1.496a.46.46 0 0 0 .46.456h.005a.461.461 0 0 0 .456-.466l-.017-1.533c.522-.02 1.008-.031 1.291-.034a.46.46 0 0 0-.005-.921zm-40.4-20.08a.503.503 0 0 0 .101-.011c.235-.053.649-.093 1.11-.124l.017 1.496a.46.46 0 0 0 .46.456h.006a.461.461 0 0 0 .455-.466l-.017-1.533c.522-.02 1.008-.031 1.291-.034a.46.46 0 0 0 .455-.465.457.457 0 0 0-.465-.456c-.049.001-.614.007-1.291.033l-.009-.824a.461.461 0 0 0-.461-.455h-.005a.46.46 0 0 0-.456.465l.01.861c-.518.033-1.005.081-1.302.147a.46.46 0 0 0 .101.91zm42.57-27.16c-.049 0-.613.007-1.291.033l-.009-.824a.46.46 0 0 0-.461-.455h-.005a.46.46 0 0 0-.456.465l.01.86c-.518.034-1.006.082-1.302.148a.46.46 0 0 0 .202.899c.236-.053.649-.093 1.11-.124l.016 1.496a.462.462 0 0 0 .461.456h.005a.461.461 0 0 0 .456-.466l-.016-1.533a46.443 46.443 0 0 1 1.29-.034.461.461 0 0 0-.01-.921zm-33.14 4.43c-.05.001-.613.008-1.291.034l-.009-.825a.461.461 0 0 0-.461-.455h-.005a.462.462 0 0 0-.456.466l.01.861c-.517.033-1.006.08-1.302.146a.461.461 0 0 0 .202.899c.236-.053.649-.093 1.111-.123l.017 1.495a.459.459 0 0 0 .459.456h.006a.46.46 0 0 0 .455-.466l-.017-1.532a46.692 46.692 0 0 1 1.291-.034.462.462 0 0 0 .456-.466.449.449 0 0 0-.466-.456zm6.93 12.09 1.496-.039a.462.462 0 0 0 .448-.473c-.007-.254-.233-.464-.473-.448l-1.532.04a49.121 49.121 0 0 1-.053-1.29.46.46 0 0 0-.46-.449h-.013a.46.46 0 0 0-.448.473c.001.049.016.612.052 1.29l-.824.021a.46.46 0 0 0 .013.921h.012l.86-.022c.041.517.096 1.004.166 1.299a.463.463 0 0 0 .556.34.46.46 0 0 0 .34-.555c-.056-.235-.102-.647-.14-1.108zm-22.14-16.76h.014l.859-.022c.041.517.096 1.004.167 1.299a.46.46 0 0 0 .896-.215c-.057-.235-.103-.647-.141-1.108l1.496-.039a.461.461 0 0 0-.012-.921h-.012l-1.532.04a49.784 49.784 0 0 1-.054-1.29.46.46 0 1 0-.921.023c.002.05.017.614.053 1.291l-.824.021a.461.461 0 0 0 .011.921z" transform="matrix(-4.1667 0 0 4.1667 5000.04 106.358)" fill="#e4c8b3" fill-rule="nonzero"/><g fill="#f45c58" fill-rule="nonzero"><path d="m962.01 140.89-.032.001c-1.593.023-2.997.724-4.17 2.086-2.447 2.839-3.508 8.021-3.554 11.886 4.74-5.927 8.903-12.444 8.229-13.865-.031-.064-.223-.108-.473-.108zm-8.602 17.542a.983.983 0 0 1-.974-.854c-.535-3.971.332-11.766 3.882-15.887 1.558-1.806 3.454-2.738 5.634-2.77h.06c1.448 0 2.032.77 2.252 1.233.558 1.176.552 3.448-4.494 10.629-2.675 3.807-5.577 7.264-5.606 7.299a.988.988 0 0 1-.754.35z" transform="matrix(-4.1667 0 0 4.1667 5000.04 106.358)"/><path d="M945.8 139.38a.97.97 0 0 0-.658.242c-1.308 1.132-1.44 5.437.215 8.287 2.818 4.851 5.465 7.018 6.981 7.944-.333-4.598-1.589-13.101-4.857-15.685-.663-.525-1.225-.788-1.681-.788zm7.608 19.05a.96.96 0 0 1-.231-.028c-.191-.046-4.714-1.225-9.522-9.505-2.066-3.557-1.967-8.889.198-10.764.606-.526 2.294-1.53 4.85.49 5.184 4.101 5.672 18.194 5.69 18.793a.983.983 0 0 1-.985 1.014z" transform="matrix(-4.1667 0 0 4.1667 5000.04 106.358)"/><path d="M948.27 162.73a.983.983 0 0 1-.111-1.962c3.984-.456 4.244-3.487 4.26-3.831a.988.988 0 0 1 .747-.913.98.98 0 0 1 1.084.452c1.753 2.964 5.656 3.871 5.695 3.88a.985.985 0 0 1-.425 1.922c-.161-.035-3.351-.764-5.683-3.141-.75 1.579-2.366 3.233-5.453 3.587a.87.87 0 0 1-.114.006z" transform="matrix(-4.1667 0 0 4.1667 5000.04 106.358)"/><path d="M952.65 217.01h-.01a.986.986 0 0 1-.974-.996l.677-58.171a.985.985 0 0 1 .984-.973h.012a.986.986 0 0 1 .974.996l-.678 58.171a.985.985 0 0 1-.985.973z" transform="matrix(-4.1667 0 0 4.1667 5000.04 106.358)"/></g><g fill="none" stroke="#e4c8b3" stroke-width=".48"><path d="M950.78 160.36c-12.774-5.193-28.386-14.441-41.016-30.794" transform="matrix(-4.1667 0 0 4.1667 5000.04 106.358)"/><path d="m915.2 130.55-.144 5.295h-5.791m10.725-3.015-1.473 6.859-7.33.285m12.373-3.794-2.104 6.018-6.261 1.536m11.635-5.124-2.86 5.661-5.681 2.371m11.891-6.422-2.664 6.955-8.142 2.666m14.076-6.561-1.438 7.106-8.484 2.008m13.612-5.644-.866 6.361-7.911 2.987m12.797-8.178.219 8.072-8.759 2.565" transform="matrix(-4.1667 0 0 4.1667 5000.04 106.358)"/></g><path d="m959.42 261.84.647 81.566 92.693 1.184 3.34-82.75h-96.68z" fill="#f9eddc" fill-rule="nonzero" transform="matrix(-4.1667 0 0 4.1667 5000.04 106.358)"/><path d="M996.39 337.98c.514.183.864.627.599 1.263-.125.301-.533.746-1.048.563-.514-.183-.998-.712-.815-1.226a.988.988 0 0 1 1.264-.6zm24.41-21.12c.51.183.86.628.59 1.263-.12.301-.53.746-1.04.563-.52-.183-1-.712-.82-1.226a.997.997 0 0 1 1.27-.6zm-7.5-32.53c.51.184.86.629.6 1.264-.13.301-.53.746-1.05.563-.51-.183-1-.712-.81-1.226a.982.982 0 0 1 1.26-.601zm5.5 9.15c.52.183.87.628.6 1.263-.12.302-.53.746-1.05.563-.51-.183-.99-.712-.81-1.226s.75-.783 1.26-.6zm17.9 12.61c.52.183.87.628.6 1.263-.12.302-.53.747-1.05.564-.51-.184-.99-.712-.81-1.227a.986.986 0 0 1 1.26-.6zm-1-16.85c.51.183.86.628.6 1.263-.13.301-.54.747-1.05.563-.52-.183-1-.712-.82-1.226a.997.997 0 0 1 1.27-.6zm7.1 8.14c.52.183.86.628.6 1.263-.12.301-.53.746-1.05.563-.51-.183-1-.712-.81-1.226a.986.986 0 0 1 1.26-.6zm-8.1 24.53c.51.183.86.628.6 1.263-.13.302-.53.746-1.05.563-.51-.183-1-.712-.81-1.226a.986.986 0 0 1 1.26-.6zm-70.58 17.99c.514.183.863.628.6 1.263-.126.302-.535.747-1.049.563-.514-.183-.997-.711-.815-1.226a.99.99 0 0 1 1.264-.6zm14.25-33.81c.515.183.864.628.601 1.263-.126.302-.535.747-1.049.564-.514-.184-.997-.712-.815-1.227a.99.99 0 0 1 1.263-.6zm-11.83-6.87c.515.183.864.629.6 1.263-.125.302-.534.747-1.048.564-.515-.183-.998-.712-.815-1.227a.989.989 0 0 1 1.263-.6zm35.86 20.76c.52.184.86.628.6 1.263-.12.302-.53.747-1.05.564-.51-.183-1-.712-.81-1.227a.986.986 0 0 1 1.26-.6zm-10.91-7.5c.515.183.864.628.601 1.263-.126.301-.534.746-1.049.563-.514-.183-.997-.712-.815-1.226a.988.988 0 0 1 1.263-.6zm-27.37-.97c.514.183.863.629.6 1.263-.126.302-.535.747-1.049.564s-.997-.712-.815-1.227a.99.99 0 0 1 1.264-.6zm5.68 18.21c.515.183.864.628.6 1.263-.125.301-.534.746-1.048.563-.515-.183-.998-.712-.815-1.227a.988.988 0 0 1 1.263-.599zm4.77-36.19c.515.183.865.628.601 1.262-.126.302-.534.747-1.049.564-.514-.183-.998-.712-.814-1.227a.987.987 0 0 1 1.262-.599zm47.23 48.39c.52.183.87.627.6 1.262-.12.302-.53.747-1.05.564-.51-.183-.99-.712-.81-1.227a.985.985 0 0 1 1.26-.599zm23-3.94c.52.183.87.627.6 1.263-.12.301-.53.746-1.04.563-.52-.183-1-.712-.82-1.226a.985.985 0 0 1 1.26-.6zm-13.1-6.34c.51.183.86.628.6 1.262-.13.302-.54.747-1.05.564-.52-.183-1-.712-.82-1.227a.996.996 0 0 1 1.27-.599zm-18.4-3.45c.51.183.86.628.6 1.263-.13.301-.53.746-1.05.563-.51-.183-1-.712-.81-1.226a.982.982 0 0 1 1.26-.6zm-34.93-5.32c.515.183.864.628.601 1.262-.126.302-.535.747-1.049.564s-.997-.712-.815-1.227a.988.988 0 0 1 1.263-.599zm73.13-21.94c.51.183.86.628.6 1.263-.13.301-.54.747-1.05.563-.52-.183-1-.711-.82-1.226a.997.997 0 0 1 1.27-.6zm-48.2 6.13c.51.183.86.628.6 1.263-.13.301-.53.746-1.05.563-.51-.183-1-.712-.81-1.226a.982.982 0 0 1 1.26-.6zm-5.91-13.53c.514.183.864.628.6 1.262-.126.302-.534.747-1.049.564-.514-.183-.998-.712-.814-1.227a.988.988 0 0 1 1.263-.599zm28.81 11.6c.52.183.87.628.6 1.263-.12.301-.53.747-1.04.564-.52-.184-1-.713-.82-1.227a.99.99 0 0 1 1.26-.6zm-21.7-14.93c.52.183.87.628.6 1.263-.12.302-.53.747-1.05.564-.51-.183-.99-.713-.81-1.227s.75-.783 1.26-.6zm7.8 23.24c.52.183.87.628.6 1.263-.12.301-.53.747-1.05.564-.51-.184-.99-.712-.81-1.227s.75-.783 1.26-.6zm-25-16.15c.514.184.864.629.6 1.264-.126.301-.534.746-1.048.563-.515-.183-.999-.712-.815-1.226a.989.989 0 0 1 1.263-.601zm-.99-11.99c.514.183.864.628.599 1.263-.125.301-.533.747-1.048.564-.514-.184-.998-.712-.815-1.227a.99.99 0 0 1 1.264-.6zm-23.18-.97c.515.184.864.629.601 1.264-.126.301-.535.746-1.049.563-.515-.183-.998-.712-.815-1.226a.989.989 0 0 1 1.263-.601zm85.17 32.53c.51.183.86.628.6 1.263-.13.301-.54.746-1.05.563-.52-.183-1-.712-.82-1.226a.997.997 0 0 1 1.27-.6zm-1.6-31.56c.52.183.87.628.6 1.263-.12.301-.53.747-1.04.564-.52-.184-1-.712-.82-1.227s.75-.783 1.26-.6zm-56.2 41.93c.515.183.864.627.6 1.263-.125.301-.534.746-1.048.563-.515-.183-.998-.712-.815-1.226a.987.987 0 0 1 1.263-.6zm-9.34 8.06c.515.184.864.628.601 1.263-.126.302-.534.747-1.049.564s-.998-.712-.814-1.227a.988.988 0 0 1 1.262-.6z" transform="matrix(-4.1667 0 0 4.1667 5000.04 106.358)" fill="#e4c8b3" fill-rule="nonzero"/><path fill="#eee2ce" fill-rule="nonzero" d="M958.04 259.66h99.523v23.572H958.04z" transform="matrix(-4.1667 0 0 4.1667 5000.04 106.358)"/><g fill="#e4c8b3" fill-rule="nonzero"><path d="m997.6 234.61-.058.001c-2.442.035-4.588 1.105-6.377 3.18-3.887 4.51-5.41 12.995-5.248 18.767 7.382-9.064 13.899-19.146 12.764-21.538-.049-.102-.195-.41-1.081-.41zm-12.477 25.437a.984.984 0 0 1-.975-.853c-.764-5.678.464-16.816 5.526-22.688 2.172-2.52 4.809-3.82 7.84-3.864 1.817-.026 2.61.819 2.95 1.534 2.36 4.978-11.738 22.132-14.588 25.52a.985.985 0 0 1-.753.351z" transform="matrix(-4.1667 0 0 4.1667 5000.04 106.358)"/><path d="M974.08 232.42c-.467 0-.879.154-1.236.463-2.058 1.782-2.32 8.199.22 12.574 4.598 7.916 8.909 10.981 10.992 12.084-.313-4.825-1.706-19.49-7.255-23.879-1.046-.828-1.956-1.242-2.721-1.242zm11.042 27.628a.962.962 0 0 1-.232-.028c-.269-.065-6.65-1.731-13.529-13.574-2.902-4.997-2.806-12.453.194-15.051.99-.859 3.148-1.904 6.468.722 7.357 5.82 8.056 26.057 8.083 26.916a.986.986 0 0 1-.984 1.015z" transform="matrix(-4.1667 0 0 4.1667 5000.04 106.358)"/><path d="M977.68 266.29a.985.985 0 0 1-.111-1.962c6.274-.72 6.56-5.762 6.569-5.976a.987.987 0 0 1 1.831-.464c2.643 4.472 8.485 5.821 8.545 5.834a.986.986 0 0 1-.426 1.923c-.238-.053-5.197-1.185-8.504-4.953-.794 2.113-2.79 5.019-7.791 5.592a1.07 1.07 0 0 1-.113.006z" transform="matrix(-4.1667 0 0 4.1667 5000.04 106.358)"/><path d="M984.02 344.99h-.012a.986.986 0 0 1-.973-.996l.983-84.351c.005-.544.44-.962.996-.973a.984.984 0 0 1 .972.995l-.982 84.352a.984.984 0 0 1-.984.973z" transform="matrix(-4.1667 0 0 4.1667 5000.04 106.358)"/></g><path d="m804.5 362.03.649 81.566 92.69 1.183 3.347-82.749H804.5z" fill="#eee2ce" fill-rule="nonzero" transform="matrix(-4.1667 0 0 4.1667 5000.04 106.358)"/><path d="M841.47 438.16c.514.183.864.628.6 1.263-.126.302-.534.746-1.048.563-.515-.183-.999-.712-.815-1.226a.988.988 0 0 1 1.263-.6zm24.43-21.11c.515.183.865.628.601 1.264-.126.3-.534.746-1.049.562-.514-.183-.998-.712-.814-1.226a.988.988 0 0 1 1.262-.6zm-7.52-32.53c.514.183.864.628.599 1.263-.125.302-.533.746-1.047.563-.515-.183-.999-.712-.815-1.226a.989.989 0 0 1 1.263-.6zm5.53 9.14c.515.183.864.628.601 1.262-.126.302-.534.747-1.049.564-.514-.183-.997-.712-.814-1.227a.988.988 0 0 1 1.262-.599zm17.83 12.61c.515.184.865.629.6 1.264-.125.301-.533.746-1.048.564-.515-.184-.998-.713-.815-1.227a.99.99 0 0 1 1.263-.601zm-1-16.85c.515.184.864.628.601 1.264-.126.301-.534.746-1.049.563-.514-.184-.997-.712-.814-1.227a.989.989 0 0 1 1.262-.6zm7.19 8.15c.513.183.863.628.599 1.263-.126.302-.534.747-1.047.564-.515-.184-.999-.712-.816-1.227a.99.99 0 0 1 1.264-.6zm-8.19 24.52c.515.182.864.628.6 1.262-.125.302-.533.747-1.048.564-.515-.184-.998-.712-.815-1.227a.988.988 0 0 1 1.263-.599zm-70.54 18c.515.183.865.628.6 1.263-.125.301-.533.746-1.048.563-.515-.184-.998-.712-.814-1.226a.986.986 0 0 1 1.262-.6zm14.25-33.82c.515.184.865.629.6 1.264-.125.301-.533.746-1.048.564-.515-.184-.998-.713-.814-1.227a.988.988 0 0 1 1.262-.601zm-11.83-6.87c.514.183.863.628.6 1.263-.125.301-.534.746-1.048.563-.515-.183-.998-.712-.816-1.226a.99.99 0 0 1 1.264-.6zm35.81 20.76c.513.183.863.628.599 1.263-.125.301-.534.746-1.047.563-.515-.183-.999-.712-.816-1.226a.989.989 0 0 1 1.264-.6zm-10.86-7.5c.515.183.865.628.6 1.263-.125.302-.533.747-1.048.563-.515-.182-.998-.712-.814-1.226a.987.987 0 0 1 1.262-.6zm-27.37-.96c.515.184.865.629.6 1.264-.125.302-.533.746-1.048.563s-.998-.711-.814-1.226a.988.988 0 0 1 1.262-.601zm5.67 18.2c.514.183.863.628.6 1.263-.125.302-.534.746-1.048.564-.515-.184-.998-.712-.816-1.227a.99.99 0 0 1 1.264-.6zm4.77-36.19c.514.183.864.628.599 1.263-.125.301-.533.747-1.048.564-.514-.184-.998-.713-.815-1.227a.99.99 0 0 1 1.264-.6zm47.26 48.39c.514.183.864.628.6 1.263-.126.301-.534.746-1.048.563s-.998-.712-.815-1.226.749-.783 1.263-.6zm23.02-3.94c.515.183.864.628.601 1.263-.126.302-.535.746-1.049.563-.515-.183-.998-.712-.815-1.226a.988.988 0 0 1 1.263-.6zm-13.13-6.33c.515.183.864.628.601 1.263-.126.302-.535.746-1.049.563-.515-.183-.998-.712-.815-1.226a.988.988 0 0 1 1.263-.6zm-18.41-3.46c.514.184.864.628.599 1.264-.125.3-.533.746-1.047.563-.515-.183-.999-.713-.815-1.226a.989.989 0 0 1 1.263-.601zm-34.93-5.31c.515.183.865.628.6 1.262-.125.302-.533.747-1.048.564s-.998-.712-.814-1.227a.988.988 0 0 1 1.262-.599zm73.16-21.95c.515.183.865.628.6 1.263-.125.302-.533.747-1.048.564s-.998-.712-.814-1.227a.987.987 0 0 1 1.262-.6zm-48.26 6.13c.513.183.863.628.599 1.263-.125.302-.534.747-1.048.563-.514-.182-.998-.711-.815-1.226a.99.99 0 0 1 1.264-.6zm-5.88-13.53c.514.183.864.628.599 1.263-.125.301-.534.747-1.047.564-.515-.184-.998-.713-.816-1.227a.99.99 0 0 1 1.264-.6zm28.85 11.6c.515.182.865.627.6 1.262-.125.302-.533.747-1.048.564s-.998-.712-.814-1.227a.986.986 0 0 1 1.262-.599zm-21.71-14.93c.515.183.865.628.6 1.263-.125.301-.533.746-1.048.563-.514-.183-.998-.712-.814-1.227a.987.987 0 0 1 1.262-.599zm7.78 23.24c.513.184.863.629.599 1.264-.125.3-.534.746-1.048.563s-.998-.712-.815-1.226a.99.99 0 0 1 1.264-.601zm-25.01-16.14c.514.183.864.628.6 1.263-.125.301-.535.746-1.048.563-.515-.183-.998-.712-.816-1.226a.99.99 0 0 1 1.264-.6zm-1-12c.515.184.864.628.6 1.264-.126.301-.534.746-1.048.563-.515-.183-.998-.712-.815-1.226a.989.989 0 0 1 1.263-.601zm-23.18-.96c.514.183.863.628.6 1.263-.125.302-.534.746-1.048.563-.515-.183-.998-.712-.816-1.226a.99.99 0 0 1 1.264-.6zm85.21 32.53c.515.183.864.628.6 1.264-.125.3-.533.746-1.048.562-.515-.183-.998-.712-.815-1.226s.748-.783 1.263-.6zm-1.66-31.57c.515.184.864.628.6 1.264-.125.301-.534.746-1.048.563-.515-.183-.998-.712-.815-1.226a.989.989 0 0 1 1.263-.601zm-56.18 41.93c.514.183.864.628.6 1.263-.125.302-.534.747-1.048.563-.515-.182-.998-.712-.815-1.226a.988.988 0 0 1 1.263-.6zm-9.34 8.07c.514.183.865.628.6 1.262-.125.302-.534.747-1.048.564s-.998-.712-.815-1.227a.99.99 0 0 1 1.263-.599z" transform="matrix(-4.1667 0 0 4.1667 5000.04 106.358)" fill="#3c5a70" fill-rule="nonzero"/><path fill="#e4c8b3" fill-rule="nonzero" d="M803.11 359.84h99.523v23.572H803.11z" transform="matrix(-4.1667 0 0 4.1667 5000.04 106.358)"/><g fill="#29475d" fill-rule="nonzero"><path d="m842.67 334.8-.058.001c-2.442.035-4.588 1.105-6.376 3.18-3.885 4.509-5.41 12.994-5.249 18.768 7.382-9.065 13.899-19.147 12.764-21.538-.048-.103-.194-.411-1.081-.411zm-12.477 25.437a.984.984 0 0 1-.975-.853c-.764-5.679.467-16.817 5.527-22.689 2.172-2.519 4.81-3.819 7.839-3.863 1.824.001 2.607.82 2.946 1.534 2.362 4.978-11.733 22.132-14.583 25.52a.986.986 0 0 1-.754.351z" transform="matrix(-4.1667 0 0 4.1667 5000.04 106.358)"/><path d="M819.15 332.61c-.466 0-.88.154-1.237.463-2.057 1.782-2.319 8.201.221 12.576 4.64 7.989 8.925 11.02 10.992 12.098-.311-4.81-1.701-19.501-7.255-23.895-1.046-.827-1.956-1.242-2.721-1.242zm11.041 27.628c-.078 0-.155-.009-.232-.027-.269-.066-6.649-1.731-13.528-13.574-2.902-4.998-2.807-12.453.194-15.052.989-.858 3.144-1.905 6.468.723 7.356 5.82 8.055 26.057 8.082 26.915a.982.982 0 0 1-.984 1.015z" transform="matrix(-4.1667 0 0 4.1667 5000.04 106.358)"/><path d="M822.75 366.47a.985.985 0 0 1-.11-1.963c6.326-.725 6.561-5.756 6.568-5.97a.985.985 0 0 1 1.831-.469c2.655 4.491 8.484 5.821 8.543 5.833a.985.985 0 0 1-.423 1.923c-.239-.053-5.198-1.184-8.504-4.952-.794 2.113-2.791 5.018-7.791 5.591a.883.883 0 0 1-.114.007z" transform="matrix(-4.1667 0 0 4.1667 5000.04 106.358)"/><path d="M829.1 445.18h-.012a.985.985 0 0 1-.973-.996l.983-84.351a.984.984 0 0 1 .984-.973h.011a.985.985 0 0 1 .973.996l-.982 84.351a.984.984 0 0 1-.984.973z" transform="matrix(-4.1667 0 0 4.1667 5000.04 106.358)"/></g><path d="m851.24 237.23-1.722 104.16 104.77.085v-104.25h-103.05z" fill="#537891" fill-rule="nonzero" transform="matrix(-4.1667 0 0 4.1667 5000.04 106.358)"/><path d="m848.97 220.18-.219 23.571h107.09V220.18h-106.87z" fill="#29475d" fill-rule="nonzero" transform="matrix(-4.1667 0 0 4.1667 5000.04 106.358)"/><path d="M954.29 303.28c-6.899.03-13.357.074-18.301.14-18.256.245-49.541 1.336-66.909.977-5.944-.122-12.56-.385-18.94-.694l-.103 6.177c22.276.855 51.497.816 66.13.383 10.853-.321 25.303-.439 38.123-.47v-6.513zm0-51.73c-6.899.03-13.357.074-18.301.14-18.256.245-49.541 1.336-66.909.978-5.68-.117-11.973-.362-18.087-.653l-.101 6.169c22.163.821 50.83.777 65.275.35 10.853-.322 25.303-.439 38.123-.47v-6.514zm0 18.26c-20.278-.776-43.204-1.042-55.559-.607-13.79.486-33.341-.436-48.009-.728l-.128 7.714c10.46-.031 21.07-.09 28.375-.207 18.257-.291 49.542-1.591 66.91-1.164 2.693.066 5.525.167 8.411.291v-5.299zm0 17.69c-6.899.03-13.357.075-18.301.143-18.256.249-49.541 1.361-66.909.996-5.864-.124-12.381-.386-18.681-.695l-.075 4.569c22.485.859 52.538.842 67.069.405 10.385-.314 24.324-.236 36.897-.132V287.5zm0 48.92c-6.899.03-13.357.075-18.301.143-18.256.249-49.541 1.361-66.909.996-6.114-.129-12.94-.408-19.488-.735l-.075 4.572 104.77.085v-5.061zm0-15.82c-20.649-.52-44.333-.454-56.724-.08-13.5.407-33.001.153-47.706.042l-.089 5.412c10.723-.026 21.702-.077 29.198-.179 18.257-.249 49.537-.261 66.905.105 2.695.056 5.529.076 8.416.082V320.6z" transform="matrix(-4.1667 0 0 4.1667 5000.04 106.358)" fill="#f7ebda" fill-rule="nonzero"/><g fill="#e4c8b3" fill-rule="nonzero"><path d="m916.94 203.1-.076.001c-4.542.039-8.143 1.697-10.704 4.929-2.5 3.156-3.513 7.357-3.359 10.389 9.169-6.631 16.264-13.346 15.74-14.97-.024-.075-.367-.349-1.601-.349zm-14.899 18.057a.984.984 0 0 1-.96-.767c-.797-3.525.161-9.323 3.536-13.582 2.906-3.67 7.136-5.632 12.231-5.676l.086-.001c1.944 0 3.115.576 3.481 1.714.454 1.408-.108 3.932-8.56 11.005-4.493 3.761-9.199 7.094-9.246 7.126a.978.978 0 0 1-.568.181z" transform="matrix(-4.1667 0 0 4.1667 5000.04 106.358)"/><path d="M888.83 201.55c-1.241 0-2.227.448-2.86 1.338-1.196 1.68-1.014 4.868 1.358 7.295 5.785 5.922 11.23 8.032 13.605 8.72-.42-3.588-2.136-13.412-8.519-16.413-1.334-.628-2.548-.94-3.584-.94zm13.21 19.613a.932.932 0 0 1-.14-.01c-.314-.045-7.785-1.206-15.98-9.594-2.77-2.834-3.452-7.144-1.555-9.811 1.741-2.449 5.064-2.837 8.888-1.04 8.889 4.18 9.738 18.8 9.77 19.42a.982.982 0 0 1-.983 1.035z" transform="matrix(-4.1667 0 0 4.1667 5000.04 106.358)"/><path d="M900.81 343.31h-.011a.986.986 0 0 1-.974-.996l1.422-122.14a.985.985 0 0 1 .922-.971.975.975 0 0 1 1.037.847c1.587 11.407 10.2 11.413 10.563 11.402.515-.025.99.423 1 .966a.983.983 0 0 1-.96 1.003c-.106-.005-2.756.042-5.632-1.576-1.656-.932-3.591-2.545-5.034-5.316l-1.348 115.81a.985.985 0 0 1-.985.973z" transform="matrix(-4.1667 0 0 4.1667 5000.04 106.358)"/><path d="M890.76 236.25a.984.984 0 0 1-.169-1.954c.417-.074 10.062-1.942 10.657-14.166a.973.973 0 0 1 1.031-.936.986.986 0 0 1 .936 1.032c-.351 7.203-3.654 11.172-6.363 13.234-2.945 2.24-5.802 2.755-5.922 2.776a.983.983 0 0 1-.17.014z" transform="matrix(-4.1667 0 0 4.1667 5000.04 106.358)"/></g><path d="m905.75 344.83 3.452 68.895 125.26-.756 2.79-68.481-131.5.342z" fill="#f45c58" fill-rule="nonzero" transform="matrix(-4.1667 0 0 4.1667 5000.04 106.358)"/><g fill="#3c5a70" fill-rule="nonzero"><path d="M980.12 339.49c-1.424 0-2.333.282-2.502.777-.666 1.951 5.76 10.252 22.021 22.746.449-4.817-1.071-11.815-5.105-16.835-3.52-4.382-8.336-6.632-14.312-6.687l-.102-.001zm20.248 26.3a.993.993 0 0 1-.597-.2c-.064-.048-6.492-4.926-12.606-10.418-11.467-10.296-12.004-13.801-11.41-15.541.485-1.422 2.003-2.119 4.485-2.109 6.502.06 11.976 2.627 15.829 7.423 4.889 6.079 6.359 14.874 5.259 20.064a.978.978 0 0 1-.96.781z" transform="matrix(-4.1667 0 0 4.1667 5000.04 106.358)"/><path d="M1018.3 337.23c-1.45 0-3.15.462-4.99 1.39-9.24 4.659-11.42 20.257-11.86 24.91 2.95-.84 10.79-3.791 19.13-12.947 3.52-3.859 3.62-8.98 1.7-11.513-.93-1.224-2.3-1.84-3.98-1.84zm-17.94 28.557a.994.994 0 0 1-.66-.252.979.979 0 0 1-.325-.779c.01-.222.279-5.499 1.985-11.577 2.32-8.296 6.04-13.785 11.07-16.318 6.95-3.504 10.3-.455 11.42 1.019 2.8 3.684 2 9.847-1.81 14.03-11.06 12.128-21.11 13.8-21.53 13.866a.947.947 0 0 1-.15.011z" transform="matrix(-4.1667 0 0 4.1667 5000.04 106.358)"/><path d="M1012.4 380.09c-.05 0-.1-.004-.15-.01-8.68-1.269-11.54-8.144-12.469-12.218-5.183 8.317-13.699 10.793-14.094 10.904a.983.983 0 0 1-.533-1.895c.098-.028 9.816-2.878 14.271-12.482a.984.984 0 0 1 1.875.389c0 .028.1 3.036 1.57 6.179 1.91 4.103 5.16 6.517 9.67 7.174.53.079.91.579.83 1.117a.982.982 0 0 1-.97.842z" transform="matrix(-4.1667 0 0 4.1667 5000.04 106.358)"/><path d="M1000.7 414.71a.986.986 0 0 1-.98-.973l-.833-69.237a.985.985 0 0 1 .972-.996h.012c.539 0 .979.434.989.973l.83 69.237c0 .544-.43.99-.97.996h-.02z" transform="matrix(-4.1667 0 0 4.1667 5000.04 106.358)"/><path d="M1036.1 365.65H907.22a.985.985 0 0 1 0-1.968h128.88a.983.983 0 0 1 0 1.968z" transform="matrix(-4.1667 0 0 4.1667 5000.04 106.358)"/></g><path d="M664.85 482.22s4.874-15.505 23.088-20.99c18.819-5.667 33.021 8.073 31.97 25.234-1.283 20.957 2.779 37.316 13.365 48.221 10.585 10.907 33.181 22.133 66.506 4.812 33.324-17.321 40.416-51.002 50.039-67.788 9.683-16.892 31.82-45.795 65.116-62.443 34.001-17 91.423-32.077 117.08-17 25.66 15.076 2.45 27.264 2.45 27.264l-151.29 173.21-170.65 4.491-47.68-115.02z" fill="#29475d" fill-rule="nonzero" transform="matrix(-4.1667 0 0 4.1667 5000.04 106.358)"/><path d="M679.35 633.34s-3.877-16.651-16.36-25.34c-30.259-21.064-46.297-53.782-23.416-94.627 22.708-40.534 49.399-42.982 49.399-42.982s23.398-4.204 21.17 21.171c-1.634 18.61 8.339 55.813 37.209 65.436 28.869 9.623 77.626-3.208 96.872-49.398 18.538-44.492 57.314-106.25 167.36-108.43 8.43-.168 16.3 4.179 20.7 11.375 19.14 31.35 60.15 123.52-38.579 225.36l-314.35-2.566z" fill="#f45c58" fill-rule="nonzero" transform="matrix(-4.1667 0 0 4.1667 5000.04 106.358)"/><path d="M756.9 575.93h-13.197c-1.11-.292-13.971-3.889-28.749-16.855.76-1.221.703-2.765.101-4.217-.971-2.34-3.656-3.45-5.996-2.479s-2.656 4.28-1.685 6.621 3.773 2.361 5.201 1.854a5.37 5.37 0 0 0 1.322-.677c10.34 9.083 19.795 13.67 25.095 15.753h-19.94c-.082-.001-8.38-.115-18.192-4.15a53.175 53.175 0 0 1-6.505-3.209c-1.252-.776-3.129-2.008-5.47-3.665a49.897 49.897 0 0 1-3.105-2.594c-.546-1.125-3.221-7.185-1.372-14.227a.763.763 0 0 0-1.475-.387c-1.281 4.878-.572 9.255.27 12.111a50.492 50.492 0 0 1-6.264-8.066c-.418-.904-2.593-5.879-3.4-13.316-.751-6.924-.419-17.347 4.926-29.003a4.519 4.519 0 0 0 1.759.356c2.488 0 3.968-2.015 4.505-4.505.578-2.682-2.017-4.505-4.505-4.505s-4.504 2.017-4.504 4.505c0 1.31.561 2.485 1.454 3.308-6.739 14.552-5.942 27.482-4.223 35.496-.061-.144-.125-.284-.185-.429-.048-.108-4.432-10.345-5.516-27.728 1.329-.673 2.22-2.383 2.36-3.969.188-2.11-1.881-3.212-3.136-3.39-2.642-.374-3.974 1.374-4.161 3.484a3.835 3.835 0 0 0 3.427 4.153c1.123 17.545 5.579 27.948 5.623 28.047a56.381 56.381 0 0 0 4.242 8.242l.041.083c.029.06.068.111.109.158a52.702 52.702 0 0 0 3.402 4.771c-6.308-5.128-13.731-11.794-21.121-19.829.759-.914 1.214-2.104 1.214-3.453 0-2.393-2.4-5.362-5.361-5.362a5.362 5.362 0 0 0 0 10.723 5.437 5.437 0 0 0 3.015-.892c9.367 10.186 18.594 17.982 24.986 22.919 2.173 1.68 4.122 3.11 5.788 4.292a52.791 52.791 0 0 0 6.078 4.088c.91.572 1.432.857 1.764.972a55.237 55.237 0 0 0 4.817 2.255 59.589 59.589 0 0 0 9.249 2.933l-33.877.511a3.559 3.559 0 0 0-.541-1.756c-1.504-2.433-3.956-2.278-6.248-1.469a4.401 4.401 0 0 0 2.931 8.298c1.406-.496 2.99-1.888 3.603-3.544l38.772-.585c-7.068 2.086-11.263 5.297-13.455 7.485a5.963 5.963 0 0 0-1.614-.216 4.589 4.589 0 0 0-4.588 4.589c0 2.533 2.936 4.093 5.47 4.093s3.627-2.58 3.706-4.093c.09-1.716-.516-2.909-1.486-3.65 2.94-2.748 9.149-7.005 20.269-8.333l1.487-.023h14.999c-6.816 3.667-16.337 12.947-19.846 16.485-.085-.05-.17-.102-.258-.149a3.837 3.837 0 0 0-5.194 1.569c-1.001 1.869.548 4.178 2.415 5.179 1.868 1.001 3.693-.47 4.348-1.554.967-1.597.725-3.01-.145-4.058 5.904-5.955 18.34-17.472 23.272-17.472H756.9a.763.763 0 1 0 0-1.524zm112.11.85a.813.813 0 0 1 .845-.778c3.39.142 6.846.21 10.354.191 1.183-2.847 6.33-13.404 19.36-18.579a.291.291 0 0 1 .281.05.271.271 0 0 1 .081.274c-.038.144-3.724 13.295-16.077 18.202a194.48 194.48 0 0 0 18.527-1.285c3.009-17.437 17.287-22.195 17.434-22.251a.27.27 0 0 1 .349.31c-2.207 11.048-11.471 18.743-15.558 21.664a168.798 168.798 0 0 0 16.129-2.902c1.035-3.915 6.743-22.508 23.082-28.784a.27.27 0 0 1 .362.314c-.049.209-4.555 18.932-18.445 27.23a146.026 146.026 0 0 0 16.397-5.405c4.217-21.906 20.01-30.543 20.171-30.628a.272.272 0 0 1 .395.276c-2.082 15.089-10.983 24.305-16.289 28.563a131.474 131.474 0 0 0 17.488-9.246c-.334-3.584-1.105-19.296 9.786-27.629a.275.275 0 0 1 .279-.03.273.273 0 0 1 .156.233c.008.174.602 15.537-6.583 25.049a127.368 127.368 0 0 0 12.438-9.611c-1.578-1.672-4.979-7.382.943-22.417a.27.27 0 0 1 .502-.003c.016.037 1.507 3.74 2.197 8.38.679 4.558.359 8.49-.915 11.585a130.11 130.11 0 0 0 6.329-6.305c-8.192-12.415.49-25.841.579-25.976a.27.27 0 0 1 .224-.121.268.268 0 0 1 .227.118c5.591 8.187 2.435 19.381.673 24.127a139.04 139.04 0 0 0 11.248-14.219c-3.347-2.775-12.126-11.878-7.696-28.275a.27.27 0 0 1 .469-.104c.113.134 10.207 12.213 9.477 25.03 1.49-2.27 2.93-4.619 4.33-7.046-8.43-18.524 1.98-28.839 2.09-28.942a.283.283 0 0 1 .28-.062c.09.033.16.116.18.214 1.8 11.235.59 20.173-.51 25.155a174.44 174.44 0 0 0 7.39-15.33c-3.9-15.862 8.63-22.01 8.76-22.072.07-.036.16-.035.23.001s.13.104.15.184c3.5 15.209-4.92 21.131-7.69 22.631a182.017 182.017 0 0 1-3.22 7.127c9.07-10.369 18.53-7.806 18.64-7.776a.27.27 0 0 1 .18.179c.03.087.01.182-.05.252-7.06 8.769-12.27 12.353-15.88 13.624-1.13.395-2.1.566-2.92.601-1.47.061-2.49-.305-3.1-.643a162.643 162.643 0 0 1-7.64 12.986c2.94-2.497 7.56-3.744 13.6-3.634 6 .111 11.36 1.525 11.41 1.54.11.026.18.11.2.211a.263.263 0 0 1-.11.269c-2.98 2.187-5.92 3.666-8.69 4.643-10.05 3.528-17.99.438-18.58.193a141.988 141.988 0 0 1-11.035 13.973c15.775-5.288 24.565 1.053 24.665 1.122.07.055.11.147.1.24a.275.275 0 0 1-.14.219c-1.1.553-2.2 1.016-3.29 1.401-10.25 3.6-20.032.262-23.135-1.013a132.116 132.116 0 0 1-8.272 8.102c12.964 1.098 17.967 8.325 18.017 8.401a.25.25 0 0 1 .02.251.233.233 0 0 1-.16.155l-.03.009c-13.55 3.015-18.036-4.845-19.175-7.633a128.935 128.935 0 0 1-14.021 10.65c13.187-1.385 23.263 9.188 23.37 9.302a.276.276 0 0 1 .065.253.274.274 0 0 1-.173.188l-.006.002c-16.42 5.364-23.94-5.223-25.676-8.189a131.375 131.375 0 0 1-8.885 5.088 136.205 136.205 0 0 1-7.81 3.759c16.295-1.61 25.831 13.493 25.936 13.663a.272.272 0 0 1-.228.413c-16.793.153-28.213-9.517-30.801-11.933a144.195 144.195 0 0 1-5.445 2.042 150.91 150.91 0 0 1-11.04 3.399c13.66 1.318 24.806 15.956 24.931 16.123.06.08.071.187.029.278a.275.275 0 0 1-.234.155c-17.323.814-27.634-12.203-29.825-15.285a169.477 169.477 0 0 1-16.057 2.907c3.204 1.504 6.185 4.758 8.726 9.57 2.378 4.502 3.561 8.833 3.572 8.876a.27.27 0 0 1-.36.322c-15.492-6.082-15.368-15.4-14.871-18.411a194.301 194.301 0 0 1-17.463 1.215c3.118 1.376 6.16 4.134 8.967 8.169 3.086 4.438 4.834 8.91 4.85 8.955a.273.273 0 0 1-.046.275.275.275 0 0 1-.264.088c-13.39-2.966-17.201-14.363-17.992-17.42-3.392.014-6.824-.042-10.305-.188a.812.812 0 0 1-.778-.846zm134.09 58.77s-2.81-25.084-17.665-25.084c-8.838 0-15.526 17.321-15.526 17.321s-12.8-14.577-21.765-13.716c-8.966.862-16.241 13.721-16.241 13.721s-8.926-16.219-18.148-15.53-15.343 16.006-15.343 16.006-6.558-17.686-16.356-16.006c-12.188 2.09-15.727 15.36-15.727 15.36s-4.77-15.273-12.45-15.553c-11.521-.42-15.476 10.612-16.829 17.7-1.821-7.409-6.339-19.303-16.57-19.303-8.838 0-15.526 17.321-15.526 17.321s-12.8-14.577-21.766-13.716c-8.965.862-16.24 13.721-16.24 13.721s-8.927-16.219-18.149-15.53c-9.221.689-15.342 16.006-15.342 16.006s-6.558-17.686-16.356-16.006c-12.189 2.09-15.728 15.36-15.728 15.36s-4.769-15.273-12.449-15.553c-16.924-.616-13.256 21.903-13.256 21.903s104.6 6.429 161.86 1.629c11.89.506 111.91 4.552 165.58-.051z" transform="matrix(-4.1667 0 0 4.1667 5000.04 106.358)" fill="#f7ebda" fill-rule="nonzero"/><path d="M884.4 625.95c0 1.221-.958 2.211-2.141 2.211s-2.141-.99-2.141-2.211.958-2.21 2.141-2.21 2.141.989 2.141 2.21zm30.96 0c0 1.221-.958 2.211-2.14 2.211-1.183 0-2.142-.99-2.142-2.211s.959-2.21 2.142-2.21c1.182 0 2.14.989 2.14 2.21zm36.67-2.21c0 1.221-.959 2.21-2.141 2.21-1.183 0-2.142-.989-2.142-2.21s.959-2.21 2.142-2.21c1.182 0 2.141.989 2.141 2.21zm36.85-.89c0 1.22-.959 2.21-2.142 2.21-1.182 0-2.14-.99-2.14-2.21 0-1.221.958-2.21 2.14-2.21 1.183 0 2.142.989 2.142 2.21zm-134.94.89c0 1.221-.958 2.21-2.14 2.21-1.183 0-2.142-.989-2.142-2.21s.959-2.21 2.142-2.21c1.182 0 2.14.989 2.14 2.21zm-134.5 2.21c0 1.221-.959 2.211-2.141 2.211-1.183 0-2.141-.99-2.141-2.211s.958-2.21 2.141-2.21c1.182 0 2.141.989 2.141 2.21zm30.97 0c0 1.221-.958 2.211-2.14 2.211-1.183 0-2.142-.99-2.142-2.211s.959-2.21 2.142-2.21c1.182 0 2.14.989 2.14 2.21zm36.67-2.21c0 1.221-.958 2.21-2.14 2.21-1.183 0-2.142-.989-2.142-2.21s.959-2.21 2.142-2.21c1.182 0 2.14.989 2.14 2.21zm36.85-.89c0 1.22-.958 2.21-2.141 2.21-1.182 0-2.141-.99-2.141-2.21 0-1.221.959-2.21 2.141-2.21 1.183 0 2.141.989 2.141 2.21zm-134.94.89c0 1.221-.958 2.21-2.14 2.21-1.183 0-2.142-.989-2.142-2.21s.959-2.21 2.142-2.21c1.182 0 2.14.989 2.14 2.21z" transform="matrix(-4.1667 0 0 4.1667 5000.04 106.358)" fill="#3c5a70" fill-rule="nonzero"/><path d="M708.65 644.67s-18.782 34.019-21.774 40.46c-2.109 4.54-7.735 14.712-7.735 14.712s7.2 7.73 14.044 6.875c6.842-.856 14.25-26.57 17.604-34.271 1.941-4.454 12.831-30.973 12.831-30.973l-14.97 3.197zm280.56 0s11.919 23.886 14.349 30.927c1.64 4.731 10.13 24.625 10.13 24.625s-8.01.855-14.856 0c-6.844-.856-11.4-20.367-14.756-28.068-1.94-4.453-9.837-30.681-9.837-30.681l14.97 3.197zm-150.12 1.71s.16 30.312 0 35.926c-.086 3.022-.191 20.529-.191 20.529l18.298.738s-.963-19.513-1.443-27.907c-.502-8.753-.497-35.941-.497-35.941l-16.167 6.655z" transform="matrix(-4.1667 0 0 4.1667 5000.04 106.358)" fill="#c0a38d" fill-rule="nonzero"/><path d="M679.35 633.34s-10.907.642-11.762 8.34c-.856 7.698 19.674 8.554 28.655 8.554h173.64c9.837 0 151.82-3.849 158.24-2.994 6.42.856 10.26-12.403 0-13.9s-169.79.214-190.32 0-158.46 0-158.46 0z" fill="#e4c8b3" fill-rule="nonzero" transform="matrix(-4.1667 0 0 4.1667 5000.04 106.358)"/><path d="M1103.4 695.61c-15.49.242-254.19.283-284.92 0-24.122-.221-156.52-.095-212.36-.031-11.033.012-75.967-.2-82.712-33.052-6.807-33.146 19.246-40.417 19.246-40.417s1.045-.372 2.585-.962c14.693-5.132 15.458.321 15.378 1.844-.08 1.524-1.795 4.829-.321 5.695 4.651 2.725 6.495-3.45 6.495-3.45 5.454-18.443-20.528-18.049-20.528-18.049l-.002.019c-4.928-.172-11.574 1.05-20.287 4.96-25.02 11.227-50.36 48.436-21.491 78.588 28.868 30.151 102.06 27.195 102.06 27.195h259.95c14.726 0 227.23-3.83 236.9-3.959 10.7-.141 8.05-18.507 0-18.381z" fill="#e4c8b3" fill-rule="nonzero" transform="matrix(-4.1667 0 0 4.1667 5000.04 106.358)"/><g fill="#f7ebda" fill-rule="nonzero"><path d="M905.21 499.19a.909.909 0 0 1-.187-1.796c.409-.086 40.894-8.672 49.994-14.199a.908.908 0 0 1 .942 1.553c-9.361 5.686-48.883 14.068-50.561 14.423a.93.93 0 0 1-.188.019z" transform="matrix(-4.1667 0 0 4.1667 5000.04 106.358)"/><path d="M940.03 513.6a.91.91 0 0 1-.862-.622c-.108-.33-11.037-33.05-22.442-48.601a.909.909 0 0 1 1.465-1.073c11.574 15.781 22.591 48.77 22.701 49.101a.907.907 0 0 1-.862 1.195z" transform="matrix(-4.1667 0 0 4.1667 5000.04 106.358)"/><path d="M952.05 502.81a.909.909 0 0 1-.354-.073c-6.731-2.852-41.975-20.695-43.472-21.453a.909.909 0 0 1 .82-1.62c.366.185 36.686 18.573 43.36 21.401a.908.908 0 0 1-.354 1.745z" transform="matrix(-4.1667 0 0 4.1667 5000.04 106.358)"/><path d="M925.83 515.59a.907.907 0 0 1-.872-1.163c.082-.278 8.184-27.956 12.319-46.804a.908.908 0 0 1 1.774.389c-4.149 18.91-12.269 46.647-12.35 46.926a.908.908 0 0 1-.871.652zm-69.84 6.99a.909.909 0 0 1-.027-1.816c.305-.01 30.676-.96 37.94-3.762a.908.908 0 0 1 .654 1.693c-7.552 2.913-37.277 3.846-38.539 3.883-.009.002-.019.002-.028.002z" transform="matrix(-4.1667 0 0 4.1667 5000.04 106.358)"/><path d="M879.31 537.53a.91.91 0 0 1-.898-.779c-.036-.251-3.687-25.311-9.902-38.011a.91.91 0 0 1 .417-1.215.911.911 0 0 1 1.215.417c6.34 12.957 9.919 37.512 10.067 38.551a.907.907 0 0 1-.899 1.037z" transform="matrix(-4.1667 0 0 4.1667 5000.04 106.358)"/><path d="M889.41 531.29a.9.9 0 0 1-.495-.148c-4.508-2.943-27.698-20.438-28.683-21.182a.907.907 0 0 1 1.094-1.449c.241.181 24.126 18.201 28.582 21.11a.91.91 0 0 1-.498 1.669z" transform="matrix(-4.1667 0 0 4.1667 5000.04 106.358)"/><path d="M868.78 537.12a.906.906 0 0 1-.811-1.313c.094-.191 9.551-19.158 14.987-32.251a.908.908 0 1 1 1.678.696c-5.462 13.152-14.946 32.175-15.041 32.365a.91.91 0 0 1-.813.503zm135.52-75.16a.98.98 0 0 1-.84-.467c-.24-.384-23.899-38.512-32.883-45.757a.986.986 0 0 1-.15-1.385.988.988 0 0 1 1.385-.148c9.245 7.455 32.338 44.673 33.318 46.254a.975.975 0 0 1-.32 1.355.97.97 0 0 1-.51.148z" transform="matrix(-4.1667 0 0 4.1667 5000.04 106.358)"/><path d="M964.63 462.16a.986.986 0 0 1-.817-1.534c11.833-17.611 41.424-40.99 41.724-41.224a.983.983 0 0 1 1.38.165.988.988 0 0 1-.17 1.382c-.29.233-29.639 23.422-41.3 40.776a.982.982 0 0 1-.817.435z" transform="matrix(-4.1667 0 0 4.1667 5000.04 106.358)"/><path d="M984.85 465.03a.984.984 0 0 1-.979-1.104c.055-.442 5.439-44.249 5.864-52.097a.99.99 0 0 1 1.036-.931c.543.031.96.495.931 1.038-.431 7.915-5.654 50.424-5.877 52.231a.984.984 0 0 1-.975.863z" transform="matrix(-4.1667 0 0 4.1667 5000.04 106.358)"/><path d="M961.06 439.57a.985.985 0 0 1-.127-1.961c20.811-2.73 52.084-4.658 52.404-4.676.55-.047 1.01.378 1.04.921s-.38 1.01-.92 1.043c-.32.019-31.524 1.944-52.268 4.664a.954.954 0 0 1-.129.009zm-39.09 92.44c-4.191 0-12.61-1.465-12.994-1.532a.984.984 0 0 1 .339-1.94c.099.017 10.007 1.733 13.452 1.478a.98.98 0 0 1 1.056.905.982.982 0 0 1-.905 1.057c-.282.022-.601.032-.948.032z" transform="matrix(-4.1667 0 0 4.1667 5000.04 106.358)"/><path d="M915.22 538.31a.984.984 0 0 1-.964-1.19c.017-.084 1.787-8.448 1.468-13.429a.984.984 0 0 1 1.965-.125c.336 5.251-1.432 13.612-1.508 13.965a.985.985 0 0 1-.961.779zm73.66 55a.986.986 0 0 1-.208-1.947l15.856-3.434a.984.984 0 0 1 .42 1.924l-15.859 3.434a.942.942 0 0 1-.209.023z" transform="matrix(-4.1667 0 0 4.1667 5000.04 106.358)"/><path d="M1000.4 599.67a.984.984 0 0 1-.961-.776c-.027-.123-2.7-12.426-4.379-16.155a.985.985 0 0 1 1.796-.807c1.763 3.917 4.394 16.031 4.504 16.546a.979.979 0 0 1-.96 1.192zm40.5-150.99-.05-.001-16.2-.684a.987.987 0 0 1-.95-1.025c.03-.543.5-.967 1.03-.943l16.21.685a.986.986 0 0 1-.04 1.968z" transform="matrix(-4.1667 0 0 4.1667 5000.04 106.358)"/><path d="m1034.3 457.08-.04-.001a.987.987 0 0 1-.94-1.025c.01-.127.53-12.705-.15-16.738a.984.984 0 0 1 .8-1.134.99.99 0 0 1 1.14.806c.71 4.236.2 16.623.18 17.149a.993.993 0 0 1-.99.943zm-89.73-16.4c-.053 0-.107-.005-.162-.014l-10.107-1.676a.984.984 0 1 1 .322-1.941l10.106 1.675a.985.985 0 0 1-.159 1.956z" transform="matrix(-4.1667 0 0 4.1667 5000.04 106.358)"/><path d="M938.06 444.89a.984.984 0 0 1-.983-.94c-.125-2.747 1.158-10.509 1.212-10.838a.985.985 0 0 1 1.942.324c-.012.078-1.302 7.883-1.187 10.425a.986.986 0 0 1-.94 1.028l-.044.001zm45.78 46.67a.989.989 0 0 1-.344-.062l-9.602-3.572a.989.989 0 0 1-.579-1.267.989.989 0 0 1 1.267-.58l9.602 3.573c.508.19.768.757.579 1.267a.989.989 0 0 1-.923.641z" transform="matrix(-4.1667 0 0 4.1667 5000.04 106.358)"/><path d="M976.65 494.44a.987.987 0 0 1-.975-1.128c.402-2.72 3.14-10.095 3.258-10.408a.985.985 0 0 1 1.844.688c-.028.074-2.782 7.491-3.153 10.008a.985.985 0 0 1-.974.84zm53.65 62.47c-.12 0-.23-.019-.35-.061l-9.6-3.573a.984.984 0 1 1 .69-1.845l9.6 3.572a.985.985 0 0 1-.34 1.907z" transform="matrix(-4.1667 0 0 4.1667 5000.04 106.358)"/><path d="M1023.1 559.8a.983.983 0 0 1-.98-1.128c.4-2.721 3.14-10.095 3.26-10.408a.983.983 0 0 1 1.84.687c-.03.074-2.78 7.492-3.15 10.008a.98.98 0 0 1-.97.841zM902.3 454.59a1.2 1.2 0 0 1-.084-.003l-10.208-.858a.986.986 0 0 1-.899-1.064.995.995 0 0 1 1.064-.899l10.208.858a.985.985 0 0 1-.081 1.966z" transform="matrix(-4.1667 0 0 4.1667 5000.04 106.358)"/><path d="M896.14 459.3a.985.985 0 0 1-.976-.862c-.345-2.728.31-10.567.337-10.9.047-.541.534-.927 1.064-.898a.985.985 0 0 1 .899 1.064c-.007.079-.665 7.964-.346 10.487a.986.986 0 0 1-.978 1.109zm-11.48 23.36a.907.907 0 0 1-.9-.799l-1.13-9.381a.908.908 0 0 1 1.803-.217l1.129 9.381a.908.908 0 0 1-.902 1.016z" transform="matrix(-4.1667 0 0 4.1667 5000.04 106.358)"/><path d="M879.22 479.64a.91.91 0 0 1-.108-1.81c.074-.009 7.319-.886 9.538-1.645a.907.907 0 1 1 .587 1.718c-2.399.821-9.602 1.694-9.908 1.73a.808.808 0 0 1-.109.007zm-83.58 112.84c-3.601-7.085-5.85-9.33-7.142-9.924v-7.463c1.915 2.492 5.339 5.795 6.25 4.012 1.206-2.36-4.668-18.043-7.5-14.892-2.832 3.15-8.864 16.256-6.137 16.448 1.926.136 4.191-3.676 5.356-5.929v8.498c-5.797 5.795-8.496 12.307-6.667 12.764 1.634.408 5.623-5.66 6.667-7.303v14.384a1.016 1.016 0 0 0 2.031 0v-13.269c1.267 1.033 3.1 2.428 5.149 3.67 2.737 1.66 1.993-.996 1.993-.996zm51.71 0c-3.6-7.085-5.85-9.331-7.142-9.924v-7.463c1.916 2.492 5.339 5.795 6.25 4.012 1.207-2.36-4.668-18.043-7.5-14.892-2.832 3.15-8.864 16.256-6.137 16.448 1.926.136 4.191-3.676 5.357-5.929v8.498c-5.798 5.795-8.497 12.307-6.668 12.764 1.634.408 5.623-5.66 6.668-7.303v14.384a1.015 1.015 0 1 0 2.03 0v-13.269c1.267 1.033 3.1 2.428 5.148 3.67 2.739 1.66 1.994-.996 1.994-.996zm-25.86 0c-3.599-7.085-5.849-9.331-7.141-9.924v-7.463c1.915 2.492 5.338 5.795 6.25 4.012 1.206-2.36-4.668-18.043-7.5-14.892-2.832 3.15-8.865 16.256-6.137 16.448 1.926.136 4.19-3.676 5.355-5.929v8.498c-5.797 5.795-8.496 12.307-6.667 12.764 1.635.408 5.622-5.66 6.667-7.303v14.384a1.016 1.016 0 0 0 2.032 0v-13.269c1.266 1.033 3.099 2.428 5.148 3.67 2.738 1.66 1.993-.996 1.993-.996z" transform="matrix(-4.1667 0 0 4.1667 5000.04 106.358)"/></g><path d="M904.48 707.61c0 1.726-1.354 3.124-3.026 3.124s-3.026-1.398-3.026-3.124c0-1.725 1.354-3.125 3.026-3.125s3.026 1.4 3.026 3.125zm44.13-1.05c0 1.726-1.354 3.124-3.026 3.124s-3.026-1.398-3.026-3.124c0-1.725 1.354-3.125 3.026-3.125s3.026 1.4 3.026 3.125zm51.08-.71c0 1.725-1.354 3.125-3.026 3.125s-3.026-1.4-3.026-3.125c0-1.726 1.354-3.124 3.026-3.124s3.026 1.398 3.026 3.124zm52.11 0c0 1.725-1.36 3.125-3.03 3.125s-3.03-1.4-3.03-3.125c0-1.726 1.36-3.124 3.03-3.124s3.03 1.398 3.03 3.124zm-190.76 1.3c0 1.726-1.355 3.124-3.026 3.124-1.672 0-3.028-1.398-3.028-3.124 0-1.725 1.356-3.125 3.028-3.125 1.671 0 3.026 1.4 3.026 3.125zm-197.53.57c0 1.725-1.355 3.124-3.027 3.124s-3.026-1.399-3.026-3.124c0-1.726 1.354-3.125 3.026-3.125s3.027 1.399 3.027 3.125zm50.04-.57c0 1.726-1.356 3.124-3.028 3.124-1.67 0-3.026-1.398-3.026-3.124 0-1.725 1.356-3.125 3.026-3.125 1.672 0 3.028 1.4 3.028 3.125zm54.07 0c0 1.726-1.355 3.124-3.026 3.124-1.672 0-3.028-1.398-3.028-3.124 0-1.725 1.356-3.125 3.028-3.125 1.671 0 3.026 1.4 3.026 3.125zm50.98-.37c0 1.726-1.354 3.125-3.026 3.125s-3.026-1.399-3.026-3.125c0-1.725 1.354-3.124 3.026-3.124s3.026 1.399 3.026 3.124zm-204.98.94c0 1.725-1.354 3.124-3.026 3.124s-3.027-1.399-3.027-3.124c0-1.726 1.355-3.125 3.027-3.125s3.026 1.399 3.026 3.125zm-49.58-5c0 1.725-1.355 3.124-3.027 3.124s-3.027-1.399-3.027-3.124c0-1.726 1.355-3.125 3.027-3.125s3.027 1.399 3.027 3.125zm-52.18-52.49c0 1.725-1.355 3.125-3.026 3.125-1.672 0-3.027-1.4-3.027-3.125 0-1.726 1.355-3.125 3.027-3.125 1.671 0 3.026 1.399 3.026 3.125zm13.69 35.93c0 1.726-1.356 3.124-3.026 3.124-1.672 0-3.028-1.398-3.028-3.124 0-1.725 1.356-3.125 3.028-3.125 1.67 0 3.026 1.4 3.026 3.125z" transform="matrix(-4.1667 0 0 4.1667 5000.04 106.358)" fill="#3c5a70" fill-rule="nonzero"/><path d="M1625.973 1312.016a14.892 14.892 0 1 0-29.784 0 14.892 14.892 0 0 0 29.784 0z" fill="#72a5c1" fill-rule="nonzero"/><path d="M387.85 711.192a14.896 14.896 0 1 0-29.793.009 14.896 14.896 0 0 0 29.792-.009z" fill="#eee2ce" fill-rule="nonzero"/><path d="M536.98 1723.171a14.896 14.896 0 1 0-29.792 0 14.896 14.896 0 0 0 29.792 0zM2017.184 1802.937a14.896 14.896 0 1 0-29.791 0 14.896 14.896 0 0 0 29.791 0z" fill="#72a5c1" fill-rule="nonzero"/><path d="M2409.94 1222.474a14.896 14.896 0 1 0-29.793 0 14.896 14.896 0 0 0 29.792 0z" fill="#eee2ce" fill-rule="nonzero"/><path d="M462.88 2052.689a14.896 14.896 0 1 0-29.792.008 14.896 14.896 0 0 0 29.792-.008zm1353.553 142.21a14.892 14.892 0 1 0-29.784 0 14.892 14.892 0 0 0 29.784 0z" fill="#3c5a70" fill-rule="nonzero"/></svg>